<?xml version="1.0" standalone="no"?>
<!DOCTYPE svg PUBLIC "-//W3C//DTD SVG 1.1//EN" "http://www.w3.org/Graphics/SVG/1.1/DTD/svg11.dtd" >
<svg xmlns="http://www.w3.org/2000/svg" xmlns:xlink="http://www.w3.org/1999/xlink" version="1.1">
<metadata>
Created by FontForge 20201107 at Wed Jan 17 15:16:45 2024
 By 
copyright missing
</metadata>
<defs>
<font id="Geist-Regular" horiz-adv-x="1228" >
  <font-face 
    font-family="Geist"
    font-weight="400"
    font-stretch="normal"
    units-per-em="2048"
    panose-1="0 0 0 0 0 0 0 0 0 0"
    ascent="1638"
    descent="-410"
    x-height="1085"
    cap-height="1454"
    bbox="-92 -451 4788 1948"
    underline-thickness="102"
    underline-position="-255"
    unicode-range="U+0020-FF5D"
  />
<missing-glyph horiz-adv-x="880" 
d="M723 1454v-1761h-559v1761h559zM295 -186h291v59h-178l122 82h56v59h-291v-59h123l-123 -82v-59zM295 53h291v199h-291v-199zM295 358h291v199h-176v-98h61v41h57v-84h-176v141h-57v-199zM295 596h291v176h-58v-117h-233v-59zM295 696h176v123h115v60h-291v-60h115v-63
h-115v-60zM295 926h291v59h-115v123h-176v-182zM295 1155h291v57h-115v66h115v57h-291v-57h115v-66h-115v-57zM352 113v82h176v-82h-176zM352 985v64h58v-64h-58z" />
    <glyph glyph-name="f_f.liga" unicode="ff" horiz-adv-x="1406" 
d="M270 1155q0 141 72.5 220t218.5 79h168v-151h-168q-53 0 -86 -40t-33 -108v-70h420v70q0 141 72.5 220t218.5 79h168v-151h-168q-53 0 -86 -40t-33 -108v-70h273v-151h-273v-934h-172v934h-420v-934h-172v934h-147v151h147v70z" />
    <glyph glyph-name="t_t.liga" unicode="tt" horiz-adv-x="1427" 
d="M272 1331h172v-246h447v246h172v-246h289v-151h-289v-645q0 -137 129 -137h156v-152h-156q-146 0 -223.5 75t-77.5 214v645h-447v-645q0 -137 129 -137h156v-152h-156q-146 0 -223.5 75t-77.5 214v645h-159v151h159v246z" />
    <glyph glyph-name="hyphen_hyphen_hyphen_greater.liga" unicode="&#x2d;&#x2d;&#x2d;&#x3e;" horiz-adv-x="4915" 
d="M4788 727l-637 -637h-227l555 557h-4352v160h4356l-557 557h227z" />
    <glyph glyph-name="hyphen_hyphen_greater.liga" unicode="&#x2d;&#x2d;&#x3e;" horiz-adv-x="3686" 
d="M3559 727l-637 -637h-227l555 557h-3123v160h3127l-557 557h228z" />
    <glyph glyph-name="hyphen_greater.liga" unicode="&#x2d;&#x3e;" horiz-adv-x="2457" 
d="M2331 727l-637 -637h-228l555 557h-1894v160h1898l-557 557h228z" />
    <glyph glyph-name="less_hyphen.liga" unicode="&#x3c;&#x2d;" horiz-adv-x="2457" 
d="M127 727l635 637h227l-557 -557h1899v-160h-1895l555 -557h-227z" />
    <glyph glyph-name="less_hyphen_hyphen.liga" unicode="&#x3c;&#x2d;&#x2d;" horiz-adv-x="3686" 
d="M127 727l635 637h227l-557 -557h3127v-160h-3123l555 -557h-227z" />
    <glyph glyph-name="less_hyphen_hyphen_hyphen.liga" unicode="&#x3c;&#x2d;&#x2d;&#x2d;" horiz-adv-x="4915" 
d="M127 727l635 637h227l-557 -557h4356v-160h-4352l555 -557h-227z" />
    <glyph glyph-name="less_hyphen_greater.liga" unicode="&#x3c;&#x2d;&#x3e;" horiz-adv-x="3684" 
d="M3557 727l-637 -637h-227l555 557h-2812l555 -557h-227l-637 637l635 637h227l-557 -557h2820l-557 557h227z" />
    <glyph glyph-name=".notdef" horiz-adv-x="880" 
d="M723 1454v-1761h-559v1761h559zM295 -186h291v59h-178l122 82h56v59h-291v-59h123l-123 -82v-59zM295 53h291v199h-291v-199zM295 358h291v199h-176v-98h61v41h57v-84h-176v141h-57v-199zM295 596h291v176h-58v-117h-233v-59zM295 696h176v123h115v60h-291v-60h115v-63
h-115v-60zM295 926h291v59h-115v123h-176v-182zM295 1155h291v57h-115v66h115v57h-291v-57h115v-66h-115v-57zM352 113v82h176v-82h-176zM352 985v64h58v-64h-58z" />
    <glyph glyph-name=".null" horiz-adv-x="0" 
 />
    <glyph glyph-name="nonmarkingreturn" horiz-adv-x="682" 
 />
    <glyph glyph-name="space" unicode=" " horiz-adv-x="512" 
 />
    <glyph glyph-name="exclam" unicode="!" horiz-adv-x="440" 
d="M139 1454h176v-473q0 -108 -14 -306t-16 -255h-113q-2 37 -17.5 243.5t-15.5 317.5v473zM111 0v223h219v-223h-219z" />
    <glyph glyph-name="quotedbl" unicode="&#x22;" horiz-adv-x="729" 
d="M449 1454h180v-164l-47 -372h-125zM100 1290v164h181l-9 -536h-122z" />
    <glyph glyph-name="numbersign" unicode="#" horiz-adv-x="978" 
d="M76 0l74 403h-170l22 144h174l66 354h-181l23 143h184l74 408l147 2l-75 -410h276l74 408l147 2l-75 -410h153l-22 -143h-158l-66 -354h164l-22 -144h-168l-74 -403h-145l73 403h-276l-74 -403h-145zM322 547h276l66 354h-277z" />
    <glyph glyph-name="dollar" unicode="$" horiz-adv-x="1327" 
d="M305 477q24 -126 100.5 -209.5t198.5 -109.5v520q-452 112 -452 409q0 178 125 286t327 114v162h154v-174q176 -35 287 -156t131 -295l-185 -12q-15 104 -76 177.5t-157 104.5v-491q98 -29 177 -67t141 -89t96 -117.5t34 -144.5q0 -91 -36 -166t-98.5 -125t-142 -79.5
t-171.5 -37.5v-163h-154v168q-204 25 -335 155t-148 328zM336 1087q0 -49 21 -88t61 -67t83.5 -47t102.5 -37v467q-119 -6 -193.5 -68t-74.5 -160zM758 150q123 9 193.5 64.5t70.5 152.5q0 89 -63.5 152.5t-200.5 113.5v-483z" />
    <glyph glyph-name="percent" unicode="%" horiz-adv-x="1572" 
d="M1225 1487h194l-1061 -1512h-194zM96 1102q0 149 86 251.5t209 102.5t209 -102.5t86 -251.5q0 -148 -86 -250t-209 -102t-209 102t-86 250zM252 1102q0 -91 37.5 -144t101.5 -53q65 0 103 53t38 144t-38 144.5t-103 53.5q-64 0 -101.5 -53.5t-37.5 -144.5zM887 354
q0 148 86 250.5t209 102.5t209 -102.5t86 -250.5q0 -149 -86 -251.5t-209 -102.5t-209 102.5t-86 251.5zM1042 354q0 -91 38 -144.5t102 -53.5q65 0 103 53.5t38 144.5t-38 144t-103 53q-64 0 -102 -53t-38 -144z" />
    <glyph glyph-name="ampersand" unicode="&#x26;" horiz-adv-x="1269" 
d="M590 1487q-92 8 -174 -31.5t-133.5 -120.5t-51.5 -184q0 -165 136 -346l-27 -19q-140 -98 -199 -187t-59 -214q0 -195 140 -302.5t374 -107.5q107 0 199 30.5t151 86.5l76 -92h207l-174 211q60 72 95.5 186.5t37.5 237.5l-180 16q5 -90 -11 -176t-51 -135l-336 428
q212 130 271 305q27 78 12 150t-57 128.5t-107.5 92.5t-138.5 43zM262 385q0 48 19 91.5t54 80t66 61t74 52.5l352 -449q-32 -40 -94 -63t-137 -23q-154 0 -244 67.5t-90 182.5zM406 1145q-2 73 49 123.5t125 46.5q65 -4 104 -51.5t39 -118.5q0 -68 -58 -134t-157 -112
q-102 142 -102 246z" />
    <glyph glyph-name="quotesingle" unicode="'" horiz-adv-x="380" 
d="M100 1454h181v-156l-27 -380h-125l-29 380v156z" />
    <glyph glyph-name="parenleft" unicode="(" horiz-adv-x="636" 
d="M541 1536q-518 -880 0 -1761h-160q-284 424 -284 880.5t284 880.5h160z" />
    <glyph glyph-name="parenright" unicode=")" horiz-adv-x="636" 
d="M256 1536q284 -424 284 -880.5t-284 -880.5h-160q518 881 0 1761h160z" />
    <glyph glyph-name="asterisk" unicode="*" horiz-adv-x="892" 
d="M797 1182v-121h-246l125 -213l-105 -62l-125 213l-122 -213l-105 62l123 213h-246v121h246l-123 211l105 61l122 -213l125 213l105 -61l-125 -211h246z" />
    <glyph glyph-name="plus" unicode="+" horiz-adv-x="1167" 
d="M96 684h408v408h160v-408h407v-160h-407v-407h-160v407h-408v160z" />
    <glyph glyph-name="comma" unicode="," horiz-adv-x="413" 
d="M317 0l-116 -315h-101l80 315h-84v223h219v-223h2z" />
    <glyph glyph-name="hyphen" unicode="-" horiz-adv-x="870" 
d="M96 678h678v-162h-678v162z" />
    <glyph glyph-name="period" unicode="." horiz-adv-x="411" 
d="M96 223h219v-223h-219v223z" />
    <glyph glyph-name="slash" unicode="/" horiz-adv-x="985" 
d="M82 -225l604 1761h166l-606 -1761h-164z" />
    <glyph glyph-name="zero" unicode="0" horiz-adv-x="1374" 
d="M686 -33q-264 0 -419.5 204.5t-155.5 553.5q0 351 155.5 556.5t419.5 205.5q266 0 422 -205.5t156 -556.5q0 -349 -156 -553.5t-422 -204.5zM295 725q0 -281 101.5 -433.5t289.5 -152.5q189 0 291 152.5t102 433.5q0 283 -102 436.5t-291 153.5q-187 0 -289 -153.5
t-102 -436.5z" />
    <glyph glyph-name="one" unicode="1" horiz-adv-x="786" 
d="M199 1229q117 0 170 53.5t53 171.5h139v-1454h-178v1077h-301v152h117z" />
    <glyph glyph-name="two" unicode="2" horiz-adv-x="1267" 
d="M150 1020q30 207 168.5 337t351.5 130q200 0 331.5 -118t131.5 -296q0 -62 -20 -119.5t-53 -105t-84.5 -95.5t-105.5 -87t-125 -84q-51 -29 -113 -73t-129 -101t-113 -121t-48 -115h803v-172h-1022q0 115 33.5 216t71 164t122 136t127.5 102.5t147 94.5q39 25 58 37
q266 169 266 323q0 106 -77.5 174t-200.5 68q-132 0 -219.5 -79.5t-116.5 -227.5z" />
    <glyph glyph-name="three" unicode="3" horiz-adv-x="1255" 
d="M616 858q55 -1 105.5 12t96 41t73 79t27.5 118q0 95 -81.5 151t-220.5 56q-114 0 -188 -51.5t-88 -139.5l-184 13q20 154 148.5 252t311.5 98q215 0 351.5 -106t136.5 -273q0 -244 -268 -322q152 -44 234.5 -145t82.5 -242q0 -190 -150.5 -311t-386.5 -121
q-218 0 -361.5 114t-152.5 294l183 12q6 -64 37.5 -113.5t80 -78t102.5 -42.5t111 -14q67 0 128 16t112.5 47.5t82 86t30.5 125.5q0 93 -53.5 157.5t-131 91.5t-168.5 25l-112 -2v174z" />
    <glyph glyph-name="four" unicode="4" horiz-adv-x="1300" 
d="M1032 1454v-983h166v-172h-166v-299h-176v299h-754v172l742 983h188zM319 471h537v713z" />
    <glyph glyph-name="five" unicode="5" horiz-adv-x="1282" 
d="M1059 1454v-172h-643l-60 -440q50 60 137.5 93.5t184.5 33.5q210 0 344.5 -141.5t134.5 -360.5t-143 -359.5t-363 -140.5q-218 0 -365.5 114t-162.5 294l184 12q17 -115 113 -181.5t231 -66.5q144 0 233 91.5t89 236.5q0 154 -91.5 244t-248.5 90q-102 0 -181 -44
t-114 -120h-191l113 817h799z" />
    <glyph glyph-name="six" unicode="6" horiz-adv-x="1277" 
d="M963 1128q-32 89 -106 138t-175 49q-163 0 -261 -137.5t-118 -395.5q59 100 154.5 154.5t214.5 54.5q215 0 348 -141.5t133 -366.5q0 -235 -142 -375.5t-370 -140.5q-213 0 -362 156q-156 159 -156 518q0 136 17.5 256t59 230t104 188.5t159.5 125t219 46.5
q168 0 292 -89.5t173 -254.5zM315 483q-3 -151 89.5 -247.5t240.5 -96.5q142 0 233 96.5t91 247.5q0 148 -86.5 241t-223.5 93q-150 0 -246.5 -93.5t-97.5 -240.5z" />
    <glyph glyph-name="seven" unicode="7" horiz-adv-x="1196" 
d="M82 1454h1032v-166q-496 -636 -496 -1288h-184q0 342 126 667.5t353 614.5h-831v172z" />
    <glyph glyph-name="eight" unicode="8" horiz-adv-x="1236" 
d="M618 -33q-238 0 -387 117.5t-149 314.5q0 134 74 235t206 154q-210 90 -210 299q0 172 132 286t334 114q203 0 335 -114t132 -286q0 -207 -211 -299q132 -55 206.5 -156t74.5 -233q0 -197 -149.5 -314.5t-387.5 -117.5zM266 414q0 -126 95.5 -200.5t256.5 -74.5t256 74.5
t95 200.5q0 125 -95 198.5t-256 73.5t-256.5 -73.5t-95.5 -198.5zM336 1087q0 -103 76 -164t206 -61t205.5 61t75.5 164q0 105 -75.5 166.5t-205.5 61.5t-206 -61.5t-76 -166.5z" />
    <glyph glyph-name="nine" unicode="9" horiz-adv-x="1277" 
d="M123 971q0 235 143 375.5t371 140.5q212 0 362 -154q154 -161 154 -520q0 -136 -17 -255.5t-58.5 -229.5t-104 -188.5t-159 -125.5t-218.5 -47q-160 0 -281 82t-174 232l187 14q35 -74 105.5 -115t162.5 -41q162 0 259.5 137.5t117.5 391.5q-59 -98 -154 -151.5
t-213 -53.5q-216 0 -349.5 141.5t-133.5 366.5zM307 971q0 -147 87 -240.5t224 -93.5q149 0 245.5 93t97.5 241q3 151 -88.5 247.5t-239.5 96.5q-143 0 -234.5 -96.5t-91.5 -247.5z" />
    <glyph glyph-name="colon" unicode=":" horiz-adv-x="595" 
d="M188 223h220v-223h-220v223zM188 723v223h220v-223h-220z" />
    <glyph glyph-name="semicolon" unicode=";" horiz-adv-x="598" 
d="M188 946h220v-223h-220v223zM188 0v223h220v-223h2l-117 -315h-100l79 315h-84z" />
    <glyph glyph-name="less" unicode="&#x3c;" horiz-adv-x="1124" 
d="M1028 1116v-176l-778 -348l778 -348v-176l-932 415v217z" />
    <glyph glyph-name="equal" unicode="=" horiz-adv-x="1351" 
d="M188 903h975v-160h-975v160zM188 322v159h975v-159h-975z" />
    <glyph glyph-name="greater" unicode="&#x3e;" horiz-adv-x="1132" 
d="M100 1116l932 -416v-217l-932 -415v176l779 348l-779 348v176z" />
    <glyph glyph-name="question" unicode="?" horiz-adv-x="1157" 
d="M485 420q0 134 41.5 221t149.5 176q21 18 59.5 47t57.5 45.5t42 43t32.5 57t9.5 69.5q2 104 -78.5 170t-212.5 66q-124 0 -205.5 -83.5t-99.5 -219.5l-185 12q19 199 154.5 331t324.5 132q215 0 350.5 -114t135.5 -294q0 -105 -60 -193t-194 -179q-82 -57 -113.5 -120
t-31.5 -167h-177zM459 0v223h219v-223h-219z" />
    <glyph glyph-name="at" unicode="@" horiz-adv-x="1871" 
d="M1198 1004h150l-37 -472q-12 -137 14 -174q40 -61 110 -44q74 19 127 112q57 99 62 240q6 174 -73.5 320.5t-224 232.5t-320.5 86q-203 0 -374 -91.5t-273 -250t-109 -349.5q-6 -162 41 -292t139.5 -214.5t218.5 -126.5t285.5 -31t333.5 75l35 -144
q-165 -63 -323.5 -79.5t-292 11t-246 96t-189.5 169.5t-117.5 238.5t-34.5 297.5q6 174 80.5 329.5t195.5 267.5t287 177.5t347 65.5q163 0 307 -60.5t245.5 -164.5t158 -248t51.5 -305q-8 -278 -155 -416q-101 -95 -227 -92q-110 2 -173 75q-39 45 -46 107
q-35 -78 -129.5 -131t-199.5 -53q-95 0 -169 35t-116.5 94.5t-60 136.5t-7.5 162t42 161t85 136.5t132 95.5t174 35q93 0 163.5 -34.5t102.5 -94.5zM647 594q-5 -61 5 -114t36 -96.5t76 -69t119 -25.5q130 0 204 88.5t87 216.5q5 62 -5 116t-36.5 98t-76 69.5t-116.5 25.5
q-132 0 -205 -87.5t-88 -221.5z" />
    <glyph glyph-name="A" unicode="A" horiz-adv-x="1372" 
d="M43 0l524 1454h238l524 -1454h-192l-146 414h-610l-145 -414h-193zM440 586h492l-246 714z" />
    <glyph glyph-name="B" unicode="B" horiz-adv-x="1392" 
d="M188 0v1454h500q516 0 516 -403q0 -121 -67.5 -199t-188.5 -100q150 -20 234 -109.5t84 -230.5q0 -198 -129 -305t-367 -107h-582zM365 172h405q149 0 230 62.5t81 177.5q0 116 -81 178.5t-230 62.5h-405v-481zM365 825h323q160 0 246 58.5t86 167.5q0 231 -332 231h-323
v-457z" />
    <glyph glyph-name="C" unicode="C" horiz-adv-x="1435" 
d="M1346 479q-41 -236 -192 -374t-396 -138q-153 0 -278.5 59t-208 162t-127 240.5t-44.5 296.5q0 160 44.5 298t126.5 241.5t207.5 163t279.5 59.5q227 0 377 -129.5t198 -349.5l-186 -13q-35 154 -136.5 237t-252.5 83q-121 0 -213.5 -47.5t-148 -130t-83.5 -187
t-28 -225.5q0 -96 17 -181.5t54.5 -160t92 -128.5t134 -85t175.5 -31q159 0 263 92t136 261z" />
    <glyph glyph-name="D" unicode="D" horiz-adv-x="1437" 
d="M639 1454q335 0 516.5 -189.5t181.5 -539.5q0 -349 -178 -537t-508 -188h-463v1454h451zM365 172h274q514 0 514 553q0 557 -514 557h-274v-1110z" />
    <glyph glyph-name="E" unicode="E" horiz-adv-x="1234" 
d="M188 1454h914v-172h-737v-469h712v-168h-712v-473h753v-172h-930v1454z" />
    <glyph glyph-name="F" unicode="F" horiz-adv-x="1208" 
d="M188 1454h914v-172h-737v-487h700v-168h-700v-627h-177v1454z" />
    <glyph glyph-name="G" unicode="G" horiz-adv-x="1449" 
d="M1339 0h-129l-16 238q-46 -120 -167.5 -195.5t-268.5 -75.5q-153 0 -278.5 59t-208 162t-127 240.5t-44.5 296.5q0 160 44.5 298t126.5 241.5t207.5 163t279.5 59.5q227 0 377 -129.5t198 -349.5l-184 -13q-38 151 -137 235.5t-254 84.5q-121 0 -213.5 -47.5t-148 -130
t-83.5 -187t-28 -225.5q0 -96 17 -181.5t54.5 -160t92 -128.5t134 -85t175.5 -31q184 0 291 118t120 306h-411v172h581v-735z" />
    <glyph glyph-name="H" unicode="H" horiz-adv-x="1439" 
d="M188 0v1454h177v-637h710v637h176v-1454h-176v645h-710v-645h-177z" />
    <glyph glyph-name="I" unicode="I" horiz-adv-x="552" 
d="M188 1454h177v-1454h-177v1454z" />
    <glyph glyph-name="J" unicode="J" horiz-adv-x="1222" 
d="M317 487q1 -167 75 -257.5t208 -90.5q138 0 213.5 96t75.5 273v946h176v-946q0 -249 -125.5 -395t-339.5 -146q-202 0 -331.5 141.5t-131.5 362.5z" />
    <glyph glyph-name="K" unicode="K" horiz-adv-x="1335" 
d="M188 1454h177v-723l653 723h223l-569 -631l608 -823h-215l-512 692l-188 -207v-485h-177v1454z" />
    <glyph glyph-name="L" unicode="L" horiz-adv-x="1187" 
d="M188 0v1454h177v-1282h727v-172h-904z" />
    <glyph glyph-name="M" unicode="M" horiz-adv-x="1796" 
d="M188 1454h246l465 -1261l463 1261h246v-1454h-176v1102l-416 -1102h-236l-415 1102v-1102h-177v1454z" />
    <glyph glyph-name="N" unicode="N" horiz-adv-x="1511" 
d="M188 1454h246l713 -1245v1245h176v-1454h-256l-702 1225v-1225h-177v1454z" />
    <glyph glyph-name="O" unicode="O" horiz-adv-x="1529" 
d="M764 -33q-310 0 -487 203t-177 555q0 355 177 558.5t487 203.5q312 0 489 -203.5t177 -558.5q0 -353 -177.5 -555.5t-488.5 -202.5zM285 725q0 -272 127.5 -429t351.5 -157q225 0 353 157t128 429q0 276 -128 433t-353 157q-224 0 -351.5 -157.5t-127.5 -432.5z" />
    <glyph glyph-name="P" unicode="P" horiz-adv-x="1331" 
d="M711 1454q243 0 378.5 -116.5t135.5 -323.5q0 -211 -135.5 -330t-378.5 -119h-346v-565h-177v1454h523zM365 737h346q329 0 329 277q0 268 -329 268h-346v-545z" />
    <glyph glyph-name="Q" unicode="Q" horiz-adv-x="1517" 
d="M758 -33q-153 0 -278.5 59t-208 162t-127 240.5t-44.5 296.5q0 160 44.5 298t126.5 241.5t207.5 163t279.5 59.5t280 -59.5t208 -163t126.5 -241.5t44.5 -298q0 -203 -72 -371t-206 -268l176 -227h-185l-120 155q-112 -47 -252 -47zM285 725q0 -121 30 -226.5t87.5 -186
t149 -127t206.5 -46.5q78 0 139 21l-205 266h185l153 -201q98 77 150.5 209t52.5 291q0 123 -30 228.5t-87.5 187t-149.5 128t-208 46.5t-207.5 -46.5t-148.5 -128t-87 -187t-30 -228.5z" />
    <glyph glyph-name="R" unicode="R" horiz-adv-x="1376" 
d="M739 1454q229 0 362.5 -118.5t133.5 -321.5q0 -122 -72 -214.5t-174 -121.5q106 -17 157.5 -76t61.5 -174l41 -428h-178l-37 410q-9 98 -80 137t-233 39h-356v-586h-177v1454h551zM365 758h374q150 0 231 67t81 193t-81 195t-231 69h-374v-524z" />
    <glyph glyph-name="S" unicode="S" horiz-adv-x="1327" 
d="M305 477q29 -152 133.5 -241t272.5 -89q143 0 227 57t84 163q0 109 -99 182t-319 129q-452 112 -452 409q0 183 131.5 291.5t343.5 108.5q229 0 377 -129t172 -334l-185 -12q-20 138 -118.5 220.5t-247.5 82.5q-126 0 -207.5 -62.5t-81.5 -165.5q0 -48 22 -87.5t56 -65.5
t85 -48.5t98 -37t107 -30.5q18 -5 27 -7q104 -29 186.5 -67.5t149 -90t103 -120t36.5 -148.5q0 -130 -73.5 -225t-187 -140t-249.5 -45q-238 0 -397 134.5t-178 355.5z" />
    <glyph glyph-name="T" unicode="T" horiz-adv-x="1183" 
d="M1133 1454v-172h-453v-1282h-176v1282h-453v172h1082z" />
    <glyph glyph-name="U" unicode="U" horiz-adv-x="1411" 
d="M1253 508q0 -249 -147 -395t-399 -146q-253 0 -401 146t-148 395v948h176v-948q0 -177 97 -273t276 -96q177 0 273.5 96t96.5 273v948h176v-948z" />
    <glyph glyph-name="V" unicode="V" horiz-adv-x="1370" 
d="M43 1454h193l450 -1257l447 1257h194l-526 -1454h-232z" />
    <glyph glyph-name="W" unicode="W" horiz-adv-x="1865" 
d="M43 1454h193l299 -1212l296 1212h201l299 -1212l297 1212h195l-383 -1454h-221l-287 1098l-287 -1098h-219z" />
    <glyph glyph-name="X" unicode="X" horiz-adv-x="1288" 
d="M1026 1454h201l-473 -725l479 -729h-205l-385 590l-387 -590h-201l480 731l-476 723h205l383 -582z" />
    <glyph glyph-name="Y" unicode="Y" horiz-adv-x="1290" 
d="M43 1454h209l393 -674l393 674h209l-514 -860v-594h-176v594z" />
    <glyph glyph-name="Z" unicode="Z" horiz-adv-x="1110" 
d="M1038 1278l-784 -1106h801v-172h-1000v182l779 1100h-744v172h948v-176z" />
    <glyph glyph-name="bracketleft" unicode="[" horiz-adv-x="684" 
d="M96 1536h492v-160h-328v-1442h328v-159h-492v1761z" />
    <glyph glyph-name="backslash" unicode="\" horiz-adv-x="976" 
d="M874 -225h-163l-607 1761h166z" />
    <glyph glyph-name="bracketright" unicode="]" horiz-adv-x="684" 
d="M588 1536v-1761h-492v159h328v1442h-328v160h492z" />
    <glyph glyph-name="asciicircum" unicode="^" horiz-adv-x="819" 
d="M555 784l-145 433l-146 -433h-168l205 594h217l205 -594h-168z" />
    <glyph glyph-name="underscore" unicode="_" horiz-adv-x="1153" 
d="M96 -90h961v-160h-961v160z" />
    <glyph glyph-name="grave" unicode="`" horiz-adv-x="512" 
d="M96 1513h191l129 -266h-133z" />
    <glyph glyph-name="a" unicode="a" horiz-adv-x="1177" 
d="M115 766q32 159 151.5 251.5t292.5 92.5q209 0 322.5 -118.5t113.5 -336.5v-436q0 -67 66 -67h45v-152h-74q-207 0 -207 168q-38 -82 -127 -137.5t-211 -55.5q-168 0 -279.5 84t-111.5 226q0 65 20.5 115t53 82.5t88.5 58t111.5 40t136.5 29.5l317 64q-3 272 -264 272
q-103 0 -170 -50t-92 -144zM276 285q0 -69 60 -113.5t174 -44.5q139 2 228 99t89 280v14l-256 -45q-13 -2 -40 -7l-60 -10.5t-52.5 -12t-48.5 -16t-37.5 -21.5t-31.5 -30.5t-17.5 -40t-7.5 -52.5z" />
    <glyph glyph-name="b" unicode="b" horiz-adv-x="1224" 
d="M164 1454h172v-512q44 77 134.5 122.5t199.5 45.5q212 0 335 -153t123 -414q0 -262 -123 -415t-335 -153q-114 0 -206 48.5t-138 132.5l-7 -156h-155v1454zM319 543q0 -186 85.5 -295t230.5 -109q143 0 228 109t85 295q0 189 -85 300t-228 111q-145 0 -230.5 -111
t-85.5 -300z" />
    <glyph glyph-name="c" unicode="c" horiz-adv-x="1130" 
d="M864 721q-17 103 -93.5 164t-176.5 61q-150 0 -234 -107t-84 -296q0 -190 84 -297t234 -107q104 0 182 66t96 180l183 -12q-26 -181 -155.5 -289.5t-305.5 -108.5q-227 0 -362.5 155t-135.5 413t135.5 412.5t362.5 154.5q171 0 300 -103.5t150 -273.5z" />
    <glyph glyph-name="d" unicode="d" horiz-adv-x="1224" 
d="M1061 1454v-1454h-156l-6 156q-46 -84 -138 -132.5t-206 -48.5q-212 0 -335.5 153.5t-123.5 414.5t123.5 414t335.5 153q109 0 199.5 -45.5t134.5 -122.5v512h172zM276 543q0 -185 85.5 -294.5t228.5 -109.5q145 0 230 109t85 295q0 189 -85 300t-230 111
q-143 0 -228.5 -111.5t-85.5 -299.5z" />
    <glyph glyph-name="e" unicode="e" horiz-adv-x="1161" 
d="M96 543q0 258 135.5 412.5t362.5 154.5q93 0 173 -31.5t145 -95t105 -170t46 -246.5l2 -78h-786q12 -166 94 -258t221 -92q87 0 160.5 49t109.5 134l185 -15q-47 -152 -172.5 -242t-282.5 -90q-227 0 -362.5 155t-135.5 413zM283 641h594q-20 159 -97.5 232t-185.5 73
q-128 0 -208.5 -79.5t-102.5 -225.5z" />
    <glyph glyph-name="f" unicode="f" horiz-adv-x="815" 
d="M270 1155q0 141 72.5 220t218.5 79h168v-151h-168q-53 0 -86 -40t-33 -108v-70h273v-151h-273v-934h-172v934h-147v151h147v70z" />
    <glyph glyph-name="g" unicode="g" horiz-adv-x="1222" 
d="M575 57q-211 0 -345 147.5t-134 379.5t133 379t344 147q111 0 198 -53.5t124 -143.5v172h164v-979q0 -210 -130.5 -324t-348.5 -114q-172 0 -294 86t-159 230l180 12q33 -78 103 -121t170 -43q144 0 225.5 61t81.5 175v178q-40 -86 -124.5 -137.5t-187.5 -51.5zM276 584
q0 -167 83.5 -265t226.5 -98q137 0 219.5 98t83.5 265q3 167 -79.5 264.5t-223.5 97.5q-143 0 -226.5 -97.5t-83.5 -264.5z" />
    <glyph glyph-name="h" unicode="h" horiz-adv-x="1189" 
d="M164 1454h172v-516q44 86 130 129t193 43q169 0 268 -111.5t99 -300.5v-698h-172v637q0 309 -231 309q-132 0 -209.5 -80.5t-77.5 -228.5v-637h-172v1454z" />
    <glyph glyph-name="i" unicode="i" horiz-adv-x="499" 
d="M164 1085h172v-1085h-172v1085zM160 1255v197h180v-197h-180z" />
    <glyph glyph-name="j" unicode="j" horiz-adv-x="532" 
d="M369 -6q0 -141 -70.5 -221t-204.5 -80h-104v151h84q57 0 90 40.5t33 109.5v1091h172v-1091zM193 1255v197h180v-197h-180z" />
    <glyph glyph-name="k" unicode="k" horiz-adv-x="1208" 
d="M164 1454h172v-952l520 583h236l-426 -460l446 -625h-211l-354 506l-211 -227v-279h-172v1454z" />
    <glyph glyph-name="l" unicode="l" horiz-adv-x="579" 
d="M164 1454h172v-1235q0 -67 67 -67h95v-152h-121q-95 0 -154 58.5t-59 152.5v1243z" />
    <glyph glyph-name="m" unicode="m" horiz-adv-x="1796" 
d="M164 1085h158l4 -182q38 99 119.5 153t193.5 54q118 0 200 -59t117 -168q36 110 120 168.5t210 58.5q164 0 255 -108t91 -304v-698h-172v649q0 147 -55 228t-154 81q-127 0 -197.5 -81.5t-70.5 -227.5v-649h-172v649q0 145 -55 227t-152 82q-126 0 -197 -82t-71 -227
v-649h-172v1085z" />
    <glyph glyph-name="n" unicode="n" horiz-adv-x="1189" 
d="M164 1085h158l4 -188q40 107 128 160t205 53q178 0 272.5 -115.5t94.5 -296.5v-698h-172v649q0 154 -55.5 231.5t-175.5 77.5q-132 0 -209.5 -80.5t-77.5 -228.5v-649h-172v1085z" />
    <glyph glyph-name="o" unicode="o" horiz-adv-x="1185" 
d="M594 -25q-226 0 -362 154.5t-136 413.5t136 413t362 154q225 0 360.5 -154t135.5 -413t-135.5 -413.5t-360.5 -154.5zM276 543q0 -190 84 -297t234 -107q149 0 232 107t83 297q0 189 -83 296t-232 107q-150 0 -234 -107t-84 -296z" />
    <glyph glyph-name="p" unicode="p" horiz-adv-x="1224" 
d="M164 -307v1392h155l7 -161q44 91 129.5 138.5t203.5 47.5t209.5 -46t147 -126t84 -180t28.5 -215q0 -91 -17.5 -174t-54.5 -155t-91.5 -125t-132.5 -83.5t-173 -30.5q-230 0 -323 172v-454h-172zM317 543q0 -62 11 -120t36 -110t61 -90.5t89 -61t117 -22.5
q81 0 142.5 33.5t98 91.5t54.5 128.5t18 150.5t-18 150.5t-54.5 128t-98 91t-142.5 33.5q-80 0 -142 -34t-98.5 -92t-55 -128t-18.5 -149z" />
    <glyph glyph-name="q" unicode="q" horiz-adv-x="1224" 
d="M1061 -307h-172v454q-93 -172 -324 -172q-95 0 -173 30.5t-132.5 83.5t-91.5 125t-54.5 155t-17.5 174q0 115 28.5 215t84 180t147 126t209.5 46q119 0 204.5 -47.5t129.5 -138.5l6 161h156v-1392zM281 543q0 -80 18 -150.5t54.5 -128.5t98 -91.5t142.5 -33.5
q80 0 141.5 34t98 92t55 128.5t18.5 149.5t-18.5 149t-55 128t-98 92t-141.5 34q-81 0 -142.5 -33.5t-98 -91t-54.5 -128t-18 -150.5z" />
    <glyph glyph-name="r" unicode="r" horiz-adv-x="782" 
d="M164 1085h151l7 -198q28 102 90.5 150t167.5 48h106v-151h-106q-244 0 -244 -287v-647h-172v1085z" />
    <glyph glyph-name="s" unicode="s" horiz-adv-x="1085" 
d="M788 750q-18 89 -94.5 142.5t-171.5 53.5q-94 0 -156.5 -45t-62.5 -121q0 -38 22.5 -68t64 -50t81.5 -32.5t92 -23.5q81 -15 139.5 -31.5t115.5 -43t92.5 -60t57 -83t21.5 -112.5q0 -76 -36.5 -135.5t-98 -94.5t-135.5 -53t-154 -18q-195 0 -326 100.5t-143 266.5l180 12
q17 -100 93 -157.5t196 -57.5q59 0 111 12.5t92.5 47.5t40.5 88q0 27 -8 48.5t-26.5 37.5t-35 26.5t-48 20.5t-50 14.5t-56.5 12.5t-53 12q-51 12 -86 20.5t-81.5 24t-77.5 31t-65 39.5t-53.5 51.5t-32.5 65t-13 81.5q0 154 114.5 246t303.5 92q163 0 282.5 -95.5
t145.5 -252.5z" />
    <glyph glyph-name="t" unicode="t" horiz-adv-x="808" 
d="M272 1331h172v-246h289v-151h-289v-645q0 -137 129 -137h156v-152h-156q-146 0 -223.5 75t-77.5 214v645h-159v151h159v246z" />
    <glyph glyph-name="u" unicode="u" horiz-adv-x="1177" 
d="M1014 0h-164v180q-41 -102 -127.5 -153.5t-198.5 -51.5q-174 0 -267 115.5t-93 296.5v698h172v-647q0 -155 54.5 -233t170.5 -78q129 0 205 81t76 230v647h172v-1085z" />
    <glyph glyph-name="v" unicode="v" horiz-adv-x="1097" 
d="M1053 1085l-396 -1085h-217l-395 1085h184l320 -905l319 905h185z" />
    <glyph glyph-name="w" unicode="w" horiz-adv-x="1677" 
d="M930 1085l258 -895l260 895h184l-336 -1085h-217l-241 825l-242 -825h-215l-336 1085h184l258 -895l258 895h185z" />
    <glyph glyph-name="x" unicode="x" horiz-adv-x="1198" 
d="M872 1085h211l-374 -530l393 -555h-209l-293 422l-293 -422h-211l398 557l-377 528h211l272 -397z" />
    <glyph glyph-name="y" unicode="y" horiz-adv-x="1099" 
d="M45 1085h184l326 -901l317 901h183l-441 -1222q-31 -87 -89.5 -128.5t-151.5 -41.5h-142v151h125q76 0 105 76l39 100h-58z" />
    <glyph glyph-name="z" unicode="z" horiz-adv-x="1124" 
d="M991 895l-688 -743h705v-152h-891v186l690 748h-670v151h854v-190z" />
    <glyph glyph-name="braceleft" unicode="{" horiz-adv-x="866" 
d="M96 735q92 -3 151.5 75t59.5 204v170q0 155 103 253.5t266 98.5h94v-160q-162 6 -230.5 -37t-68.5 -151v-189q0 -136 -69.5 -230t-180.5 -116v-2q113 -22 181.5 -116.5t68.5 -233.5v-188q0 -106 68.5 -149.5t230.5 -39.5v-160h-94q-163 0 -266 99t-103 254v170
q0 126 -59 203.5t-152 74.5v170z" />
    <glyph glyph-name="bar" unicode="|" horiz-adv-x="538" 
d="M188 1454h162v-1761h-162v1761z" />
    <glyph glyph-name="braceright" unicode="}" horiz-adv-x="866" 
d="M770 565q-93 3 -152 -74.5t-59 -203.5v-170q0 -155 -103 -254t-266 -99h-94v160q162 -4 230.5 39.5t68.5 149.5v188q0 139 68.5 233.5t181.5 116.5v2q-111 22 -180.5 116t-69.5 230v189q0 108 -68.5 151t-230.5 37v160h94q163 0 266 -98.5t103 -253.5v-170
q0 -126 59.5 -204t151.5 -75v-170z" />
    <glyph glyph-name="asciitilde" unicode="~" horiz-adv-x="1099" 
d="M96 504q0 166 73 271.5t193 105.5q82 0 131 -34.5t93 -96.5q3 -3 12 -16t12 -17t12 -15t13 -14.5t12.5 -12t14 -12t14 -9t16.5 -7.5t17.5 -4t19.5 -2q113 0 113 219h162q0 -166 -73.5 -271.5t-195.5 -105.5q-119 0 -203 107q-10 12 -35.5 45.5t-38 46.5t-37 27t-52.5 14
q-111 0 -111 -219h-162z" />
    <glyph glyph-name="uni00A0" unicode="&#xa0;" horiz-adv-x="512" 
 />
    <glyph glyph-name="exclamdown" unicode="&#xa1;" horiz-adv-x="440" 
d="M139 141q0 111 15.5 317.5t17.5 243.5h113q2 -57 16 -255t14 -306v-473h-176v473zM111 899v223h219v-223h-219z" />
    <glyph glyph-name="cent" unicode="&#xa2;" horiz-adv-x="1130" 
d="M864 721q-12 79 -61 133.5t-121 77.5l-70 -793q99 6 171 71.5t89 174.5l183 -12q-26 -179 -154.5 -287.5t-302.5 -110.5l-14 -161h-154l16 182q-164 46 -257 190t-93 357q0 242 121 394t326 171l16 180h154l-17 -188q138 -29 234 -126t114 -241zM276 543
q0 -142 47.5 -239t137.5 -138l67 774q-120 -22 -186 -126t-66 -271z" />
    <glyph glyph-name="sterling" unicode="&#xa3;" horiz-adv-x="1259" 
d="M692 1487q105 0 191 -29t142.5 -78t91 -108t46.5 -125l-205 -14q-26 85 -96.5 133.5t-161.5 48.5q-104 0 -181 -74.5t-77 -185.5q0 -76 54 -254h364v-152h-330q14 -154 -49 -281t-202 -190h862v-172l-1018 -6v178q235 140 235 391q0 22 -4 80h-233v152h198l-12 41
q-47 143 -47 241q0 171 125.5 287.5t306.5 116.5z" />
    <glyph glyph-name="currency" unicode="&#xa4;" horiz-adv-x="1200" 
d="M600 199q-124 0 -231 71l-160 -159l-109 106l162 162q-72 106 -72 229q0 126 72 232l-162 161l109 107l162 -160q107 70 229 70t229 -70l162 160l109 -107l-162 -161q72 -106 72 -232q0 -123 -72 -229l162 -162l-109 -106l-160 159q-107 -71 -231 -71zM338 608
q0 -107 77.5 -183.5t184.5 -76.5q105 0 182.5 76.5t77.5 183.5t-77.5 183.5t-182.5 76.5q-107 0 -184.5 -76.5t-77.5 -183.5z" />
    <glyph glyph-name="yen" unicode="&#xa5;" horiz-adv-x="1290" 
d="M43 1454h209l393 -674l393 674h209l-422 -706h244v-160h-336v-135h336v-160h-336v-293h-176v293h-336v160h336v135h-336v160h244z" />
    <glyph glyph-name="brokenbar" unicode="&#xa6;" horiz-adv-x="538" 
d="M188 1454h162v-727h-162v727zM188 -307v727h162v-727h-162z" />
    <glyph glyph-name="section" unicode="&#xa7;" horiz-adv-x="1140" 
d="M842 1034q-18 92 -90.5 144.5t-190.5 52.5q-94 0 -156.5 -40.5t-62.5 -103.5t53.5 -99.5t204.5 -76.5q238 -59 329 -134t91 -216q0 -156 -172 -223q93 -45 129.5 -108t36.5 -152q0 -73 -36.5 -131.5t-97 -95t-135 -55.5t-155.5 -19q-186 0 -320 103t-149 263l178 13
q15 -99 94.5 -157t196.5 -58q111 0 177.5 41t66.5 110q0 63 -63 108t-208 81q-224 53 -315.5 121.5t-91.5 185.5q0 180 192 262q-186 80 -186 223q0 151 119 236.5t299 85.5q54 0 111 -14.5t111.5 -44t99 -70.5t76 -97.5t40.5 -121.5zM336 604q0 -147 258 -174
q111 0 178.5 39t67.5 106q0 45 -28 79.5t-72.5 53.5t-91.5 28t-93 9q-95 0 -157 -39.5t-62 -101.5z" />
    <glyph glyph-name="dieresis" unicode="&#xa8;" horiz-adv-x="686" 
d="M96 1452h180v-197h-180v197zM410 1255v197h180v-197h-180z" />
    <glyph glyph-name="copyright" unicode="&#xa9;" horiz-adv-x="1712" 
d="M864 1163q-193 0 -304 -115t-111 -317t111.5 -319t303.5 -117q164 0 266 89t117 243l-151 12q-12 -96 -74 -150.5t-158 -54.5q-124 0 -194 78.5t-70 218.5q0 139 70 216t194 77q91 0 151 -50t72 -136l152 10q-13 146 -114 230.5t-261 84.5zM100 731q0 154 60 294t161 241
t241 161t294 60t294 -60t241 -161t161 -241t60 -294t-60 -294t-161 -241t-241 -161t-294 -60t-294 60t-241 161t-161 241t-60 294zM250 731q0 -123 48 -235.5t129.5 -194t193.5 -130t235 -48.5q122 0 234 48.5t193.5 130t130 194t48.5 235.5t-48.5 235.5t-130 194
t-193.5 130t-234 48.5q-123 0 -235 -48.5t-193.5 -130t-129.5 -194t-48 -235.5z" />
    <glyph glyph-name="ordfeminine" unicode="&#xaa;" horiz-adv-x="1177" 
d="M115 766q32 159 151.5 251.5t292.5 92.5q209 0 322.5 -118.5t113.5 -336.5v-436q0 -67 66 -67h45v-152h-74q-207 0 -207 168q-38 -82 -127 -137.5t-211 -55.5q-168 0 -279.5 84t-111.5 226q0 65 20.5 115t53 82.5t88.5 58t111.5 40t136.5 29.5l317 64q-3 272 -264 272
q-103 0 -170 -50t-92 -144zM276 285q0 -69 60 -113.5t174 -44.5q139 2 228 99t89 280v14l-256 -45q-13 -2 -40 -7l-60 -10.5t-52.5 -12t-48.5 -16t-37.5 -21.5t-31.5 -30.5t-17.5 -40t-7.5 -52.5z" />
    <glyph glyph-name="guillemotleft" unicode="&#xab;" horiz-adv-x="1099" 
d="M379 975h211l-348 -410l348 -409h-211l-283 333v152zM510 489v152l283 334h211l-349 -410l349 -409h-211z" />
    <glyph glyph-name="logicalnot" unicode="&#xac;" horiz-adv-x="993" 
d="M96 645h801v-510h-160v350h-641v160z" />
    <glyph glyph-name="uni00AD" unicode="&#xad;" horiz-adv-x="882" 
d="M96 678h678v-162h-678v162z" />
    <glyph glyph-name="registered" unicode="&#xae;" horiz-adv-x="1232" 
d="M598 1247q109 0 171 -46t62 -128q0 -59 -32 -99.5t-90 -55.5l145 -232h-119l-131 217h-88v-217h-104v561h186zM100 971q0 140 68.5 259t187.5 188t260 69t260 -69t188 -188t69 -259q0 -141 -69 -261t-188 -189.5t-260 -69.5q-106 0 -201.5 41t-164.5 111t-109.5 166
t-40.5 202zM215 971q0 -166 118.5 -285t282.5 -119t283 119t119 285q0 164 -118.5 281.5t-283.5 117.5q-164 0 -282.5 -117.5t-118.5 -281.5zM516 991h98q55 0 85 23t30 63q0 38 -30 59t-85 21h-98v-166z" />
    <glyph glyph-name="macron" unicode="&#xaf;" horiz-adv-x="714" 
d="M96 1407h522v-127h-522v127z" />
    <glyph glyph-name="degree" unicode="&#xb0;" horiz-adv-x="806" 
d="M403 799q-126 0 -216.5 90.5t-90.5 216.5t90.5 216.5t216.5 90.5t217 -90.5t91 -216.5t-91 -216.5t-217 -90.5zM248 1106q0 -65 45.5 -111.5t109.5 -46.5t110 46.5t46 111.5t-46 111.5t-110 46.5t-109.5 -46.5t-45.5 -111.5z" />
    <glyph glyph-name="plusminus" unicode="&#xb1;" horiz-adv-x="1167" 
d="M96 233h975v-159h-975v159zM96 657v160h408v268h160v-268h407v-160h-407v-268h-160v268h-408z" />
    <glyph glyph-name="uni00B2" unicode="&#xb2;" 
d="M338 1229q13 118 89.5 188t190.5 70q107 0 176.5 -64.5t69.5 -165.5q0 -79 -48 -145t-142 -129l-58 -39q-134 -91 -137 -158h389v-120h-540q0 53 8.5 97.5t32 95.5t72.5 101.5t122 98.5l66 43q56 36 80 73t24 82q0 49 -32.5 79t-82.5 30q-122 0 -149 -143z" />
    <glyph glyph-name="uni00B3" unicode="&#xb3;" 
d="M606 1145q54 0 90.5 33.5t36.5 74.5q0 48 -34 80.5t-85 32.5q-53 0 -87.5 -24t-39.5 -60l-131 8q12 83 86.5 140t171.5 57q106 0 178 -62t72 -151q0 -60 -35.5 -110t-99.5 -70q71 -22 118.5 -84.5t47.5 -135.5q0 -101 -81 -171t-198 -70q-118 0 -200 66t-88 163l131 6
q5 -50 49 -82t108 -32q63 0 105.5 37t42.5 92q0 60 -45.5 102.5t-112.5 42.5h-51v117h51z" />
    <glyph glyph-name="acute" unicode="&#xb4;" horiz-adv-x="512" 
d="M416 1513l-185 -266h-135l129 266h191z" />
    <glyph glyph-name="uni00B5" unicode="&#xb5;" horiz-adv-x="1214" 
d="M1034 0h-164v180q-38 -95 -116 -150t-174 -55q-76 0 -137 35t-87 94v-411h-172v1392h172v-647q0 -311 226 -311q130 0 205 84t75 227v647h172v-1085z" />
    <glyph glyph-name="paragraph" unicode="&#xb6;" horiz-adv-x="1206" 
d="M1018 1454v-1454h-154v1298h-141v-1298h-154v627q-229 0 -363 111.5t-134 301.5q0 191 134 302.5t363 111.5h449z" />
    <glyph glyph-name="periodcentered" unicode="&#xb7;" horiz-adv-x="411" 
d="M96 721h219v-223h-219v223z" />
    <glyph glyph-name="cedilla" unicode="&#xb8;" horiz-adv-x="632" 
d="M211 -98l108 118h107l-88 -96q88 0 143.5 -51t55.5 -133q0 -80 -58 -135.5t-141 -55.5q-70 0 -124.5 32.5t-117.5 105.5l84 77q1 -2 10.5 -13t13 -15t13.5 -15t15.5 -16t16 -13.5t19 -13t19 -9.5t21.5 -7t22 -2q43 0 68.5 24t25.5 64q0 49 -45 71t-111 7z" />
    <glyph glyph-name="uni00B9" unicode="&#xb9;" 
d="M416 1274q89 0 135.5 47t46.5 135h102v-794h-137v514l-196 -2v100h49z" />
    <glyph glyph-name="ordmasculine" unicode="&#xba;" horiz-adv-x="1185" 
d="M594 -25q-226 0 -362 154.5t-136 413.5t136 413t362 154q225 0 360.5 -154t135.5 -413t-135.5 -413.5t-360.5 -154.5zM276 543q0 -190 84 -297t234 -107q149 0 232 107t83 297q0 189 -83 296t-232 107q-150 0 -234 -107t-84 -296z" />
    <glyph glyph-name="guillemotright" unicode="&#xbb;" horiz-adv-x="1099" 
d="M721 975l283 -334v-152l-283 -333h-211l348 409l-348 410h211zM96 156l348 409l-348 410h211l283 -334v-152l-283 -333h-211z" />
    <glyph glyph-name="onequarter" unicode="&#xbc;" horiz-adv-x="1957" 
d="M1554 1454l-1003 -1454h-172l1003 1454h172zM100 1174v100h50q89 0 135.5 47t46.5 135h102v-794h-137v514zM1257 156v102l406 537h104v-519h91v-120h-91v-156h-131v156h-379zM1427 276h209v279z" />
    <glyph glyph-name="onehalf" unicode="&#xbd;" horiz-adv-x="1994" 
d="M1554 1454l-1003 -1454h-172l1003 1454h172zM100 1174v100h50q89 0 135.5 47t46.5 135h102v-794h-137v514zM1354 0q0 53 8.5 97.5t32 95.5t72.5 101.5t122 98.5l66 43q104 67 104 156q0 49 -32 78.5t-82 29.5q-123 0 -150 -143l-131 6q13 118 90 188t191 70
q108 0 176.5 -64t68.5 -165q0 -147 -190 -275l-58 -38q-134 -91 -137 -158h389v-121h-540z" />
    <glyph glyph-name="threequarters" unicode="&#xbe;" horiz-adv-x="1992" 
d="M1589 1454l-1003 -1454h-172l1003 1454h172zM100 862l131 6q5 -50 49.5 -82t108.5 -32q63 0 105.5 37t42.5 92q0 60 -45.5 102.5t-112.5 42.5h-51v117h51q54 0 90.5 33.5t36.5 74.5q0 48 -34 80.5t-85 32.5q-53 0 -87.5 -24t-39.5 -60l-131 8q12 83 86.5 140t171.5 57
q106 0 178 -62t72 -151q0 -60 -35.5 -110t-99.5 -70q71 -22 118.5 -84.5t47.5 -135.5q0 -101 -81 -171t-198 -70q-118 0 -200.5 66t-88.5 163zM1292 156v102l406 537h104v-519h90v-120h-90v-156h-131v156h-379zM1462 276h209v279z" />
    <glyph glyph-name="questiondown" unicode="&#xbf;" horiz-adv-x="1157" 
d="M672 735q0 -134 -41.5 -221t-149.5 -176q-21 -18 -59.5 -47t-57 -45.5t-41.5 -43t-32.5 -57t-9.5 -69.5q-2 -104 78 -170t212 -66q124 0 206 83.5t100 219.5l184 -12q-19 -199 -154.5 -331t-324.5 -132q-215 0 -350.5 114t-135.5 294q0 106 60 194t194 179
q82 57 114 119.5t32 166.5h176zM479 932v223h219v-223h-219z" />
    <glyph glyph-name="Agrave" unicode="&#xc0;" horiz-adv-x="1372" 
d="M43 0l524 1454h238l524 -1454h-192l-146 414h-610l-145 -414h-193zM438 1882h191l129 -266h-133zM440 586h492l-246 714z" />
    <glyph glyph-name="Aacute" unicode="&#xc1;" horiz-adv-x="1372" 
d="M43 0l524 1454h238l524 -1454h-192l-146 414h-610l-145 -414h-193zM440 586h492l-246 714zM614 1616l129 266h191l-184 -266h-136z" />
    <glyph glyph-name="Acircumflex" unicode="&#xc2;" horiz-adv-x="1372" 
d="M43 0l524 1454h238l524 -1454h-192l-146 414h-610l-145 -414h-193zM403 1616l177 246h208l179 -246h-156l-125 174l-125 -174h-158zM440 586h492l-246 714z" />
    <glyph glyph-name="Atilde" unicode="&#xc3;" horiz-adv-x="1372" 
d="M43 0l524 1454h238l524 -1454h-192l-146 414h-610l-145 -414h-193zM342 1618q0 121 55 192.5t148 71.5q89 0 149 -57q8 -8 28 -28.5t29.5 -29t28.5 -17.5t39 -9q82 0 82 139h127q0 -120 -55 -193t-146 -73q-41 0 -74.5 11.5t-51 25t-37.5 35.5q-6 5 -19.5 19t-20.5 20
t-19 14.5t-24.5 12t-27.5 3.5q-84 0 -84 -137h-127zM440 586h492l-246 714z" />
    <glyph glyph-name="Adieresis" unicode="&#xc4;" horiz-adv-x="1372" 
d="M43 0l524 1454h238l524 -1454h-192l-146 414h-610l-145 -414h-193zM440 586h492l-246 714zM442 1624v197h181v-197h-181zM756 1624v197h180v-197h-180z" />
    <glyph glyph-name="Aring" unicode="&#xc5;" horiz-adv-x="1372" 
d="M43 0l524 1454h238l524 -1454h-192l-146 414h-610l-145 -414h-193zM440 586h492l-246 714zM496 1757q0 78 56 134.5t134 56.5t133 -56.5t55 -134.5q0 -81 -54.5 -134.5t-133.5 -53.5t-134.5 53.5t-55.5 134.5zM608 1759q0 -31 23 -54.5t55 -23.5q31 0 53.5 23.5
t22.5 54.5q0 30 -23 53t-53 23q-32 0 -55 -23t-23 -53z" />
    <glyph glyph-name="AE" unicode="&#xc6;" horiz-adv-x="1994" 
d="M821 1454h1041v-172h-674v-469h649v-168h-649v-473h690v-172h-866v414h-557l-213 -414h-199zM543 586h469v702h-105z" />
    <glyph glyph-name="Ccedilla" unicode="&#xc7;" horiz-adv-x="1435" 
d="M1346 479q-39 -229 -183 -366t-377 -146l-38 -43q88 0 143 -51t55 -133q0 -80 -57.5 -135.5t-140.5 -55.5q-70 0 -124.5 32.5t-117.5 105.5l84 77q1 -2 12 -15t15 -17.5t15 -16.5t18 -17.5t19 -14t22 -12.5t22.5 -7.5t25.5 -3.5q43 0 69 24t26 64q0 49 -45 71t-111 7
l-57 76l63 69q-182 18 -316 123t-201 268t-67 363q0 160 44.5 298t126.5 241.5t207.5 163t279.5 59.5q227 0 377 -129.5t198 -349.5l-186 -13q-35 154 -136.5 237t-252.5 83q-121 0 -213.5 -47.5t-148 -130t-83.5 -187t-28 -225.5q0 -96 17 -181.5t54.5 -160t92 -128.5
t134 -85t175.5 -31q159 0 263 92t136 261z" />
    <glyph glyph-name="Egrave" unicode="&#xc8;" horiz-adv-x="1234" 
d="M188 1454h914v-172h-737v-469h712v-168h-712v-473h753v-172h-930v1454zM401 1884h191l129 -266h-133z" />
    <glyph glyph-name="Eacute" unicode="&#xc9;" horiz-adv-x="1234" 
d="M188 1454h914v-172h-737v-469h712v-168h-712v-473h753v-172h-930v1454zM575 1618l130 266h190l-184 -266h-136z" />
    <glyph glyph-name="Ecircumflex" unicode="&#xca;" horiz-adv-x="1234" 
d="M188 1454h914v-172h-737v-469h712v-168h-712v-473h753v-172h-930v1454zM367 1618l176 246h209l178 -246h-156l-125 174l-125 -174h-157z" />
    <glyph glyph-name="Edieresis" unicode="&#xcb;" horiz-adv-x="1234" 
d="M188 1454h914v-172h-737v-469h712v-168h-712v-473h753v-172h-930v1454zM406 1626v197h180v-197h-180zM719 1626v197h180v-197h-180z" />
    <glyph glyph-name="Igrave" unicode="&#xcc;" horiz-adv-x="552" 
d="M188 1454h177v-1454h-177v1454zM29 1882h190l129 -266h-133z" />
    <glyph glyph-name="Iacute" unicode="&#xcd;" horiz-adv-x="552" 
d="M188 1454h177v-1454h-177v1454zM205 1616l129 266h190l-184 -266h-135z" />
    <glyph glyph-name="Icircumflex" unicode="&#xce;" horiz-adv-x="552" 
d="M188 1454h177v-1454h-177v1454zM-6 1616l176 246h209l178 -246h-156l-125 174l-124 -174h-158z" />
    <glyph glyph-name="Idieresis" unicode="&#xcf;" horiz-adv-x="552" 
d="M188 1454h177v-1454h-177v1454zM33 1624v197h180v-197h-180zM346 1624v197h180v-197h-180z" />
    <glyph glyph-name="Eth" unicode="&#xd0;" horiz-adv-x="1617" 
d="M100 803h269v651h450q335 0 517 -189.5t182 -539.5q0 -349 -178.5 -537t-508.5 -188h-462v651h-269v152zM545 172h274q514 0 514 553q0 557 -514 557h-274v-479h313v-152h-313v-479z" />
    <glyph glyph-name="Ntilde" unicode="&#xd1;" horiz-adv-x="1511" 
d="M188 1454h246l713 -1245v1245h176v-1454h-256l-702 1225v-1225h-177v1454zM414 1618q0 121 55 192.5t147 71.5q90 0 150 -57q8 -8 28 -28.5t29.5 -29t28.5 -17.5t39 -9q82 0 82 139h127q0 -120 -55 -193t-146 -73q-59 0 -96 19.5t-68 52.5l-19.5 19.5t-20.5 19.5
t-18.5 14.5t-24 12t-27.5 3.5q-84 0 -84 -137h-127z" />
    <glyph glyph-name="Ograve" unicode="&#xd2;" horiz-adv-x="1529" 
d="M764 -33q-310 0 -487 203t-177 555q0 355 177 558.5t487 203.5q312 0 489 -203.5t177 -558.5q0 -353 -177.5 -555.5t-488.5 -202.5zM285 725q0 -272 127.5 -429t351.5 -157q225 0 353 157t128 429q0 276 -128 433t-353 157q-224 0 -351.5 -157.5t-127.5 -432.5zM516 1882
h191l129 -266h-134z" />
    <glyph glyph-name="Oacute" unicode="&#xd3;" horiz-adv-x="1529" 
d="M764 -33q-310 0 -487 203t-177 555q0 355 177 558.5t487 203.5q312 0 489 -203.5t177 -558.5q0 -353 -177.5 -555.5t-488.5 -202.5zM285 725q0 -272 127.5 -429t351.5 -157q225 0 353 157t128 429q0 276 -128 433t-353 157q-224 0 -351.5 -157.5t-127.5 -432.5zM692 1616
l129 266h191l-185 -266h-135z" />
    <glyph glyph-name="Ocircumflex" unicode="&#xd4;" horiz-adv-x="1529" 
d="M764 -33q-310 0 -487 203t-177 555q0 355 177 558.5t487 203.5q312 0 489 -203.5t177 -558.5q0 -353 -177.5 -555.5t-488.5 -202.5zM285 725q0 -272 127.5 -429t351.5 -157q225 0 353 157t128 429q0 276 -128 433t-353 157q-224 0 -351.5 -157.5t-127.5 -432.5zM483 1616
l176 246h209l179 -246h-156l-125 174l-125 -174h-158z" />
    <glyph glyph-name="Otilde" unicode="&#xd5;" horiz-adv-x="1529" 
d="M764 -33q-310 0 -487 203t-177 555q0 355 177 558.5t487 203.5q312 0 489 -203.5t177 -558.5q0 -353 -177.5 -555.5t-488.5 -202.5zM285 725q0 -272 127.5 -429t351.5 -157q225 0 353 157t128 429q0 276 -128 433t-353 157q-224 0 -351.5 -157.5t-127.5 -432.5zM422 1618
q0 121 55 192.5t148 71.5q89 0 149 -57q8 -8 28 -28.5t29.5 -29t28.5 -17.5t39 -9q82 0 82 139h127q0 -120 -55 -193t-146 -73q-59 0 -96 19.5t-68 52.5l-19.5 19.5t-20.5 19.5t-18.5 14.5t-24 12t-27.5 3.5q-84 0 -84 -137h-127z" />
    <glyph glyph-name="Odieresis" unicode="&#xd6;" horiz-adv-x="1529" 
d="M764 -33q-310 0 -487 203t-177 555q0 355 177 558.5t487 203.5q312 0 489 -203.5t177 -558.5q0 -353 -177.5 -555.5t-488.5 -202.5zM285 725q0 -272 127.5 -429t351.5 -157q225 0 353 157t128 429q0 276 -128 433t-353 157q-224 0 -351.5 -157.5t-127.5 -432.5zM522 1624
v197h180v-197h-180zM836 1624v197h180v-197h-180z" />
    <glyph glyph-name="multiply" unicode="&#xd7;" horiz-adv-x="995" 
d="M209 1020l289 -289l288 289l113 -113l-289 -289l289 -288l-113 -113l-288 289l-289 -289l-113 113l289 288l-289 289z" />
    <glyph glyph-name="Oslash" unicode="&#xd8;" horiz-adv-x="1538" 
d="M772 -33q-243 0 -407 127l-95 -127h-170l166 226q-157 199 -157 532q0 355 176.5 558.5t486.5 203.5q220 0 377 -105l78 105h168l-144 -193q187 -206 187 -569q0 -353 -177.5 -555.5t-488.5 -202.5zM293 725q0 -228 90 -377l657 889q-110 78 -268 78
q-224 0 -351.5 -157.5t-127.5 -432.5zM473 242q122 -103 299 -103q225 0 353 157t128 429q0 262 -114 416z" />
    <glyph glyph-name="Ugrave" unicode="&#xd9;" horiz-adv-x="1411" 
d="M1253 508q0 -249 -147 -395t-399 -146q-253 0 -401 146t-148 395v948h176v-948q0 -177 97 -273t276 -96q177 0 273.5 96t96.5 273v948h176v-948zM457 1882h190l129 -266h-133z" />
    <glyph glyph-name="Uacute" unicode="&#xda;" horiz-adv-x="1411" 
d="M1253 508q0 -249 -147 -395t-399 -146q-253 0 -401 146t-148 395v948h176v-948q0 -177 97 -273t276 -96q177 0 273.5 96t96.5 273v948h176v-948zM633 1616l129 266h190l-184 -266h-135z" />
    <glyph glyph-name="Ucircumflex" unicode="&#xdb;" horiz-adv-x="1411" 
d="M1253 508q0 -249 -147 -395t-399 -146q-253 0 -401 146t-148 395v948h176v-948q0 -177 97 -273t276 -96q177 0 273.5 96t96.5 273v948h176v-948zM424 1616l176 246h209l178 -246h-156l-124 174l-125 -174h-158z" />
    <glyph glyph-name="Udieresis" unicode="&#xdc;" horiz-adv-x="1411" 
d="M1253 508q0 -249 -147 -395t-399 -146q-253 0 -401 146t-148 395v948h176v-948q0 -177 97 -273t276 -96q177 0 273.5 96t96.5 273v948h176v-948zM463 1624v197h180v-197h-180zM776 1624v197h180v-197h-180z" />
    <glyph glyph-name="Yacute" unicode="&#xdd;" horiz-adv-x="1290" 
d="M43 1454h209l393 -674l393 674h209l-514 -860v-594h-176v594zM573 1616l129 266h191l-184 -266h-136z" />
    <glyph glyph-name="Thorn" unicode="&#xde;" horiz-adv-x="1269" 
d="M365 0h-177v1454h177v-262h282q244 0 380 -115.5t136 -322.5q0 -211 -136 -330t-380 -119h-282v-305zM365 477h282q332 0 332 277q0 266 -332 266h-282v-543z" />
    <glyph glyph-name="germandbls" unicode="&#xdf;" horiz-adv-x="1208" 
d="M606 164h-131v-164h131q103 0 195 26.5t164 76.5t114.5 129t42.5 176q0 144 -85 244t-226 136q104 35 162.5 121.5t58.5 198.5q0 166 -120 268.5t-310 102.5q-193 0 -315.5 -120.5t-122.5 -330.5v-1028h172v1028q0 139 72.5 213t193.5 74q105 0 179.5 -61t74.5 -146
q0 -110 -72.5 -183.5t-197.5 -70.5l-90 2v-166l90 2q99 2 178 -25.5t128.5 -90.5t49.5 -154q0 -83 -48.5 -143t-123 -87.5t-164.5 -27.5z" />
    <glyph glyph-name="agrave" unicode="&#xe0;" horiz-adv-x="1177" 
d="M115 766q32 159 151.5 251.5t292.5 92.5q209 0 322.5 -118.5t113.5 -336.5v-436q0 -67 66 -67h45v-152h-74q-207 0 -207 168q-38 -82 -127 -137.5t-211 -55.5q-168 0 -279.5 84t-111.5 226q0 65 20.5 115t53 82.5t88.5 58t111.5 40t136.5 29.5l317 64q-3 272 -264 272
q-103 0 -170 -50t-92 -144zM276 285q0 -69 60 -113.5t174 -44.5q139 2 228 99t89 280v14l-256 -45q-13 -2 -40 -7l-60 -10.5t-52.5 -12t-48.5 -16t-37.5 -21.5t-31.5 -30.5t-17.5 -40t-7.5 -52.5zM328 1513h190l129 -266h-133z" />
    <glyph glyph-name="aacute" unicode="&#xe1;" horiz-adv-x="1177" 
d="M115 766q32 159 151.5 251.5t292.5 92.5q209 0 322.5 -118.5t113.5 -336.5v-436q0 -67 66 -67h45v-152h-74q-207 0 -207 168q-38 -82 -127 -137.5t-211 -55.5q-168 0 -279.5 84t-111.5 226q0 65 20.5 115t53 82.5t88.5 58t111.5 40t136.5 29.5l317 64q-3 272 -264 272
q-103 0 -170 -50t-92 -144zM276 285q0 -69 60 -113.5t174 -44.5q139 2 228 99t89 280v14l-256 -45q-13 -2 -40 -7l-60 -10.5t-52.5 -12t-48.5 -16t-37.5 -21.5t-31.5 -30.5t-17.5 -40t-7.5 -52.5zM504 1247l129 266h190l-184 -266h-135z" />
    <glyph glyph-name="acircumflex" unicode="&#xe2;" horiz-adv-x="1177" 
d="M115 766q32 159 151.5 251.5t292.5 92.5q209 0 322.5 -118.5t113.5 -336.5v-436q0 -67 66 -67h45v-152h-74q-207 0 -207 168q-38 -82 -127 -137.5t-211 -55.5q-168 0 -279.5 84t-111.5 226q0 65 20.5 115t53 82.5t88.5 58t111.5 40t136.5 29.5l317 64q-3 272 -264 272
q-103 0 -170 -50t-92 -144zM276 285q0 -69 60 -113.5t174 -44.5q139 2 228 99t89 280v14l-256 -45q-13 -2 -40 -7l-60 -10.5t-52.5 -12t-48.5 -16t-37.5 -21.5t-31.5 -30.5t-17.5 -40t-7.5 -52.5zM295 1247l176 246h209l178 -246h-156l-124 174l-125 -174h-158z" />
    <glyph glyph-name="atilde" unicode="&#xe3;" horiz-adv-x="1177" 
d="M115 766q32 159 151.5 251.5t292.5 92.5q209 0 322.5 -118.5t113.5 -336.5v-436q0 -67 66 -67h45v-152h-74q-207 0 -207 168q-38 -82 -127 -137.5t-211 -55.5q-168 0 -279.5 84t-111.5 226q0 65 20.5 115t53 82.5t88.5 58t111.5 40t136.5 29.5l317 64q-3 272 -264 272
q-103 0 -170 -50t-92 -144zM233 1249q0 121 55 192.5t148 71.5q90 0 150 -57q8 -8 28 -28.5t29.5 -29t28.5 -17.5t39 -9q82 0 82 139h127q0 -120 -55 -193t-146 -73q-59 0 -96 19.5t-68 52.5q-6 5 -19.5 19t-20.5 20t-19 14.5t-24.5 12t-27.5 3.5q-84 0 -84 -137h-127z
M276 285q0 -69 60 -113.5t174 -44.5q139 2 228 99t89 280v14l-256 -45q-13 -2 -40 -7l-60 -10.5t-52.5 -12t-48.5 -16t-37.5 -21.5t-31.5 -30.5t-17.5 -40t-7.5 -52.5z" />
    <glyph glyph-name="adieresis" unicode="&#xe4;" horiz-adv-x="1177" 
d="M115 766q32 159 151.5 251.5t292.5 92.5q209 0 322.5 -118.5t113.5 -336.5v-436q0 -67 66 -67h45v-152h-74q-207 0 -207 168q-38 -82 -127 -137.5t-211 -55.5q-168 0 -279.5 84t-111.5 226q0 65 20.5 115t53 82.5t88.5 58t111.5 40t136.5 29.5l317 64q-3 272 -264 272
q-103 0 -170 -50t-92 -144zM276 285q0 -69 60 -113.5t174 -44.5q139 2 228 99t89 280v14l-256 -45q-13 -2 -40 -7l-60 -10.5t-52.5 -12t-48.5 -16t-37.5 -21.5t-31.5 -30.5t-17.5 -40t-7.5 -52.5zM334 1255v197h180v-197h-180zM647 1255v197h180v-197h-180z" />
    <glyph glyph-name="aring" unicode="&#xe5;" horiz-adv-x="1177" 
d="M115 766q32 159 151.5 251.5t292.5 92.5q209 0 322.5 -118.5t113.5 -336.5v-436q0 -67 66 -67h45v-152h-74q-207 0 -207 168q-38 -82 -127 -137.5t-211 -55.5q-168 0 -279.5 84t-111.5 226q0 65 20.5 115t53 82.5t88.5 58t111.5 40t136.5 29.5l317 64q-3 272 -264 272
q-103 0 -170 -50t-92 -144zM276 285q0 -69 60 -113.5t174 -44.5q139 2 228 99t89 280v14l-256 -45q-13 -2 -40 -7l-60 -10.5t-52.5 -12t-48.5 -16t-37.5 -21.5t-31.5 -30.5t-17.5 -40t-7.5 -52.5zM385 1389q0 78 56 134t134 56t133.5 -56t55.5 -134q0 -81 -55 -135t-134 -54
t-134.5 54t-55.5 135zM498 1391q0 -31 22.5 -54.5t54.5 -23.5q31 0 53.5 23.5t22.5 54.5q0 29 -22.5 52t-53.5 23q-32 0 -54.5 -22.5t-22.5 -52.5z" />
    <glyph glyph-name="ae" unicode="&#xe6;" horiz-adv-x="1908" 
d="M115 766q32 155 153.5 249.5t290.5 94.5q133 0 231 -51.5t152 -151.5q65 98 167 150.5t232 52.5q93 0 173 -31.5t145 -95t105 -170t46 -246.5l2 -78h-786q12 -166 94 -258t221 -92q87 0 161 49t110 134l184 -15q-47 -152 -172.5 -242t-282.5 -90q-163 0 -281.5 82.5
t-172.5 231.5l-2 -6q-28 -145 -131.5 -225t-266.5 -83q-169 3 -280 87.5t-111 226.5q0 66 20.5 116.5t53.5 83.5t89 57.5t111 38.5t136 29l317 60q-1 133 -71.5 202.5t-192.5 69.5q-98 0 -167.5 -54t-90.5 -140zM276 289q0 -72 61 -123t173 -45q137 6 227 94t90 234v73
l-256 -47q-21 -4 -58.5 -10.5t-56.5 -10t-48.5 -11t-45 -15t-35 -20.5t-29 -28.5t-16 -38.5t-6.5 -52zM1030 641h594q-20 159 -97.5 232t-185.5 73q-128 0 -208.5 -79.5t-102.5 -225.5z" />
    <glyph glyph-name="ccedilla" unicode="&#xe7;" horiz-adv-x="1130" 
d="M864 721q-17 103 -93.5 164t-176.5 61q-150 0 -234 -107t-84 -296q0 -190 84 -297t234 -107q104 0 182 66t96 180l183 -12q-24 -171 -142.5 -278t-283.5 -118l-47 -53q88 0 143 -51t55 -133q0 -80 -57.5 -135.5t-140.5 -55.5q-70 0 -124.5 32.5t-117.5 105.5l84 77
q1 -2 12 -15t15 -17.5t15 -16.5t18 -17.5t19 -14t22 -12.5t22.5 -7.5t25.5 -3.5q43 0 69 24t26 64q0 49 -45 71t-111 7l-57 76l71 78q-198 23 -314 174.5t-116 388.5q0 258 135.5 412.5t362.5 154.5q171 0 300 -103.5t150 -273.5z" />
    <glyph glyph-name="egrave" unicode="&#xe8;" horiz-adv-x="1161" 
d="M96 543q0 258 135.5 412.5t362.5 154.5q93 0 173 -31.5t145 -95t105 -170t46 -246.5l2 -78h-786q12 -166 94 -258t221 -92q87 0 160.5 49t109.5 134l185 -15q-47 -152 -172.5 -242t-282.5 -90q-227 0 -362.5 155t-135.5 413zM283 641h594q-20 159 -97.5 232t-185.5 73
q-128 0 -208.5 -79.5t-102.5 -225.5zM344 1509h191l129 -266h-134z" />
    <glyph glyph-name="eacute" unicode="&#xe9;" horiz-adv-x="1161" 
d="M96 543q0 258 135.5 412.5t362.5 154.5q93 0 173 -31.5t145 -95t105 -170t46 -246.5l2 -78h-786q12 -166 94 -258t221 -92q87 0 160.5 49t109.5 134l185 -15q-47 -152 -172.5 -242t-282.5 -90q-227 0 -362.5 155t-135.5 413zM283 641h594q-20 159 -97.5 232t-185.5 73
q-128 0 -208.5 -79.5t-102.5 -225.5zM520 1243l129 266h191l-185 -266h-135z" />
    <glyph glyph-name="ecircumflex" unicode="&#xea;" horiz-adv-x="1161" 
d="M96 543q0 258 135.5 412.5t362.5 154.5q93 0 173 -31.5t145 -95t105 -170t46 -246.5l2 -78h-786q12 -166 94 -258t221 -92q87 0 160.5 49t109.5 134l185 -15q-47 -152 -172.5 -242t-282.5 -90q-227 0 -362.5 155t-135.5 413zM283 641h594q-20 159 -97.5 232t-185.5 73
q-128 0 -208.5 -79.5t-102.5 -225.5zM311 1243l176 246h209l178 -246h-155l-125 174l-125 -174h-158z" />
    <glyph glyph-name="edieresis" unicode="&#xeb;" horiz-adv-x="1161" 
d="M96 543q0 258 135.5 412.5t362.5 154.5q93 0 173 -31.5t145 -95t105 -170t46 -246.5l2 -78h-786q12 -166 94 -258t221 -92q87 0 160.5 49t109.5 134l185 -15q-47 -152 -172.5 -242t-282.5 -90q-227 0 -362.5 155t-135.5 413zM283 641h594q-20 159 -97.5 232t-185.5 73
q-128 0 -208.5 -79.5t-102.5 -225.5zM350 1251v197h180v-197h-180zM664 1251v197h180v-197h-180z" />
    <glyph glyph-name="igrave" unicode="&#xec;" horiz-adv-x="499" 
d="M164 1085h172v-1085h-172v1085zM2 1513h191l129 -266h-134z" />
    <glyph glyph-name="iacute" unicode="&#xed;" horiz-adv-x="499" 
d="M164 1085h172v-1085h-172v1085zM178 1247l129 266h191l-185 -266h-135z" />
    <glyph glyph-name="icircumflex" unicode="&#xee;" horiz-adv-x="499" 
d="M164 1085h172v-1085h-172v1085zM-31 1247l176 246h209l178 -246h-155l-125 174l-125 -174h-158z" />
    <glyph glyph-name="idieresis" unicode="&#xef;" horiz-adv-x="499" 
d="M164 1085h172v-1085h-172v1085zM6 1255v197h180v-197h-180zM319 1255v197h181v-197h-181z" />
    <glyph glyph-name="eth" unicode="&#xf0;" horiz-adv-x="1220" 
d="M633 971q111 -11 195 -69.5t128 -156.5q-3 269 -155 441l-297 -109l-47 129l223 80q-132 83 -303 98l41 158q279 -28 454 -186l195 69l47 -127l-143 -51q94 -132 129.5 -307.5t16 -336.5t-77.5 -300t-142 -213q-160 -133 -336 -115q-225 19 -354 168t-109 367
q20 233 164.5 357t370.5 104zM279 496q-15 -153 62.5 -250.5t217.5 -112.5q148 -12 252 103t117 307q-20 116 -105 185.5t-205 78.5q-138 12 -233.5 -75t-105.5 -236z" />
    <glyph glyph-name="ntilde" unicode="&#xf1;" horiz-adv-x="1189" 
d="M164 1085h158l4 -188q40 107 128 160t205 53q178 0 272.5 -115.5t94.5 -296.5v-698h-172v649q0 154 -55.5 231.5t-175.5 77.5q-132 0 -209.5 -80.5t-77.5 -228.5v-649h-172v1085zM252 1249q0 121 55 192.5t148 71.5q89 0 149 -57q8 -8 28 -28.5t29.5 -29t28.5 -17.5
t39 -9q82 0 82 139h127q0 -120 -55 -193t-146 -73q-59 0 -96 19.5t-68 52.5l-19.5 19.5t-20.5 19.5t-18.5 14.5t-24 12t-27.5 3.5q-84 0 -84 -137h-127z" />
    <glyph glyph-name="ograve" unicode="&#xf2;" horiz-adv-x="1185" 
d="M594 -25q-226 0 -362 154.5t-136 413.5t136 413t362 154q225 0 360.5 -154t135.5 -413t-135.5 -413.5t-360.5 -154.5zM276 543q0 -190 84 -297t234 -107q149 0 232 107t83 297q0 189 -83 296t-232 107q-150 0 -234 -107t-84 -296zM344 1513h191l129 -266h-134z" />
    <glyph glyph-name="oacute" unicode="&#xf3;" horiz-adv-x="1185" 
d="M594 -25q-226 0 -362 154.5t-136 413.5t136 413t362 154q225 0 360.5 -154t135.5 -413t-135.5 -413.5t-360.5 -154.5zM276 543q0 -190 84 -297t234 -107q149 0 232 107t83 297q0 189 -83 296t-232 107q-150 0 -234 -107t-84 -296zM520 1247l129 266h191l-185 -266h-135z
" />
    <glyph glyph-name="ocircumflex" unicode="&#xf4;" horiz-adv-x="1185" 
d="M594 -25q-226 0 -362 154.5t-136 413.5t136 413t362 154q225 0 360.5 -154t135.5 -413t-135.5 -413.5t-360.5 -154.5zM276 543q0 -190 84 -297t234 -107q149 0 232 107t83 297q0 189 -83 296t-232 107q-150 0 -234 -107t-84 -296zM311 1247l176 246h209l178 -246h-155
l-125 174l-125 -174h-158z" />
    <glyph glyph-name="otilde" unicode="&#xf5;" horiz-adv-x="1185" 
d="M594 -25q-226 0 -362 154.5t-136 413.5t136 413t362 154q225 0 360.5 -154t135.5 -413t-135.5 -413.5t-360.5 -154.5zM250 1249q0 121 55 192.5t148 71.5q89 0 149 -57q8 -8 28 -28.5t29.5 -29t28.5 -17.5t39 -9q82 0 82 139h127q0 -120 -55 -193t-146 -73
q-59 0 -96 19.5t-68 52.5l-19.5 19.5t-20.5 19.5t-18.5 14.5t-24 12t-27.5 3.5q-84 0 -84 -137h-127zM276 543q0 -190 84 -297t234 -107q149 0 232 107t83 297q0 189 -83 296t-232 107q-150 0 -234 -107t-84 -296z" />
    <glyph glyph-name="odieresis" unicode="&#xf6;" horiz-adv-x="1185" 
d="M594 -25q-226 0 -362 154.5t-136 413.5t136 413t362 154q225 0 360.5 -154t135.5 -413t-135.5 -413.5t-360.5 -154.5zM276 543q0 -190 84 -297t234 -107q149 0 232 107t83 297q0 189 -83 296t-232 107q-150 0 -234 -107t-84 -296zM350 1255v197h180v-197h-180zM664 1255
v197h180v-197h-180z" />
    <glyph glyph-name="divide" unicode="&#xf7;" horiz-adv-x="1167" 
d="M96 748h975v-160h-975v160zM479 293q0 50 33.5 82.5t83.5 32.5q51 0 84 -32t33 -83q0 -50 -33 -82.5t-84 -32.5q-50 0 -83.5 33t-33.5 82zM479 1057q0 50 33.5 82t83.5 32q51 0 84 -31.5t33 -82.5q0 -50 -33 -82.5t-84 -32.5q-50 0 -83.5 33t-33.5 82z" />
    <glyph glyph-name="oslash" unicode="&#xf8;" horiz-adv-x="1155" 
d="M594 -25q-182 0 -307 101l-84 -101h-178l170 203q-99 148 -99 365q0 259 136 413t362 154q177 0 301 -98l82 98h178l-166 -199q101 -151 101 -368q0 -259 -135.5 -413.5t-360.5 -154.5zM276 543q0 -126 39 -221l469 559q-74 65 -190 65q-150 0 -234 -107t-84 -296z
M397 207q81 -68 197 -68q149 0 232 107t83 297q0 132 -41 225z" />
    <glyph glyph-name="ugrave" unicode="&#xf9;" horiz-adv-x="1177" 
d="M1014 0h-164v180q-41 -102 -127.5 -153.5t-198.5 -51.5q-174 0 -267 115.5t-93 296.5v698h172v-647q0 -155 54.5 -233t170.5 -78q129 0 205 81t76 230v647h172v-1085zM334 1513h190l129 -266h-133z" />
    <glyph glyph-name="uacute" unicode="&#xfa;" horiz-adv-x="1177" 
d="M1014 0h-164v180q-41 -102 -127.5 -153.5t-198.5 -51.5q-174 0 -267 115.5t-93 296.5v698h172v-647q0 -155 54.5 -233t170.5 -78q129 0 205 81t76 230v647h172v-1085zM508 1247l129 266h190l-184 -266h-135z" />
    <glyph glyph-name="ucircumflex" unicode="&#xfb;" horiz-adv-x="1177" 
d="M1014 0h-164v180q-41 -102 -127.5 -153.5t-198.5 -51.5q-174 0 -267 115.5t-93 296.5v698h172v-647q0 -155 54.5 -233t170.5 -78q129 0 205 81t76 230v647h172v-1085zM299 1247l176 246h209l178 -246h-155l-125 174l-125 -174h-158z" />
    <glyph glyph-name="udieresis" unicode="&#xfc;" horiz-adv-x="1177" 
d="M1014 0h-164v180q-41 -102 -127.5 -153.5t-198.5 -51.5q-174 0 -267 115.5t-93 296.5v698h172v-647q0 -155 54.5 -233t170.5 -78q129 0 205 81t76 230v647h172v-1085zM338 1255v197h180v-197h-180zM651 1255v197h180v-197h-180z" />
    <glyph glyph-name="yacute" unicode="&#xfd;" horiz-adv-x="1099" 
d="M45 1085h184l326 -901l317 901h183l-441 -1222q-31 -87 -89.5 -128.5t-151.5 -41.5h-142v151h125q76 0 105 76l39 100h-58zM477 1247l129 266h191l-185 -266h-135z" />
    <glyph glyph-name="thorn" unicode="&#xfe;" horiz-adv-x="1224" 
d="M164 1454h176v-506q95 162 330 162q114 0 203 -46t144 -125.5t83 -180t28 -215.5t-28 -215.5t-83 -180t-144 -126t-203 -46.5q-225 0 -330 156v-438h-176v1761zM322 543q0 -79 18 -149t54.5 -128.5t98.5 -92.5t142 -34q81 0 143 33.5t98 91.5t54 128t18 151
q0 84 -18 155.5t-54 130t-98 92t-143 33.5t-142.5 -34t-98 -93t-54.5 -130.5t-18 -153.5z" />
    <glyph glyph-name="ydieresis" unicode="&#xff;" horiz-adv-x="1099" 
d="M45 1085h184l326 -901l317 901h183l-441 -1222q-31 -87 -89.5 -128.5t-151.5 -41.5h-142v151h125q76 0 105 76l39 100h-58zM307 1255v197h180v-197h-180zM621 1255v197h180v-197h-180z" />
    <glyph glyph-name="Amacron" unicode="&#x100;" horiz-adv-x="1372" 
d="M43 0l524 1454h238l524 -1454h-192l-146 414h-610l-145 -414h-193zM424 1649v127h522v-127h-522zM440 586h492l-246 714z" />
    <glyph glyph-name="amacron" unicode="&#x101;" horiz-adv-x="1177" 
d="M115 766q32 159 151.5 251.5t292.5 92.5q209 0 322.5 -118.5t113.5 -336.5v-436q0 -67 66 -67h45v-152h-74q-207 0 -207 168q-38 -82 -127 -137.5t-211 -55.5q-168 0 -279.5 84t-111.5 226q0 65 20.5 115t53 82.5t88.5 58t111.5 40t136.5 29.5l317 64q-3 272 -264 272
q-103 0 -170 -50t-92 -144zM276 285q0 -69 60 -113.5t174 -44.5q139 2 228 99t89 280v14l-256 -45q-13 -2 -40 -7l-60 -10.5t-52.5 -12t-48.5 -16t-37.5 -21.5t-31.5 -30.5t-17.5 -40t-7.5 -52.5zM315 1280v127h523v-127h-523z" />
    <glyph glyph-name="Abreve" unicode="&#x102;" horiz-adv-x="1372" 
d="M43 0l524 1454h238l524 -1454h-192l-146 414h-610l-145 -414h-193zM397 1880h133q0 -57 45.5 -96t112.5 -39q66 0 111 39t45 96h133q0 -110 -83.5 -186t-205.5 -76q-123 0 -207 76t-84 186zM440 586h492l-246 714z" />
    <glyph glyph-name="abreve" unicode="&#x103;" horiz-adv-x="1177" 
d="M115 766q32 159 151.5 251.5t292.5 92.5q209 0 322.5 -118.5t113.5 -336.5v-436q0 -67 66 -67h45v-152h-74q-207 0 -207 168q-38 -82 -127 -137.5t-211 -55.5q-168 0 -279.5 84t-111.5 226q0 65 20.5 115t53 82.5t88.5 58t111.5 40t136.5 29.5l317 64q-3 272 -264 272
q-103 0 -170 -50t-92 -144zM276 285q0 -69 60 -113.5t174 -44.5q139 2 228 99t89 280v14l-256 -45q-13 -2 -40 -7l-60 -10.5t-52.5 -12t-48.5 -16t-37.5 -21.5t-31.5 -30.5t-17.5 -40t-7.5 -52.5zM287 1511h133q0 -57 45.5 -96t112.5 -39q66 0 110.5 39t44.5 96h133
q0 -110 -83.5 -186t-204.5 -76q-123 0 -207 76t-84 186z" />
    <glyph glyph-name="Aogonek" unicode="&#x104;" horiz-adv-x="1443" 
d="M43 0l524 1454h238l524 -1454l-63 -92q-62 -88 -62 -131q0 -31 19 -51.5t49 -20.5q16 0 34.5 5.5t52 19.5t42.5 18v-131q-72 -55 -156 -55q-76 0 -130 49t-54 123q0 100 74 180l77 86h-75l-146 414h-610l-145 -414h-193zM440 586h492l-246 714z" />
    <glyph glyph-name="aogonek" unicode="&#x105;" horiz-adv-x="1177" 
d="M115 766q32 159 151.5 251.5t292.5 92.5q209 0 322.5 -118.5t113.5 -336.5v-436q0 -67 66 -67h45v-146h2l-2 -2v-4h-2l-60 -86q-61 -86 -61 -131q0 -31 19 -51.5t49 -20.5q16 0 34.5 5.5t52 19.5t42.5 18v-131q-72 -55 -156 -55q-76 0 -130 49t-54 123q0 101 73 180
l74 82q-162 18 -162 166q-38 -82 -127 -137.5t-211 -55.5q-168 0 -279.5 84t-111.5 226q0 65 20.5 115t53 82.5t88.5 58t111.5 40t136.5 29.5l317 64q-3 272 -264 272q-103 0 -170 -50t-92 -144zM276 285q0 -69 60 -113.5t174 -44.5q139 2 228 99t89 280v14l-256 -45
q-13 -2 -40 -7l-60 -10.5t-52.5 -12t-48.5 -16t-37.5 -21.5t-31.5 -30.5t-17.5 -40t-7.5 -52.5z" />
    <glyph glyph-name="Cacute" unicode="&#x106;" horiz-adv-x="1435" 
d="M1346 479q-41 -236 -192 -374t-396 -138q-153 0 -278.5 59t-208 162t-127 240.5t-44.5 296.5q0 160 44.5 298t126.5 241.5t207.5 163t279.5 59.5q227 0 377 -129.5t198 -349.5l-186 -13q-35 154 -136.5 237t-252.5 83q-121 0 -213.5 -47.5t-148 -130t-83.5 -187
t-28 -225.5q0 -96 17 -181.5t54.5 -160t92 -128.5t134 -85t175.5 -31q159 0 263 92t136 261zM686 1616l129 266h191l-185 -266h-135z" />
    <glyph glyph-name="cacute" unicode="&#x107;" horiz-adv-x="1130" 
d="M864 721q-17 103 -93.5 164t-176.5 61q-150 0 -234 -107t-84 -296q0 -190 84 -297t234 -107q104 0 182 66t96 180l183 -12q-26 -181 -155.5 -289.5t-305.5 -108.5q-227 0 -362.5 155t-135.5 413t135.5 412.5t362.5 154.5q171 0 300 -103.5t150 -273.5zM520 1247l129 266
h191l-185 -266h-135z" />
    <glyph glyph-name="Ccircumflex" unicode="&#x108;" horiz-adv-x="1435" 
d="M1346 479q-41 -236 -192 -374t-396 -138q-153 0 -278.5 59t-208 162t-127 240.5t-44.5 296.5q0 160 44.5 298t126.5 241.5t207.5 163t279.5 59.5q227 0 377 -129.5t198 -349.5l-186 -13q-35 154 -136.5 237t-252.5 83q-121 0 -213.5 -47.5t-148 -130t-83.5 -187
t-28 -225.5q0 -96 17 -181.5t54.5 -160t92 -128.5t134 -85t175.5 -31q159 0 263 92t136 261zM477 1616l176 246h209l178 -246h-155l-125 174l-125 -174h-158z" />
    <glyph glyph-name="ccircumflex" unicode="&#x109;" horiz-adv-x="1130" 
d="M864 721q-17 103 -93.5 164t-176.5 61q-150 0 -234 -107t-84 -296q0 -190 84 -297t234 -107q104 0 182 66t96 180l183 -12q-26 -181 -155.5 -289.5t-305.5 -108.5q-227 0 -362.5 155t-135.5 413t135.5 412.5t362.5 154.5q171 0 300 -103.5t150 -273.5zM311 1247l176 246
h209l178 -246h-155l-125 174l-125 -174h-158z" />
    <glyph glyph-name="Cdotaccent" unicode="&#x10a;" horiz-adv-x="1435" 
d="M1346 479q-41 -236 -192 -374t-396 -138q-153 0 -278.5 59t-208 162t-127 240.5t-44.5 296.5q0 160 44.5 298t126.5 241.5t207.5 163t279.5 59.5q227 0 377 -129.5t198 -349.5l-186 -13q-35 154 -136.5 237t-252.5 83q-121 0 -213.5 -47.5t-148 -130t-83.5 -187
t-28 -225.5q0 -96 17 -181.5t54.5 -160t92 -128.5t134 -85t175.5 -31q159 0 263 92t136 261zM668 1624v197h180v-197h-180z" />
    <glyph glyph-name="cdotaccent" unicode="&#x10b;" horiz-adv-x="1130" 
d="M864 721q-17 103 -93.5 164t-176.5 61q-150 0 -234 -107t-84 -296q0 -190 84 -297t234 -107q104 0 182 66t96 180l183 -12q-26 -181 -155.5 -289.5t-305.5 -108.5q-227 0 -362.5 155t-135.5 413t135.5 412.5t362.5 154.5q171 0 300 -103.5t150 -273.5zM502 1255v197h180
v-197h-180z" />
    <glyph glyph-name="Ccaron" unicode="&#x10c;" horiz-adv-x="1435" 
d="M1346 479q-41 -236 -192 -374t-396 -138q-153 0 -278.5 59t-208 162t-127 240.5t-44.5 296.5q0 160 44.5 298t126.5 241.5t207.5 163t279.5 59.5q227 0 377 -129.5t198 -349.5l-186 -13q-35 154 -136.5 237t-252.5 83q-121 0 -213.5 -47.5t-148 -130t-83.5 -187
t-28 -225.5q0 -96 17 -181.5t54.5 -160t92 -128.5t134 -85t175.5 -31q159 0 263 92t136 261zM471 1862h158l125 -174l125 174h155l-178 -246h-209z" />
    <glyph glyph-name="ccaron" unicode="&#x10d;" horiz-adv-x="1130" 
d="M864 721q-17 103 -93.5 164t-176.5 61q-150 0 -234 -107t-84 -296q0 -190 84 -297t234 -107q104 0 182 66t96 180l183 -12q-26 -181 -155.5 -289.5t-305.5 -108.5q-227 0 -362.5 155t-135.5 413t135.5 412.5t362.5 154.5q171 0 300 -103.5t150 -273.5zM305 1493h158
l125 -174l125 174h155l-178 -246h-209z" />
    <glyph glyph-name="Dcaron" unicode="&#x10e;" horiz-adv-x="1437" 
d="M639 1454q335 0 516.5 -189.5t181.5 -539.5q0 -349 -178 -537t-508 -188h-463v1454h451zM365 172h274q514 0 514 553q0 557 -514 557h-274v-1110zM373 1862h157l125 -174l125 174h156l-178 -246h-209z" />
    <glyph glyph-name="dcaron" unicode="&#x10f;" horiz-adv-x="1480" 
d="M1061 1454v-1454h-156l-6 156q-46 -84 -138 -132.5t-206 -48.5q-212 0 -335.5 153.5t-123.5 414.5t123.5 414t335.5 153q109 0 199.5 -45.5t134.5 -122.5v512h172zM276 543q0 -185 85.5 -294.5t228.5 -109.5q145 0 230 109t85 295q0 189 -85 300t-230 111
q-143 0 -228.5 -111.5t-85.5 -299.5zM1163 1233v223h219v-223h2l-116 -315h-101l80 315h-84z" />
    <glyph glyph-name="Dcroat" unicode="&#x110;" horiz-adv-x="1617" 
d="M100 803h269v651h450q335 0 517 -189.5t182 -539.5q0 -349 -178.5 -537t-508.5 -188h-462v651h-269v152zM545 172h274q514 0 514 553q0 557 -514 557h-274v-479h313v-152h-313v-479z" />
    <glyph glyph-name="dcroat" unicode="&#x111;" horiz-adv-x="1333" 
d="M1061 1454v-106h129v-152h-129v-1196h-156l-6 156q-46 -84 -138 -132.5t-206 -48.5q-212 0 -335.5 153.5t-123.5 414.5t123.5 414t335.5 153q109 0 199.5 -45.5t134.5 -122.5v254h-217v152h217v106h172zM276 543q0 -185 85.5 -294.5t228.5 -109.5q145 0 230 109t85 295
q0 189 -85 300t-230 111q-143 0 -228.5 -111.5t-85.5 -299.5z" />
    <glyph glyph-name="Emacron" unicode="&#x112;" horiz-adv-x="1234" 
d="M188 1454h914v-172h-737v-469h712v-168h-712v-473h753v-172h-930v1454zM387 1651v127h522v-127h-522z" />
    <glyph glyph-name="emacron" unicode="&#x113;" horiz-adv-x="1161" 
d="M96 543q0 258 135.5 412.5t362.5 154.5q93 0 173 -31.5t145 -95t105 -170t46 -246.5l2 -78h-786q12 -166 94 -258t221 -92q87 0 160.5 49t109.5 134l185 -15q-47 -152 -172.5 -242t-282.5 -90q-227 0 -362.5 155t-135.5 413zM283 641h594q-20 159 -97.5 232t-185.5 73
q-128 0 -208.5 -79.5t-102.5 -225.5zM332 1276v127h522v-127h-522z" />
    <glyph glyph-name="Edotaccent" unicode="&#x116;" horiz-adv-x="1234" 
d="M188 1454h914v-172h-737v-469h712v-168h-712v-473h753v-172h-930v1454zM557 1626v197h180v-197h-180z" />
    <glyph glyph-name="edotaccent" unicode="&#x117;" horiz-adv-x="1161" 
d="M96 543q0 258 135.5 412.5t362.5 154.5q93 0 173 -31.5t145 -95t105 -170t46 -246.5l2 -78h-786q12 -166 94 -258t221 -92q87 0 160.5 49t109.5 134l185 -15q-47 -152 -172.5 -242t-282.5 -90q-227 0 -362.5 155t-135.5 413zM283 641h594q-20 159 -97.5 232t-185.5 73
q-128 0 -208.5 -79.5t-102.5 -225.5zM502 1251v197h180v-197h-180z" />
    <glyph glyph-name="Eogonek" unicode="&#x118;" horiz-adv-x="1234" 
d="M188 1454h914v-172h-737v-469h712v-168h-712v-473h753v-172h2l-63 -92q-62 -88 -62 -131q0 -31 19 -51.5t49 -20.5q16 0 34.5 5.5t52 19.5t42.5 18v-131q-72 -55 -156 -55q-76 0 -130 49t-54 123q0 100 74 180l78 86h-816v1454z" />
    <glyph glyph-name="eogonek" unicode="&#x119;" horiz-adv-x="1161" 
d="M96 543q0 258 135.5 412.5t362.5 154.5q93 0 173 -31.5t145 -95t105 -170t46 -246.5l2 -78h-786q12 -166 94 -258t221 -92q87 0 160.5 49t109.5 134l185 -15q-35 -112 -114 -191.5t-187 -115.5h2l-64 -92q-61 -86 -61 -131q0 -31 18.5 -51.5t48.5 -20.5q16 0 34.5 5.5
t52 19.5t42.5 18v-131q-72 -55 -155 -55q-76 0 -130.5 49t-54.5 123q0 100 74 180l55 61h-16q-227 0 -362.5 155t-135.5 413zM283 641h594q-20 159 -97.5 232t-185.5 73q-128 0 -208.5 -79.5t-102.5 -225.5z" />
    <glyph glyph-name="Ecaron" unicode="&#x11a;" horiz-adv-x="1234" 
d="M188 1454h914v-172h-737v-469h712v-168h-712v-473h753v-172h-930v1454zM360 1864h158l125 -174l125 174h156l-179 -246h-208z" />
    <glyph glyph-name="ecaron" unicode="&#x11b;" horiz-adv-x="1161" 
d="M96 543q0 258 135.5 412.5t362.5 154.5q93 0 173 -31.5t145 -95t105 -170t46 -246.5l2 -78h-786q12 -166 94 -258t221 -92q87 0 160.5 49t109.5 134l185 -15q-47 -152 -172.5 -242t-282.5 -90q-227 0 -362.5 155t-135.5 413zM283 641h594q-20 159 -97.5 232t-185.5 73
q-128 0 -208.5 -79.5t-102.5 -225.5zM305 1489h158l125 -174l125 174h155l-178 -246h-209z" />
    <glyph glyph-name="Gcircumflex" unicode="&#x11c;" horiz-adv-x="1449" 
d="M1339 0h-129l-16 238q-46 -120 -167.5 -195.5t-268.5 -75.5q-153 0 -278.5 59t-208 162t-127 240.5t-44.5 296.5q0 160 44.5 298t126.5 241.5t207.5 163t279.5 59.5q227 0 377 -129.5t198 -349.5l-184 -13q-38 151 -137 235.5t-254 84.5q-121 0 -213.5 -47.5t-148 -130
t-83.5 -187t-28 -225.5q0 -96 17 -181.5t54.5 -160t92 -128.5t134 -85t175.5 -31q184 0 291 118t120 306h-411v172h581v-735zM477 1616l176 246h209l178 -246h-155l-125 174l-125 -174h-158z" />
    <glyph glyph-name="gcircumflex" unicode="&#x11d;" horiz-adv-x="1222" 
d="M575 57q-211 0 -345 147.5t-134 379.5t133 379t344 147q111 0 198 -53.5t124 -143.5v172h164v-979q0 -210 -130.5 -324t-348.5 -114q-172 0 -294 86t-159 230l180 12q33 -78 103 -121t170 -43q144 0 225.5 61t81.5 175v178q-40 -86 -124.5 -137.5t-187.5 -51.5zM276 584
q0 -167 83.5 -265t226.5 -98q137 0 219.5 98t83.5 265q3 167 -79.5 264.5t-223.5 97.5q-143 0 -226.5 -97.5t-83.5 -264.5zM303 1247l176 246h209l178 -246h-155l-125 174l-125 -174h-158z" />
    <glyph glyph-name="Gbreve" unicode="&#x11e;" horiz-adv-x="1449" 
d="M1339 0h-129l-16 238q-46 -120 -167.5 -195.5t-268.5 -75.5q-153 0 -278.5 59t-208 162t-127 240.5t-44.5 296.5q0 160 44.5 298t126.5 241.5t207.5 163t279.5 59.5q227 0 377 -129.5t198 -349.5l-184 -13q-38 151 -137 235.5t-254 84.5q-121 0 -213.5 -47.5t-148 -130
t-83.5 -187t-28 -225.5q0 -96 17 -181.5t54.5 -160t92 -128.5t134 -85t175.5 -31q184 0 291 118t120 306h-411v172h581v-735zM469 1880h133q0 -57 45.5 -96t112.5 -39q66 0 110.5 39t44.5 96h134q0 -110 -83.5 -186t-205.5 -76q-123 0 -207 76t-84 186z" />
    <glyph glyph-name="gbreve" unicode="&#x11f;" horiz-adv-x="1222" 
d="M575 57q-211 0 -345 147.5t-134 379.5t133 379t344 147q111 0 198 -53.5t124 -143.5v172h164v-979q0 -210 -130.5 -324t-348.5 -114q-172 0 -294 86t-159 230l180 12q33 -78 103 -121t170 -43q144 0 225.5 61t81.5 175v178q-40 -86 -124.5 -137.5t-187.5 -51.5zM276 584
q0 -167 83.5 -265t226.5 -98q137 0 219.5 98t83.5 265q3 167 -79.5 264.5t-223.5 97.5q-143 0 -226.5 -97.5t-83.5 -264.5zM295 1511h133q0 -57 45.5 -96t112.5 -39q66 0 110.5 39t44.5 96h133q0 -110 -83.5 -186t-204.5 -76q-123 0 -207 76t-84 186z" />
    <glyph glyph-name="Gdotaccent" unicode="&#x120;" horiz-adv-x="1449" 
d="M1339 0h-129l-16 238q-46 -120 -167.5 -195.5t-268.5 -75.5q-153 0 -278.5 59t-208 162t-127 240.5t-44.5 296.5q0 160 44.5 298t126.5 241.5t207.5 163t279.5 59.5q227 0 377 -129.5t198 -349.5l-184 -13q-38 151 -137 235.5t-254 84.5q-121 0 -213.5 -47.5t-148 -130
t-83.5 -187t-28 -225.5q0 -96 17 -181.5t54.5 -160t92 -128.5t134 -85t175.5 -31q184 0 291 118t120 306h-411v172h581v-735zM668 1624v197h180v-197h-180z" />
    <glyph glyph-name="gdotaccent" unicode="&#x121;" horiz-adv-x="1222" 
d="M575 57q-211 0 -345 147.5t-134 379.5t133 379t344 147q111 0 198 -53.5t124 -143.5v172h164v-979q0 -210 -130.5 -324t-348.5 -114q-172 0 -294 86t-159 230l180 12q33 -78 103 -121t170 -43q144 0 225.5 61t81.5 175v178q-40 -86 -124.5 -137.5t-187.5 -51.5zM276 584
q0 -167 83.5 -265t226.5 -98q137 0 219.5 98t83.5 265q3 167 -79.5 264.5t-223.5 97.5q-143 0 -226.5 -97.5t-83.5 -264.5zM494 1255v197h180v-197h-180z" />
    <glyph glyph-name="uni0122" unicode="&#x122;" horiz-adv-x="1449" 
d="M1339 0h-129l-16 238q-46 -120 -167.5 -195.5t-268.5 -75.5q-153 0 -278.5 59t-208 162t-127 240.5t-44.5 296.5q0 160 44.5 298t126.5 241.5t207.5 163t279.5 59.5q227 0 377 -129.5t198 -349.5l-184 -13q-38 151 -137 235.5t-254 84.5q-121 0 -213.5 -47.5t-148 -130
t-83.5 -187t-28 -225.5q0 -96 17 -181.5t54.5 -160t92 -128.5t134 -85t175.5 -31q184 0 291 118t120 306h-411v172h581v-735zM563 -389l129 266h191l-185 -266h-135z" />
    <glyph glyph-name="uni0123" unicode="&#x123;" horiz-adv-x="1222" 
d="M575 57q-211 0 -345 147.5t-134 379.5t133 379t344 147q111 0 198 -53.5t124 -143.5v172h164v-979q0 -210 -130.5 -324t-348.5 -114q-172 0 -294 86t-159 230l180 12q33 -78 103 -121t170 -43q144 0 225.5 61t81.5 175v178q-40 -86 -124.5 -137.5t-187.5 -51.5zM276 584
q0 -167 83.5 -265t226.5 -98q137 0 219.5 98t83.5 265q3 167 -79.5 264.5t-223.5 97.5q-143 0 -226.5 -97.5t-83.5 -264.5zM489 1503l117 316h101l-80 -316h84v-223h-219v223h-3z" />
    <glyph glyph-name="Hcircumflex" unicode="&#x124;" horiz-adv-x="1439" 
d="M188 0v1454h177v-637h710v637h176v-1454h-176v645h-710v-645h-177zM438 1616l176 246h209l178 -246h-155l-125 174l-125 -174h-158z" />
    <glyph glyph-name="hcircumflex" unicode="&#x125;" horiz-adv-x="1189" 
d="M164 1454h172v-516q44 86 130 129t193 43q169 0 268 -111.5t99 -300.5v-698h-172v637q0 309 -231 309q-132 0 -209.5 -80.5t-77.5 -228.5v-637h-172v1454zM-31 1616l176 246h209l178 -246h-155l-125 174l-125 -174h-158z" />
    <glyph glyph-name="Hbar" unicode="&#x126;" horiz-adv-x="1777" 
d="M319 1454h177v-199h786v199h176v-199h131v-172h-131v-1083h-176v655h-786v-655h-177v1083h-131v172h131v199zM496 827h786v256h-786v-256z" />
    <glyph glyph-name="hbar" unicode="&#x127;" horiz-adv-x="1241" 
d="M236 1454h172v-106h235v-152h-235v-258q44 86 130 129t193 43q169 0 268 -111.5t99 -300.5v-698h-172v637q0 309 -232 309q-132 0 -209 -80.5t-77 -228.5v-637h-172v1196h-113v152h113v106z" />
    <glyph glyph-name="Itilde" unicode="&#x128;" horiz-adv-x="552" 
d="M188 1454h177v-1454h-177v1454zM-66 1618q0 121 55 192.5t148 71.5q90 0 150 -57q8 -8 28 -28.5t29.5 -29t28.5 -17.5t39 -9q82 0 82 139h127q0 -120 -55 -193t-146 -73q-59 0 -96 19.5t-68 52.5q-6 5 -19.5 19t-20.5 20t-19 14.5t-24.5 12t-27.5 3.5q-84 0 -84 -137
h-127z" />
    <glyph glyph-name="itilde" unicode="&#x129;" horiz-adv-x="499" 
d="M164 1085h172v-1085h-172v1085zM-92 1249q0 121 55 192.5t148 71.5q89 0 149 -57q8 -8 28 -28.5t29.5 -29t28.5 -17.5t39 -9q82 0 82 139h127q0 -120 -55 -193t-146 -73q-59 0 -96 19.5t-68 52.5l-19.5 19.5t-20.5 19.5t-18.5 14.5t-24 12t-27.5 3.5q-84 0 -84 -137h-127
z" />
    <glyph glyph-name="Imacron" unicode="&#x12a;" horiz-adv-x="552" 
d="M188 1454h177v-1454h-177v1454zM14 1649v127h523v-127h-523z" />
    <glyph glyph-name="imacron" unicode="&#x12b;" horiz-adv-x="499" 
d="M164 1085h172v-1085h-172v1085zM-12 1280v127h522v-127h-522z" />
    <glyph glyph-name="Iogonek" unicode="&#x12e;" horiz-adv-x="552" 
d="M188 1454h177v-1454h2l-64 -92q-61 -86 -61 -131q0 -31 18.5 -51.5t48.5 -20.5q16 0 34.5 5.5t52 19.5t42.5 18v-131q-72 -55 -155 -55q-76 0 -130.5 49t-54.5 123q0 100 74 180l78 86h-62v1454z" />
    <glyph glyph-name="iogonek" unicode="&#x12f;" horiz-adv-x="499" 
d="M164 1085h172v-1085h2l-64 -92q-61 -86 -61 -131q0 -31 19 -51.5t49 -20.5q16 0 34.5 5.5t52 19.5t42.5 18v-131q-72 -55 -156 -55q-76 0 -130 49t-54 123q0 101 73 180l78 86h-57v1085zM160 1255v197h180v-197h-180z" />
    <glyph glyph-name="Idotaccent" unicode="&#x130;" horiz-adv-x="552" 
d="M188 1454h177v-1454h-177v1454zM186 1624v197h181v-197h-181z" />
    <glyph glyph-name="dotlessi" unicode="&#x131;" horiz-adv-x="499" 
d="M164 1085h172v-1085h-172v1085z" />
    <glyph glyph-name="IJ" unicode="&#x132;" horiz-adv-x="1609" 
d="M188 1454h177v-1454h-177v1454zM524 471l181 16q1 -167 74.5 -257.5t207.5 -90.5q138 0 213.5 96t75.5 273v946h176v-946q0 -249 -125.5 -395t-339.5 -146q-202 0 -331.5 141.5t-131.5 362.5z" />
    <glyph glyph-name="ij" unicode="&#x133;" horiz-adv-x="1011" 
d="M164 1085h172v-1085h-172v1085zM160 1255v197h180v-197h-180zM469 -307v151h84q57 0 90 40.5t33 109.5v1091h172v-1091q0 -141 -70.5 -221t-204.5 -80h-104zM672 1255v197h180v-197h-180z" />
    <glyph glyph-name="Jcircumflex" unicode="&#x134;" horiz-adv-x="1222" 
d="M317 487q1 -167 75 -257.5t208 -90.5q138 0 213.5 96t75.5 273v946h176v-946q0 -249 -125.5 -395t-339.5 -146q-202 0 -331.5 141.5t-131.5 362.5zM696 1616l176 246h209l179 -246h-156l-125 174l-125 -174h-158z" />
    <glyph glyph-name="jcircumflex" unicode="&#x135;" horiz-adv-x="532" 
d="M369 -6q0 -141 -70.5 -221t-204.5 -80h-104v151h84q57 0 90 40.5t33 109.5v1091h172v-1091zM0 1247l176 246h209l178 -246h-155l-125 174l-125 -174h-158z" />
    <glyph glyph-name="uni0136" unicode="&#x136;" horiz-adv-x="1335" 
d="M188 1454h177v-723l653 723h223l-569 -631l608 -823h-215l-512 692l-188 -207v-485h-177v1454zM516 -389l129 266h191l-185 -266h-135z" />
    <glyph glyph-name="uni0137" unicode="&#x137;" horiz-adv-x="1208" 
d="M164 1454h172v-952l520 583h236l-426 -460l446 -625h-211l-354 506l-211 -227v-279h-172v1454zM416 -389l129 266h190l-184 -266h-135z" />
    <glyph glyph-name="Lacute" unicode="&#x139;" horiz-adv-x="1187" 
d="M188 0v1454h177v-1282h727v-172h-904zM205 1616l129 266h190l-184 -266h-135z" />
    <glyph glyph-name="lacute" unicode="&#x13a;" horiz-adv-x="579" 
d="M164 1454h172v-1235q0 -67 67 -67h95v-152h-121q-95 0 -154 58.5t-59 152.5v1243zM176 1616l129 266h191l-185 -266h-135z" />
    <glyph glyph-name="uni013B" unicode="&#x13b;" horiz-adv-x="1187" 
d="M188 0v1454h177v-1282h727v-172h-904zM444 -389l129 266h191l-184 -266h-136z" />
    <glyph glyph-name="uni013C" unicode="&#x13c;" horiz-adv-x="579" 
d="M164 1454h172v-1235q0 -67 67 -67h95v-152h-121q-95 0 -154 58.5t-59 152.5v1243zM143 -389l129 266h191l-184 -266h-136z" />
    <glyph glyph-name="Lcaron" unicode="&#x13d;" horiz-adv-x="1187" 
d="M188 0v1454h177v-1282h727v-172h-904zM539 1233v223h219v-223h2l-117 -315h-100l80 315h-84z" />
    <glyph glyph-name="lcaron" unicode="&#x13e;" horiz-adv-x="739" 
d="M164 1454h172v-1235q0 -67 67 -67h95v-152h-121q-95 0 -154 58.5t-59 152.5v1243zM436 1233v223h219v-223h2l-116 -315h-101l80 315h-84z" />
    <glyph glyph-name="Lslash" unicode="&#x141;" horiz-adv-x="1259" 
d="M45 760l215 100v594h176v-512l240 113l76 -156l-316 -147v-580h727v-172h-903v670l-141 -66z" />
    <glyph glyph-name="lslash" unicode="&#x142;" horiz-adv-x="772" 
d="M326 1454h172v-541l129 60l63 -137l-192 -88v-529q0 -67 67 -67h94v-152h-120q-95 0 -154 58.5t-59 152.5v457l-97 -45l-65 139l162 74v618z" />
    <glyph glyph-name="Nacute" unicode="&#x143;" horiz-adv-x="1511" 
d="M188 1454h246l713 -1245v1245h176v-1454h-256l-702 1225v-1225h-177v1454zM684 1616l129 266h191l-185 -266h-135z" />
    <glyph glyph-name="nacute" unicode="&#x144;" horiz-adv-x="1189" 
d="M164 1085h158l4 -188q40 107 128 160t205 53q178 0 272.5 -115.5t94.5 -296.5v-698h-172v649q0 154 -55.5 231.5t-175.5 77.5q-132 0 -209.5 -80.5t-77.5 -228.5v-649h-172v1085zM522 1247l129 266h191l-185 -266h-135z" />
    <glyph glyph-name="uni0145" unicode="&#x145;" horiz-adv-x="1511" 
d="M188 1454h246l713 -1245v1245h176v-1454h-256l-702 1225v-1225h-177v1454zM559 -389l129 266h191l-185 -266h-135z" />
    <glyph glyph-name="uni0146" unicode="&#x146;" horiz-adv-x="1189" 
d="M164 1085h158l4 -188q40 107 128 160t205 53q178 0 272.5 -115.5t94.5 -296.5v-698h-172v649q0 154 -55.5 231.5t-175.5 77.5q-132 0 -209.5 -80.5t-77.5 -228.5v-649h-172v1085zM399 -389l129 266h191l-184 -266h-136z" />
    <glyph glyph-name="Ncaron" unicode="&#x147;" horiz-adv-x="1511" 
d="M188 1454h246l713 -1245v1245h176v-1454h-256l-702 1225v-1225h-177v1454zM469 1862h158l125 -174l125 174h155l-178 -246h-209z" />
    <glyph glyph-name="ncaron" unicode="&#x148;" horiz-adv-x="1189" 
d="M164 1085h158l4 -188q40 107 128 160t205 53q178 0 272.5 -115.5t94.5 -296.5v-698h-172v649q0 154 -55.5 231.5t-175.5 77.5q-132 0 -209.5 -80.5t-77.5 -228.5v-649h-172v1085zM307 1493h158l125 -174l125 174h155l-178 -246h-209z" />
    <glyph glyph-name="Eng" unicode="&#x14a;" horiz-adv-x="1511" 
d="M188 1454h240l719 -1128v1128h176v-1468q0 -134 -83 -213.5t-224 -79.5h-211v172h211q131 0 131 119v16l-782 1225v-1225h-177v1454z" />
    <glyph glyph-name="eng" unicode="&#x14b;" horiz-adv-x="1189" 
d="M164 1085h158l4 -188q40 107 128 160t205 53q178 0 272.5 -115.5t94.5 -296.5v-712q0 -134 -83 -213.5t-224 -79.5h-166v151h170q60 0 95.5 38.5t35.5 101.5v665q0 154 -55.5 231.5t-175.5 77.5q-132 0 -209.5 -80.5t-77.5 -228.5v-649h-172v1085z" />
    <glyph glyph-name="Omacron" unicode="&#x14c;" horiz-adv-x="1529" 
d="M764 -33q-310 0 -487 203t-177 555q0 355 177 558.5t487 203.5q312 0 489 -203.5t177 -558.5q0 -353 -177.5 -555.5t-488.5 -202.5zM285 725q0 -272 127.5 -429t351.5 -157q225 0 353 157t128 429q0 276 -128 433t-353 157q-224 0 -351.5 -157.5t-127.5 -432.5zM504 1649
v127h522v-127h-522z" />
    <glyph glyph-name="omacron" unicode="&#x14d;" horiz-adv-x="1185" 
d="M594 -25q-226 0 -362 154.5t-136 413.5t136 413t362 154q225 0 360.5 -154t135.5 -413t-135.5 -413.5t-360.5 -154.5zM276 543q0 -190 84 -297t234 -107q149 0 232 107t83 297q0 189 -83 296t-232 107q-150 0 -234 -107t-84 -296zM332 1280v127h522v-127h-522z" />
    <glyph glyph-name="Ohungarumlaut" unicode="&#x150;" horiz-adv-x="1529" 
d="M764 -33q-310 0 -487 203t-177 555q0 355 177 558.5t487 203.5q312 0 489 -203.5t177 -558.5q0 -353 -177.5 -555.5t-488.5 -202.5zM285 725q0 -272 127.5 -429t351.5 -157q225 0 353 157t128 429q0 276 -128 433t-353 157q-224 0 -351.5 -157.5t-127.5 -432.5zM584 1616
l129 266h190l-184 -266h-135zM831 1616l130 266h190l-184 -266h-136z" />
    <glyph glyph-name="ohungarumlaut" unicode="&#x151;" horiz-adv-x="1185" 
d="M594 -25q-226 0 -362 154.5t-136 413.5t136 413t362 154q225 0 360.5 -154t135.5 -413t-135.5 -413.5t-360.5 -154.5zM276 543q0 -190 84 -297t234 -107q149 0 232 107t83 297q0 189 -83 296t-232 107q-150 0 -234 -107t-84 -296zM412 1247l129 266h190l-184 -266h-135z
M659 1247l129 266h191l-184 -266h-136z" />
    <glyph glyph-name="OE" unicode="&#x152;" horiz-adv-x="2224" 
d="M758 -33q-153 0 -278.5 59t-208 162t-127 240.5t-44.5 296.5q0 160 44.5 298t126.5 241.5t207.5 163t279.5 59.5q310 0 481 -227v194h852v-172h-676v-469h651v-168h-651v-473h692v-172h-868v195q-82 -109 -203.5 -168.5t-277.5 -59.5zM285 725q0 -121 30 -226.5
t87.5 -186t149 -127t206.5 -46.5q116 0 207.5 46.5t149.5 127t88 186t30 226.5q0 123 -30 228.5t-87.5 187t-149.5 128t-208 46.5t-207.5 -46.5t-148.5 -128t-87 -187t-30 -228.5z" />
    <glyph glyph-name="oe" unicode="&#x153;" horiz-adv-x="1974" 
d="M594 -25q-226 0 -362 154.5t-136 413.5t136 413t362 154q132 0 236 -55.5t169 -159.5q65 103 170 159t238 56q93 0 173 -31.5t145 -95t105 -170t46 -246.5l2 -78h-786q12 -166 94 -258t221 -92q87 0 160.5 49t109.5 134l185 -15q-47 -152 -172.5 -242t-282.5 -90
q-133 0 -238 56t-170 159q-65 -104 -169 -159.5t-236 -55.5zM276 543q0 -190 84 -297t234 -107q149 0 232 107t83 297q0 189 -83 296t-232 107q-150 0 -234 -107t-84 -296zM1096 641h594q-20 159 -97.5 232t-185.5 73q-128 0 -208.5 -79.5t-102.5 -225.5z" />
    <glyph glyph-name="Racute" unicode="&#x154;" horiz-adv-x="1376" 
d="M739 1454q229 0 362.5 -118.5t133.5 -321.5q0 -122 -72 -214.5t-174 -121.5q106 -17 157.5 -76t61.5 -174l41 -428h-178l-37 410q-9 98 -80 137t-233 39h-356v-586h-177v1454h551zM365 758h374q150 0 231 67t81 193t-81 195t-231 69h-374v-524zM616 1616l129 266h191
l-184 -266h-136z" />
    <glyph glyph-name="racute" unicode="&#x155;" horiz-adv-x="782" 
d="M164 1085h151l7 -198q28 102 90.5 150t167.5 48h106v-151h-106q-244 0 -244 -287v-647h-172v1085zM330 1247l129 266h190l-184 -266h-135z" />
    <glyph glyph-name="uni0156" unicode="&#x156;" horiz-adv-x="1376" 
d="M739 1454q229 0 362.5 -118.5t133.5 -321.5q0 -122 -72 -214.5t-174 -121.5q106 -17 157.5 -76t61.5 -174l41 -428h-178l-37 410q-9 98 -80 137t-233 39h-356v-586h-177v1454h551zM365 758h374q150 0 231 67t81 193t-81 195t-231 69h-374v-524zM520 -389l129 266h191
l-185 -266h-135z" />
    <glyph glyph-name="uni0157" unicode="&#x157;" horiz-adv-x="782" 
d="M164 1085h151l7 -198q28 102 90.5 150t167.5 48h106v-151h-106q-244 0 -244 -287v-647h-172v1085zM55 -389l129 266h191l-185 -266h-135z" />
    <glyph glyph-name="Rcaron" unicode="&#x158;" horiz-adv-x="1376" 
d="M739 1454q229 0 362.5 -118.5t133.5 -321.5q0 -122 -72 -214.5t-174 -121.5q106 -17 157.5 -76t61.5 -174l41 -428h-178l-37 410q-9 98 -80 137t-233 39h-356v-586h-177v1454h551zM365 758h374q150 0 231 67t81 193t-81 195t-231 69h-374v-524zM401 1862h158l125 -174
l125 174h156l-179 -246h-208z" />
    <glyph glyph-name="rcaron" unicode="&#x159;" horiz-adv-x="782" 
d="M164 1085h151l7 -198q28 102 90.5 150t167.5 48h106v-151h-106q-244 0 -244 -287v-647h-172v1085zM115 1493h157l125 -174l125 174h156l-178 -246h-209z" />
    <glyph glyph-name="Sacute" unicode="&#x15a;" horiz-adv-x="1327" 
d="M305 477q29 -152 133.5 -241t272.5 -89q143 0 227 57t84 163q0 109 -99 182t-319 129q-452 112 -452 409q0 183 131.5 291.5t343.5 108.5q229 0 377 -129t172 -334l-185 -12q-20 138 -118.5 220.5t-247.5 82.5q-126 0 -207.5 -62.5t-81.5 -165.5q0 -48 22 -87.5t56 -65.5
t85 -48.5t98 -37t107 -30.5q18 -5 27 -7q104 -29 186.5 -67.5t149 -90t103 -120t36.5 -148.5q0 -130 -73.5 -225t-187 -140t-249.5 -45q-238 0 -397 134.5t-178 355.5zM604 1616l129 266h191l-185 -266h-135z" />
    <glyph glyph-name="sacute" unicode="&#x15b;" horiz-adv-x="1085" 
d="M788 750q-18 89 -94.5 142.5t-171.5 53.5q-94 0 -156.5 -45t-62.5 -121q0 -38 22.5 -68t64 -50t81.5 -32.5t92 -23.5q81 -15 139.5 -31.5t115.5 -43t92.5 -60t57 -83t21.5 -112.5q0 -76 -36.5 -135.5t-98 -94.5t-135.5 -53t-154 -18q-195 0 -326 100.5t-143 266.5l180 12
q17 -100 93 -157.5t196 -57.5q59 0 111 12.5t92.5 47.5t40.5 88q0 27 -8 48.5t-26.5 37.5t-35 26.5t-48 20.5t-50 14.5t-56.5 12.5t-53 12q-51 12 -86 20.5t-81.5 24t-77.5 31t-65 39.5t-53.5 51.5t-32.5 65t-13 81.5q0 154 114.5 246t303.5 92q163 0 282.5 -95.5
t145.5 -252.5zM469 1247l129 266h190l-184 -266h-135z" />
    <glyph glyph-name="Scircumflex" unicode="&#x15c;" horiz-adv-x="1327" 
d="M305 477q29 -152 133.5 -241t272.5 -89q143 0 227 57t84 163q0 109 -99 182t-319 129q-452 112 -452 409q0 183 131.5 291.5t343.5 108.5q229 0 377 -129t172 -334l-185 -12q-20 138 -118.5 220.5t-247.5 82.5q-126 0 -207.5 -62.5t-81.5 -165.5q0 -48 22 -87.5t56 -65.5
t85 -48.5t98 -37t107 -30.5q18 -5 27 -7q104 -29 186.5 -67.5t149 -90t103 -120t36.5 -148.5q0 -130 -73.5 -225t-187 -140t-249.5 -45q-238 0 -397 134.5t-178 355.5zM395 1616l176 246h209l178 -246h-155l-125 174l-125 -174h-158z" />
    <glyph glyph-name="scircumflex" unicode="&#x15d;" horiz-adv-x="1085" 
d="M788 750q-18 89 -94.5 142.5t-171.5 53.5q-94 0 -156.5 -45t-62.5 -121q0 -38 22.5 -68t64 -50t81.5 -32.5t92 -23.5q81 -15 139.5 -31.5t115.5 -43t92.5 -60t57 -83t21.5 -112.5q0 -76 -36.5 -135.5t-98 -94.5t-135.5 -53t-154 -18q-195 0 -326 100.5t-143 266.5l180 12
q17 -100 93 -157.5t196 -57.5q59 0 111 12.5t92.5 47.5t40.5 88q0 27 -8 48.5t-26.5 37.5t-35 26.5t-48 20.5t-50 14.5t-56.5 12.5t-53 12q-51 12 -86 20.5t-81.5 24t-77.5 31t-65 39.5t-53.5 51.5t-32.5 65t-13 81.5q0 154 114.5 246t303.5 92q163 0 282.5 -95.5
t145.5 -252.5zM260 1247l176 246h209l178 -246h-155l-125 174l-125 -174h-158z" />
    <glyph glyph-name="Scedilla" unicode="&#x15e;" horiz-adv-x="1327" 
d="M305 477q29 -152 133.5 -241t272.5 -89q143 0 227 57t84 163q0 109 -99 182t-319 129q-452 112 -452 409q0 183 131.5 291.5t343.5 108.5q229 0 377 -129t172 -334l-185 -12q-20 138 -118.5 220.5t-247.5 82.5q-126 0 -207.5 -62.5t-81.5 -165.5q0 -48 22 -87.5t56 -65.5
t85 -48.5t98 -37t107 -30.5q18 -5 27 -7q104 -29 186.5 -67.5t149 -90t103 -120t36.5 -148.5q0 -127 -70.5 -221t-180 -140t-242.5 -49l-47 -51q88 0 143 -51t55 -133q0 -80 -57.5 -135.5t-140.5 -55.5q-70 0 -124.5 32.5t-117.5 105.5l84 77q1 -2 12 -15t15 -17.5t15 -16.5
t18 -17.5t19 -14t22 -12.5t22.5 -7.5t25.5 -3.5q43 0 69 24t26 64q0 49 -45 71t-111 7l-57 76l71 78q-206 25 -339 155.5t-150 329.5z" />
    <glyph glyph-name="scedilla" unicode="&#x15f;" horiz-adv-x="1085" 
d="M788 750q-18 89 -94.5 142.5t-171.5 53.5q-94 0 -156.5 -45t-62.5 -121q0 -38 22.5 -68t64 -50t81.5 -32.5t92 -23.5q81 -15 139.5 -31.5t115.5 -43t92.5 -60t57 -83t21.5 -112.5q0 -74 -34.5 -132t-93 -93.5t-129 -54.5t-148.5 -21l-47 -51q88 0 143 -51t55 -133
q0 -80 -57.5 -135.5t-140.5 -55.5q-70 0 -124.5 32.5t-117.5 105.5l84 77q1 -2 12 -15t15 -17.5t15 -16.5t18 -17.5t19 -14t22 -12.5t22.5 -7.5t25.5 -3.5q43 0 69 24t26 64q0 49 -45 71t-111 7l-57 76l71 80q-163 21 -269 116.5t-116 243.5l180 12q17 -100 93 -157.5
t196 -57.5q59 0 111 12.5t92.5 47.5t40.5 88q0 27 -8 48.5t-26.5 37.5t-35 26.5t-48 20.5t-50 14.5t-56.5 12.5t-53 12q-51 12 -86 20.5t-81.5 24t-77.5 31t-65 39.5t-53.5 51.5t-32.5 65t-13 81.5q0 154 114.5 246t303.5 92q163 0 282.5 -95.5t145.5 -252.5z" />
    <glyph glyph-name="Scaron" unicode="&#x160;" horiz-adv-x="1327" 
d="M305 477q29 -152 133.5 -241t272.5 -89q143 0 227 57t84 163q0 109 -99 182t-319 129q-452 112 -452 409q0 183 131.5 291.5t343.5 108.5q229 0 377 -129t172 -334l-185 -12q-20 138 -118.5 220.5t-247.5 82.5q-126 0 -207.5 -62.5t-81.5 -165.5q0 -48 22 -87.5t56 -65.5
t85 -48.5t98 -37t107 -30.5q18 -5 27 -7q104 -29 186.5 -67.5t149 -90t103 -120t36.5 -148.5q0 -130 -73.5 -225t-187 -140t-249.5 -45q-238 0 -397 134.5t-178 355.5zM389 1862h158l125 -174l125 174h155l-178 -246h-209z" />
    <glyph glyph-name="scaron" unicode="&#x161;" horiz-adv-x="1085" 
d="M788 750q-18 89 -94.5 142.5t-171.5 53.5q-94 0 -156.5 -45t-62.5 -121q0 -38 22.5 -68t64 -50t81.5 -32.5t92 -23.5q81 -15 139.5 -31.5t115.5 -43t92.5 -60t57 -83t21.5 -112.5q0 -76 -36.5 -135.5t-98 -94.5t-135.5 -53t-154 -18q-195 0 -326 100.5t-143 266.5l180 12
q17 -100 93 -157.5t196 -57.5q59 0 111 12.5t92.5 47.5t40.5 88q0 27 -8 48.5t-26.5 37.5t-35 26.5t-48 20.5t-50 14.5t-56.5 12.5t-53 12q-51 12 -86 20.5t-81.5 24t-77.5 31t-65 39.5t-53.5 51.5t-32.5 65t-13 81.5q0 154 114.5 246t303.5 92q163 0 282.5 -95.5
t145.5 -252.5zM254 1493h158l125 -174l125 174h155l-178 -246h-209z" />
    <glyph glyph-name="uni0162" unicode="&#x162;" horiz-adv-x="1183" 
d="M1133 1454v-172h-453v-1282h-31l-69 -76q88 0 143 -51t55 -133q0 -80 -57.5 -135.5t-140.5 -55.5q-70 0 -124.5 32.5t-117.5 105.5l84 77q1 -2 12 -15t15 -17.5t15 -16.5t18 -17.5t19 -14t22 -12.5t22.5 -7.5t25.5 -3.5q43 0 69 24t26 64q0 49 -45 71t-111 7l-57 76
l90 98h-39v1282h-453v172h1082z" />
    <glyph glyph-name="uni0163" unicode="&#x163;" horiz-adv-x="811" 
d="M272 1331h172v-246h289v-151h-289v-645q0 -137 129 -137h156v-152h-156q-24 0 -36 2l-70 -78q88 0 143.5 -51t55.5 -133q0 -80 -58 -135.5t-141 -55.5q-70 0 -124.5 32.5t-117.5 105.5l84 77q1 -2 10.5 -13t13 -15t13.5 -15t15.5 -16t16 -13.5t19 -13t19 -9.5t21.5 -7
t22 -2q43 0 68.5 24t25.5 64q0 49 -45 71t-111 7l-57 76l106 116q-85 28 -129.5 97.5t-44.5 173.5v645h-159v151h159v246z" />
    <glyph glyph-name="Tcaron" unicode="&#x164;" horiz-adv-x="1183" 
d="M1133 1454v-172h-453v-1282h-176v1282h-453v172h1082zM303 1862h158l125 -174l125 174h155l-178 -246h-209z" />
    <glyph glyph-name="tcaron" unicode="&#x165;" horiz-adv-x="811" 
d="M272 1331h172v-246h289v-151h-289v-645q0 -137 129 -137h156v-152h-156q-146 0 -223.5 75t-77.5 214v645h-159v151h159v246zM526 1362v223h219v-223l-114 -191h-101l78 191h-82z" />
    <glyph glyph-name="Tbar" unicode="&#x166;" horiz-adv-x="1183" 
d="M1133 1454v-172h-453v-494h274v-151h-274v-637h-176v637h-273v151h273v494h-453v172h1082z" />
    <glyph glyph-name="tbar" unicode="&#x167;" horiz-adv-x="808" 
d="M272 1331h172v-246h289v-151h-289v-281h289v-151h-289v-213q0 -137 129 -137h156v-152h-156q-146 0 -223.5 75t-77.5 214v213h-159v151h159v281h-159v151h159v246z" />
    <glyph glyph-name="Utilde" unicode="&#x168;" horiz-adv-x="1411" 
d="M1253 508q0 -249 -147 -395t-399 -146q-253 0 -401 146t-148 395v948h176v-948q0 -177 97 -273t276 -96q177 0 273.5 96t96.5 273v948h176v-948zM362 1618q0 121 55 192.5t148 71.5q90 0 150 -57q8 -8 28 -28.5t29.5 -29t28.5 -17.5t39 -9q82 0 82 139h127
q0 -120 -55 -193t-146 -73q-59 0 -96 19.5t-68 52.5q-6 5 -19.5 19t-20.5 20t-19 14.5t-24.5 12t-27.5 3.5q-84 0 -84 -137h-127z" />
    <glyph glyph-name="utilde" unicode="&#x169;" horiz-adv-x="1177" 
d="M1014 0h-164v180q-41 -102 -127.5 -153.5t-198.5 -51.5q-174 0 -267 115.5t-93 296.5v698h172v-647q0 -155 54.5 -233t170.5 -78q129 0 205 81t76 230v647h172v-1085zM238 1249q0 121 55 192.5t147 71.5q90 0 150 -57q8 -8 28 -28.5t29.5 -29t28.5 -17.5t39 -9
q82 0 82 139h127q0 -120 -55 -193t-146 -73q-59 0 -96 19.5t-68 52.5l-19.5 19.5t-20.5 19.5t-18.5 14.5t-24 12t-27.5 3.5q-84 0 -84 -137h-127z" />
    <glyph glyph-name="Umacron" unicode="&#x16a;" horiz-adv-x="1411" 
d="M1253 508q0 -249 -147 -395t-399 -146q-253 0 -401 146t-148 395v948h176v-948q0 -177 97 -273t276 -96q177 0 273.5 96t96.5 273v948h176v-948zM444 1649v127h523v-127h-523z" />
    <glyph glyph-name="umacron" unicode="&#x16b;" horiz-adv-x="1177" 
d="M1014 0h-164v180q-41 -102 -127.5 -153.5t-198.5 -51.5q-174 0 -267 115.5t-93 296.5v698h172v-647q0 -155 54.5 -233t170.5 -78q129 0 205 81t76 230v647h172v-1085zM319 1280v127h523v-127h-523z" />
    <glyph glyph-name="Ubreve" unicode="&#x16c;" horiz-adv-x="1411" 
d="M1253 508q0 -249 -147 -395t-399 -146q-253 0 -401 146t-148 395v948h176v-948q0 -177 97 -273t276 -96q177 0 273.5 96t96.5 273v948h176v-948zM416 1880h133q0 -57 45.5 -96t112.5 -39q66 0 110.5 39t44.5 96h133q0 -110 -83.5 -186t-204.5 -76q-123 0 -207 76t-84 186
z" />
    <glyph glyph-name="ubreve" unicode="&#x16d;" horiz-adv-x="1177" 
d="M1014 0h-164v180q-41 -102 -127.5 -153.5t-198.5 -51.5q-174 0 -267 115.5t-93 296.5v698h172v-647q0 -155 54.5 -233t170.5 -78q129 0 205 81t76 230v647h172v-1085zM291 1511h133q0 -57 45.5 -96t112.5 -39q66 0 110.5 39t44.5 96h133q0 -110 -83.5 -186t-204.5 -76
q-123 0 -207 76t-84 186z" />
    <glyph glyph-name="Uring" unicode="&#x16e;" horiz-adv-x="1411" 
d="M1253 508q0 -249 -147 -395t-399 -146q-253 0 -401 146t-148 395v948h176v-948q0 -177 97 -273t276 -96q177 0 273.5 96t96.5 273v948h176v-948zM514 1757q0 78 56.5 134.5t134.5 56.5t133 -56.5t55 -134.5q0 -81 -54.5 -134.5t-133.5 -53.5t-135 53.5t-56 134.5z
M627 1759q0 -31 23 -54.5t55 -23.5q30 0 52.5 23.5t22.5 54.5q0 30 -22.5 53t-52.5 23q-32 0 -55 -23t-23 -53z" />
    <glyph glyph-name="uring" unicode="&#x16f;" horiz-adv-x="1177" 
d="M1014 0h-164v180q-41 -102 -127.5 -153.5t-198.5 -51.5q-174 0 -267 115.5t-93 296.5v698h172v-647q0 -155 54.5 -233t170.5 -78q129 0 205 81t76 230v647h172v-1085zM391 1389q0 78 56.5 134t134.5 56t133 -56t55 -134q0 -81 -54.5 -135t-133.5 -54t-135 54t-56 135z
M504 1391q0 -31 23 -54.5t55 -23.5q30 0 52.5 23.5t22.5 54.5q0 30 -22.5 52.5t-52.5 22.5q-32 0 -55 -22.5t-23 -52.5z" />
    <glyph glyph-name="Uhungarumlaut" unicode="&#x170;" horiz-adv-x="1411" 
d="M1253 508q0 -249 -147 -395t-399 -146q-253 0 -401 146t-148 395v948h176v-948q0 -177 97 -273t276 -96q177 0 273.5 96t96.5 273v948h176v-948zM524 1616l129 266h191l-185 -266h-135zM772 1616l129 266h191l-185 -266h-135z" />
    <glyph glyph-name="uhungarumlaut" unicode="&#x171;" horiz-adv-x="1177" 
d="M1014 0h-164v180q-41 -102 -127.5 -153.5t-198.5 -51.5q-174 0 -267 115.5t-93 296.5v698h172v-647q0 -155 54.5 -233t170.5 -78q129 0 205 81t76 230v647h172v-1085zM399 1247l129 266h191l-184 -266h-136zM647 1247l129 266h191l-185 -266h-135z" />
    <glyph glyph-name="Uogonek" unicode="&#x172;" horiz-adv-x="1411" 
d="M1253 508q0 -192 -90.5 -325.5t-253.5 -186.5l-61 -88q-62 -88 -62 -131q0 -31 19 -51.5t49 -20.5q16 0 34.5 5.5t52 19.5t42.5 18v-131q-72 -55 -156 -55q-76 0 -130 49t-54 123q0 100 74 180l51 55q-20 -2 -61 -2q-253 0 -401 146t-148 395v948h176v-948
q0 -177 97 -273t276 -96q177 0 273.5 96t96.5 273v948h176v-948z" />
    <glyph glyph-name="uogonek" unicode="&#x173;" horiz-adv-x="1177" 
d="M1014 0h2l-64 -92q-61 -86 -61 -131q0 -31 18.5 -51.5t48.5 -20.5q16 0 34.5 5.5t52 19.5t42.5 18v-131q-72 -55 -155 -55q-76 0 -130 49t-54 123q0 101 73 180l78 86h-49v180q-41 -102 -127.5 -153.5t-198.5 -51.5q-174 0 -267 115.5t-93 296.5v698h172v-647
q0 -155 54.5 -233t170.5 -78q129 0 205 81t76 230v647h172v-1085z" />
    <glyph glyph-name="Wcircumflex" unicode="&#x174;" horiz-adv-x="1865" 
d="M43 1454h193l299 -1212l296 1212h201l299 -1212l297 1212h195l-383 -1454h-221l-287 1098l-287 -1098h-219zM651 1616l176 246h209l178 -246h-155l-125 174l-125 -174h-158z" />
    <glyph glyph-name="wcircumflex" unicode="&#x175;" horiz-adv-x="1677" 
d="M930 1085l258 -895l260 895h184l-336 -1085h-217l-241 825l-242 -825h-215l-336 1085h184l258 -895l258 895h185zM559 1247l176 246h209l178 -246h-155l-125 174l-125 -174h-158z" />
    <glyph glyph-name="Ycircumflex" unicode="&#x176;" horiz-adv-x="1290" 
d="M43 1454h209l393 -674l393 674h209l-514 -860v-594h-176v594zM365 1616l176 246h209l178 -246h-156l-125 174l-125 -174h-157z" />
    <glyph glyph-name="ycircumflex" unicode="&#x177;" horiz-adv-x="1099" 
d="M45 1085h184l326 -901l317 901h183l-441 -1222q-31 -87 -89.5 -128.5t-151.5 -41.5h-142v151h125q76 0 105 76l39 100h-58zM268 1247l176 246h209l178 -246h-155l-125 174l-125 -174h-158z" />
    <glyph glyph-name="Ydieresis" unicode="&#x178;" horiz-adv-x="1290" 
d="M43 1454h209l393 -674l393 674h209l-514 -860v-594h-176v594zM403 1624v197h181v-197h-181zM717 1624v197h180v-197h-180z" />
    <glyph glyph-name="Zacute" unicode="&#x179;" horiz-adv-x="1110" 
d="M1038 1278l-784 -1106h801v-172h-1000v182l779 1100h-744v172h948v-176zM498 1616l129 266h190l-184 -266h-135z" />
    <glyph glyph-name="zacute" unicode="&#x17a;" horiz-adv-x="1126" 
d="M991 895l-688 -743h705v-152h-891v186l690 748h-670v151h854v-190zM492 1247l129 266h190l-184 -266h-135z" />
    <glyph glyph-name="Zdotaccent" unicode="&#x17b;" horiz-adv-x="1110" 
d="M1038 1278l-784 -1106h801v-172h-1000v182l779 1100h-744v172h948v-176zM479 1624v197h180v-197h-180z" />
    <glyph glyph-name="zdotaccent" unicode="&#x17c;" horiz-adv-x="1126" 
d="M991 895l-688 -743h705v-152h-891v186l690 748h-670v151h854v-190zM475 1255v197h180v-197h-180z" />
    <glyph glyph-name="Zcaron" unicode="&#x17d;" horiz-adv-x="1110" 
d="M1038 1278l-784 -1106h801v-172h-1000v182l779 1100h-744v172h948v-176zM283 1862h157l125 -174l125 174h156l-178 -246h-209z" />
    <glyph glyph-name="zcaron" unicode="&#x17e;" horiz-adv-x="1126" 
d="M991 895l-688 -743h705v-152h-891v186l690 748h-670v151h854v-190zM276 1493h158l125 -174l125 174h156l-178 -246h-209z" />
    <glyph glyph-name="uni018F" unicode="&#x18f;" horiz-adv-x="1476" 
d="M1190 799q-9 145 -73.5 263.5t-168.5 185.5t-225 67q-131 0 -232 -73t-157 -216l-195 16q63 204 221 324.5t363 120.5q297 0 475 -206.5t178 -553.5q0 -221 -82.5 -394t-231.5 -269.5t-339 -96.5q-97 0 -183.5 25.5t-164 82t-135 140t-94.5 206.5t-44 275l-2 103h1090z
M291 627q29 -234 141.5 -361t290.5 -127q189 0 310 127.5t155 360.5h-897z" />
    <glyph glyph-name="florin" unicode="&#x192;" horiz-adv-x="1052" 
d="M123 0v152h131q115 0 127 112l74 670h-162v151h178l10 95q30 277 307 274l179 -2v-149h-193q-55 0 -87 -29.5t-38 -85.5l-12 -103h330v-151h-346l-74 -662q-31 -280 -309 -274z" />
    <glyph glyph-name="uni01B7" unicode="&#x1b7;" horiz-adv-x="1226" 
d="M102 383q110 -112 241.5 -178t244.5 -66q155 0 253.5 76.5t98.5 196.5q0 126 -97.5 203.5t-252.5 74.5l-111 -2v174l406 420h-781v172h998v-201l-391 -403q182 -19 297.5 -141.5t115.5 -296.5q0 -196 -149.5 -320.5t-386.5 -124.5q-134 0 -264.5 54.5t-221.5 148.5v213z
" />
    <glyph glyph-name="uni01CD" unicode="&#x1cd;" horiz-adv-x="1372" 
d="M43 0l524 1454h238l524 -1454h-192l-146 414h-610l-145 -414h-193zM397 1862h158l125 -174l125 174h156l-179 -246h-209zM440 586h492l-246 714z" />
    <glyph glyph-name="uni01CE" unicode="&#x1ce;" horiz-adv-x="1177" 
d="M115 766q32 159 151.5 251.5t292.5 92.5q209 0 322.5 -118.5t113.5 -336.5v-436q0 -67 66 -67h45v-152h-74q-207 0 -207 168q-38 -82 -127 -137.5t-211 -55.5q-168 0 -279.5 84t-111.5 226q0 65 20.5 115t53 82.5t88.5 58t111.5 40t136.5 29.5l317 64q-3 272 -264 272
q-103 0 -170 -50t-92 -144zM276 285q0 -69 60 -113.5t174 -44.5q139 2 228 99t89 280v14l-256 -45q-13 -2 -40 -7l-60 -10.5t-52.5 -12t-48.5 -16t-37.5 -21.5t-31.5 -30.5t-17.5 -40t-7.5 -52.5zM289 1493h157l125 -174l125 174h156l-178 -246h-209z" />
    <glyph glyph-name="uni01E4" unicode="&#x1e4;" horiz-adv-x="1544" 
d="M758 735h588v-90q0 -92 -17 -192h125v-152h-170q-66 -162 -200 -248t-326 -86q-153 0 -278.5 59t-208 162t-127 240.5t-44.5 296.5q0 160 44.5 298t126.5 241.5t207.5 163t279.5 59.5q225 0 375.5 -126t199.5 -333l-184 -12q-38 138 -138 218.5t-253 80.5
q-121 0 -213.5 -47.5t-148 -130t-83.5 -187t-28 -225.5q0 -96 17 -181.5t54.5 -160t92 -128.5t134 -85t175.5 -31q219 0 332 162h-332v152h397q11 47 14 110h-411v172z" />
    <glyph glyph-name="uni01E5" unicode="&#x1e5;" horiz-adv-x="1296" 
d="M575 57q-211 0 -345 147.5t-134 379.5t133 379t344 147q111 0 198 -53.5t124 -143.5v172h164v-458h115v-152h-115v-369q0 -210 -130.5 -324t-348.5 -114q-172 0 -294 86t-159 230l180 12q33 -78 103 -121t170 -43q144 0 225.5 61t81.5 175v178q-40 -86 -124.5 -137.5
t-187.5 -51.5zM276 584q0 -167 83.5 -265t226.5 -98q114 0 190 67t101 187h-398v152h410q-9 149 -90 234t-213 85q-143 0 -226.5 -97.5t-83.5 -264.5z" />
    <glyph glyph-name="Gcaron" unicode="&#x1e6;" horiz-adv-x="1449" 
d="M1339 0h-129l-16 238q-46 -120 -167.5 -195.5t-268.5 -75.5q-153 0 -278.5 59t-208 162t-127 240.5t-44.5 296.5q0 160 44.5 298t126.5 241.5t207.5 163t279.5 59.5q227 0 377 -129.5t198 -349.5l-184 -13q-38 151 -137 235.5t-254 84.5q-121 0 -213.5 -47.5t-148 -130
t-83.5 -187t-28 -225.5q0 -96 17 -181.5t54.5 -160t92 -128.5t134 -85t175.5 -31q184 0 291 118t120 306h-411v172h581v-735zM471 1862h158l125 -174l125 174h155l-178 -246h-209z" />
    <glyph glyph-name="gcaron" unicode="&#x1e7;" horiz-adv-x="1222" 
d="M575 57q-211 0 -345 147.5t-134 379.5t133 379t344 147q111 0 198 -53.5t124 -143.5v172h164v-979q0 -210 -130.5 -324t-348.5 -114q-172 0 -294 86t-159 230l180 12q33 -78 103 -121t170 -43q144 0 225.5 61t81.5 175v178q-40 -86 -124.5 -137.5t-187.5 -51.5zM276 584
q0 -167 83.5 -265t226.5 -98q137 0 219.5 98t83.5 265q3 167 -79.5 264.5t-223.5 97.5q-143 0 -226.5 -97.5t-83.5 -264.5zM297 1493h158l125 -174l125 174h155l-178 -246h-209z" />
    <glyph glyph-name="uni01E8" unicode="&#x1e8;" horiz-adv-x="1335" 
d="M188 1454h177v-723l653 723h223l-569 -631l608 -823h-215l-512 692l-188 -207v-485h-177v1454zM383 1862h158l125 -174l125 174h155l-178 -246h-209z" />
    <glyph glyph-name="uni01E9" unicode="&#x1e9;" horiz-adv-x="1208" 
d="M164 1454h172v-952l520 583h236l-426 -460l446 -625h-211l-354 506l-211 -227v-279h-172v1454zM-37 1862h158l125 -174l125 174h155l-178 -246h-209z" />
    <glyph glyph-name="uni01EE" unicode="&#x1ee;" 
d="M102 383q110 -112 241.5 -178t244.5 -66q155 0 253.5 76.5t98.5 196.5q0 126 -97.5 203.5t-252.5 74.5l-111 -2v174l406 420h-781v172h998v-201l-391 -403q182 -19 297.5 -141.5t115.5 -296.5q0 -196 -149.5 -320.5t-386.5 -124.5q-134 0 -264.5 54.5t-221.5 148.5v213z
M315 1862h158l125 -174l125 174h156l-179 -246h-208z" />
    <glyph glyph-name="uni01EF" unicode="&#x1ef;" 
d="M102 14q110 -112 241.5 -177.5t244.5 -65.5q155 0 253.5 76t98.5 196q0 126 -97.5 204t-252.5 75l-111 -3v175l406 419h-781v172h998v-200l-391 -404q182 -19 297.5 -141.5t115.5 -296.5q0 -195 -149.5 -319.5t-386.5 -124.5q-134 0 -264.5 54t-221.5 148v213zM315 1493
h158l125 -174l125 174h156l-179 -246h-208z" />
    <glyph glyph-name="uni0218" unicode="&#x218;" horiz-adv-x="1327" 
d="M305 477q29 -152 133.5 -241t272.5 -89q143 0 227 57t84 163q0 109 -99 182t-319 129q-452 112 -452 409q0 183 131.5 291.5t343.5 108.5q229 0 377 -129t172 -334l-185 -12q-20 138 -118.5 220.5t-247.5 82.5q-126 0 -207.5 -62.5t-81.5 -165.5q0 -48 22 -87.5t56 -65.5
t85 -48.5t98 -37t107 -30.5q18 -5 27 -7q104 -29 186.5 -67.5t149 -90t103 -120t36.5 -148.5q0 -130 -73.5 -225t-187 -140t-249.5 -45q-238 0 -397 134.5t-178 355.5zM483 -389l129 266h191l-185 -266h-135z" />
    <glyph glyph-name="uni0219" unicode="&#x219;" horiz-adv-x="1085" 
d="M788 750q-18 89 -94.5 142.5t-171.5 53.5q-94 0 -156.5 -45t-62.5 -121q0 -38 22.5 -68t64 -50t81.5 -32.5t92 -23.5q81 -15 139.5 -31.5t115.5 -43t92.5 -60t57 -83t21.5 -112.5q0 -76 -36.5 -135.5t-98 -94.5t-135.5 -53t-154 -18q-195 0 -326 100.5t-143 266.5l180 12
q17 -100 93 -157.5t196 -57.5q59 0 111 12.5t92.5 47.5t40.5 88q0 27 -8 48.5t-26.5 37.5t-35 26.5t-48 20.5t-50 14.5t-56.5 12.5t-53 12q-51 12 -86 20.5t-81.5 24t-77.5 31t-65 39.5t-53.5 51.5t-32.5 65t-13 81.5q0 154 114.5 246t303.5 92q163 0 282.5 -95.5
t145.5 -252.5zM352 -389l129 266h191l-185 -266h-135z" />
    <glyph glyph-name="uni021A" unicode="&#x21a;" horiz-adv-x="1183" 
d="M1133 1454v-172h-453v-1282h-176v1282h-453v172h1082zM395 -389l129 266h191l-185 -266h-135z" />
    <glyph glyph-name="uni021B" unicode="&#x21b;" horiz-adv-x="811" 
d="M272 1331h172v-246h289v-151h-289v-645q0 -137 129 -137h156v-152h-156q-146 0 -223.5 75t-77.5 214v645h-159v151h159v246zM283 -389l129 266h190l-184 -266h-135z" />
    <glyph glyph-name="uni0237" unicode="&#x237;" horiz-adv-x="532" 
d="M369 -6q0 -141 -70.5 -221t-204.5 -80h-104v151h84q57 0 90 40.5t33 109.5v1091h172v-1091z" />
    <glyph glyph-name="uni0259" unicode="&#x259;" horiz-adv-x="1161" 
d="M1065 543q0 -258 -135.5 -413t-362.5 -155q-93 0 -173 31.5t-145 95t-105 170t-46 246.5l-2 78h787q-12 166 -94.5 258t-221.5 92q-87 0 -160.5 -48.5t-109.5 -133.5l-184 14q47 152 172 242t282 90q227 0 362.5 -154.5t135.5 -412.5zM285 444q11 -82 37.5 -143
t65.5 -95.5t83.5 -50.5t95.5 -16q128 0 209 79.5t103 225.5h-594z" />
    <glyph glyph-name="uni0292" unicode="&#x292;" horiz-adv-x="1226" 
d="M102 14q110 -112 241.5 -177.5t244.5 -65.5q155 0 253.5 76t98.5 196q0 126 -97.5 204t-252.5 75l-111 -3v175l406 419h-781v172h998v-200l-391 -404q182 -19 297.5 -141.5t115.5 -296.5q0 -195 -149.5 -319.5t-386.5 -124.5q-134 0 -264.5 54t-221.5 148v213z" />
    <glyph glyph-name="uni02B9" unicode="&#x2b9;" horiz-adv-x="512" 
d="M416 1513l-185 -266h-135l129 266h191z" />
    <glyph glyph-name="uni02BC" unicode="&#x2bc;" horiz-adv-x="421" 
d="M322 1233l-117 -315h-101l80 315h-84v223h219v-223h3z" />
    <glyph glyph-name="circumflex" unicode="&#x2c6;" horiz-adv-x="755" 
d="M504 1247l-125 174l-125 -174h-158l176 246h209l178 -246h-155z" />
    <glyph glyph-name="caron" unicode="&#x2c7;" horiz-adv-x="755" 
d="M504 1493h155l-178 -246h-209l-176 246h158l125 -174z" />
    <glyph glyph-name="uni02C8" unicode="&#x2c8;" horiz-adv-x="374" 
d="M96 1454h180v-156l-26 -299h-125l-29 299v156z" />
    <glyph glyph-name="breve" unicode="&#x2d8;" horiz-adv-x="772" 
d="M229 1511q0 -57 45.5 -96t112.5 -39q66 0 111 39t45 96h133q0 -110 -83.5 -186t-205.5 -76q-123 0 -207 76t-84 186h133z" />
    <glyph glyph-name="dotaccent" unicode="&#x2d9;" horiz-adv-x="372" 
d="M96 1452h180v-197h-180v197z" />
    <glyph glyph-name="ring" unicode="&#x2da;" horiz-adv-x="571" 
d="M287 1200q-79 0 -135 54t-56 135q0 78 56.5 134t134.5 56t133 -56t55 -134q0 -81 -54.5 -135t-133.5 -54zM209 1391q0 -31 23 -54.5t55 -23.5q30 0 52.5 23.5t22.5 54.5q0 30 -22.5 52.5t-52.5 22.5q-32 0 -55 -22.5t-23 -52.5z" />
    <glyph glyph-name="ogonek" unicode="&#x2db;" horiz-adv-x="532" 
d="M301 -92q-61 -86 -61 -131q0 -31 18.5 -51.5t48.5 -20.5q16 0 34.5 5.5t52 19.5t42.5 18v-131q-72 -55 -155 -55q-76 0 -130.5 49t-54.5 123q0 100 74 180l78 86h117z" />
    <glyph glyph-name="tilde" unicode="&#x2dc;" horiz-adv-x="878" 
d="M307 1386q-84 0 -84 -137h-127q0 121 55 192.5t148 71.5q90 0 150 -57q9 -8 28 -28.5t29 -29.5t28.5 -17.5t38.5 -8.5q82 0 82 139h127q0 -120 -54.5 -193t-145.5 -73q-59 0 -96 19.5t-68 52.5q-6 5 -19.5 19t-20.5 20t-19 14.5t-24.5 12t-27.5 3.5z" />
    <glyph glyph-name="hungarumlaut" unicode="&#x2dd;" horiz-adv-x="759" 
d="M416 1513l-185 -266h-135l129 266h191zM344 1247l129 266h191l-185 -266h-135z" />
    <glyph glyph-name="gravecomb" unicode="&#x300;" horiz-adv-x="0" 
d="M96 1513h191l129 -266h-133z" />
    <glyph glyph-name="acutecomb" unicode="&#x301;" horiz-adv-x="0" 
d="M416 1513l-185 -266h-135l129 266h191z" />
    <glyph glyph-name="uni0302" unicode="&#x302;" horiz-adv-x="0" 
d="M504 1247l-125 174l-125 -174h-158l176 246h209l178 -246h-155z" />
    <glyph glyph-name="tildecomb" unicode="&#x303;" horiz-adv-x="0" 
d="M307 1386q-84 0 -84 -137h-127q0 121 55 192.5t148 71.5q90 0 150 -57q9 -8 28 -28.5t29 -29.5t28.5 -17.5t38.5 -8.5q82 0 82 139h127q0 -120 -54.5 -193t-145.5 -73q-59 0 -96 19.5t-68 52.5q-6 5 -19.5 19t-20.5 20t-19 14.5t-24.5 12t-27.5 3.5z" />
    <glyph glyph-name="uni0304" unicode="&#x304;" horiz-adv-x="0" 
d="M96 1407h522v-127h-522v127z" />
    <glyph glyph-name="uni0306" unicode="&#x306;" horiz-adv-x="0" 
d="M229 1511q0 -57 45.5 -96t112.5 -39q66 0 111 39t45 96h133q0 -110 -83.5 -186t-205.5 -76q-123 0 -207 76t-84 186h133z" />
    <glyph glyph-name="uni0307" unicode="&#x307;" horiz-adv-x="0" 
d="M96 1452h180v-197h-180v197z" />
    <glyph glyph-name="uni0308" unicode="&#x308;" horiz-adv-x="0" 
d="M96 1452h180v-197h-180v197zM410 1255v197h180v-197h-180z" />
    <glyph glyph-name="uni030A" unicode="&#x30a;" horiz-adv-x="0" 
d="M287 1200q-79 0 -135 54t-56 135q0 78 56.5 134t134.5 56t133 -56t55 -134q0 -81 -54.5 -135t-133.5 -54zM209 1391q0 -31 23 -54.5t55 -23.5q30 0 52.5 23.5t22.5 54.5q0 30 -22.5 52.5t-52.5 22.5q-32 0 -55 -22.5t-23 -52.5z" />
    <glyph glyph-name="uni030B" unicode="&#x30b;" horiz-adv-x="0" 
d="M416 1513l-185 -266h-135l129 266h191zM344 1247l129 266h191l-185 -266h-135z" />
    <glyph glyph-name="uni030C" unicode="&#x30c;" horiz-adv-x="0" 
d="M504 1493h155l-178 -246h-209l-176 246h158l125 -174z" />
    <glyph glyph-name="uni0312" unicode="&#x312;" horiz-adv-x="0" 
d="M96 1503l117 316h100l-80 -316h84v-223h-219v223h-2z" />
    <glyph glyph-name="uni0326" unicode="&#x326;" horiz-adv-x="0" 
d="M416 -123l-185 -266h-135l129 266h191z" />
    <glyph glyph-name="uni0327" unicode="&#x327;" horiz-adv-x="0" 
d="M211 -98l108 118h107l-88 -96q88 0 143.5 -51t55.5 -133q0 -80 -58 -135.5t-141 -55.5q-70 0 -124.5 32.5t-117.5 105.5l84 77q1 -2 10.5 -13t13 -15t13.5 -15t15.5 -16t16 -13.5t19 -13t19 -9.5t21.5 -7t22 -2q43 0 68.5 24t25.5 64q0 49 -45 71t-111 7z" />
    <glyph glyph-name="uni0328" unicode="&#x328;" horiz-adv-x="0" 
d="M301 -92q-61 -86 -61 -131q0 -31 18.5 -51.5t48.5 -20.5q16 0 34.5 5.5t52 19.5t42.5 18v-131q-72 -55 -155 -55q-76 0 -130.5 49t-54.5 123q0 100 74 180l78 86h117z" />
    <glyph glyph-name="uni0335" unicode="&#x335;" horiz-adv-x="0" 
d="M408 659h852v-151h-852v151z" />
    <glyph glyph-name="Lambda" unicode="&#x39b;" horiz-adv-x="1372" 
d="M686 1300l-450 -1300h-193l524 1454h238l524 -1454h-192z" />
    <glyph glyph-name="uni03A9" unicode="&#x3a9;" horiz-adv-x="1513" 
d="M756 1315q-225 0 -348 -150.5t-123 -419.5q0 -239 107 -405t261 -168v-172h-549v172h271q-129 88 -202 236.5t-73 336.5q0 338 178 540t478 202q301 0 479 -202t178 -540q0 -188 -72.5 -337t-201.5 -236h270v-172h-551v172q155 2 263 168t108 405q0 269 -123.5 419.5
t-349.5 150.5z" />
    <glyph glyph-name="lambda" unicode="&#x3bb;" horiz-adv-x="1171" 
d="M1059 0q-121 0 -182.5 58.5t-122.5 215.5l-215 547l-316 -821h-180l408 1042l-58 146q-27 64 -51.5 89.5t-77.5 25.5h-108v151h96q123 0 191.5 -61.5t127.5 -212.5l361 -914q25 -62 49.5 -88t75.5 -26h71v-152h-69z" />
    <glyph glyph-name="pi" unicode="&#x3c0;" horiz-adv-x="1347" 
d="M113 1085h1159v-151h-209v-635q0 -70 36.5 -108.5t104.5 -38.5h64v-152h-64q-160 0 -236.5 79t-76.5 220v635h-387v-934h-172v934h-219v151z" />
    <glyph glyph-name="uni0400" unicode="&#x400;" horiz-adv-x="1234" 
d="M188 1454h914v-172h-737v-469h712v-168h-712v-473h753v-172h-930v1454zM401 1884h191l129 -266h-133z" />
    <glyph glyph-name="uni0401" unicode="&#x401;" horiz-adv-x="1234" 
d="M188 1454h914v-172h-737v-469h712v-168h-712v-473h753v-172h-930v1454zM406 1626v197h180v-197h-180zM719 1626v197h180v-197h-180z" />
    <glyph glyph-name="uni0402" unicode="&#x402;" horiz-adv-x="1595" 
d="M1063 1454v-172h-438v-522q46 93 155.5 150t249.5 57q214 0 348.5 -133.5t134.5 -344.5q0 -226 -157.5 -357.5t-427.5 -131.5v172q188 0 294.5 85t106.5 232q0 141 -80.5 223.5t-218.5 82.5q-179 0 -292 -84.5t-113 -216.5v-494h-176v1282h-398v172h1012z" />
    <glyph glyph-name="uni0403" unicode="&#x403;" horiz-adv-x="1206" 
d="M188 1454h967v-172h-790v-1282h-177v1454zM600 1616l129 266h191l-185 -266h-135z" />
    <glyph glyph-name="uni0404" unicode="&#x404;" horiz-adv-x="1509" 
d="M1409 508q-50 -255 -217.5 -398t-425.5 -143q-311 0 -488.5 202.5t-177.5 555.5q0 355 177 558.5t489 203.5q258 0 425.5 -142.5t217.5 -400.5h-188q-45 176 -163 273.5t-292 97.5q-206 0 -331.5 -133.5t-145.5 -370.5h598v-172h-598q20 -235 145.5 -367.5t331.5 -132.5
q173 0 291.5 97t163.5 272h188z" />
    <glyph glyph-name="uni0405" unicode="&#x405;" horiz-adv-x="1327" 
d="M305 477q29 -152 133.5 -241t272.5 -89q143 0 227 57t84 163q0 109 -99 182t-319 129q-452 112 -452 409q0 183 131.5 291.5t343.5 108.5q229 0 377 -129t172 -334l-185 -12q-20 138 -118.5 220.5t-247.5 82.5q-126 0 -207.5 -62.5t-81.5 -165.5q0 -48 22 -87.5t56 -65.5
t85 -48.5t98 -37t107 -30.5q18 -5 27 -7q104 -29 186.5 -67.5t149 -90t103 -120t36.5 -148.5q0 -130 -73.5 -225t-187 -140t-249.5 -45q-238 0 -397 134.5t-178 355.5z" />
    <glyph glyph-name="uni0406" unicode="&#x406;" horiz-adv-x="552" 
d="M188 1454h177v-1454h-177v1454z" />
    <glyph glyph-name="uni0407" unicode="&#x407;" horiz-adv-x="552" 
d="M188 1454h177v-1454h-177v1454zM33 1624v197h180v-197h-180zM346 1624v197h180v-197h-180z" />
    <glyph glyph-name="uni0408" unicode="&#x408;" horiz-adv-x="1222" 
d="M317 487q1 -167 75 -257.5t208 -90.5q138 0 213.5 96t75.5 273v946h176v-946q0 -249 -125.5 -395t-339.5 -146q-202 0 -331.5 141.5t-131.5 362.5z" />
    <glyph glyph-name="uni0409" unicode="&#x409;" horiz-adv-x="2365" 
d="M1378 1454v-565h346q243 0 378.5 -119t135.5 -330q0 -207 -135.5 -323.5t-378.5 -116.5h-522v1282h-565l-82 -981q-23 -301 -272 -301h-146v172h119q54 0 84.5 40t36.5 110l94 1132h907zM1378 172h346q330 0 330 268q0 137 -83 207t-247 70h-346v-545z" />
    <glyph glyph-name="uni040A" unicode="&#x40a;" horiz-adv-x="2238" 
d="M1597 0h-522v717h-710v-717h-177v1454h177v-565h710v565h176v-565h346q243 0 378.5 -119t135.5 -330q0 -207 -135.5 -323.5t-378.5 -116.5zM1251 172h346q330 0 330 268q0 137 -83 207t-247 70h-346v-545z" />
    <glyph glyph-name="uni040B" unicode="&#x40b;" horiz-adv-x="1595" 
d="M1063 1454v-172h-438v-522q46 93 155.5 150t249.5 57q231 0 357 -126t126 -345v-496h-176v496q0 141 -78.5 220t-228.5 79q-179 0 -292 -84.5t-113 -216.5v-494h-176v1282h-398v172h1012z" />
    <glyph glyph-name="uni040C" unicode="&#x40c;" horiz-adv-x="1331" 
d="M188 1454h177v-711l651 711h239l-665 -727l686 -727h-240l-671 713v-713h-177v1454zM616 1616l129 266h191l-184 -266h-136z" />
    <glyph glyph-name="uni040E" unicode="&#x40e;" horiz-adv-x="1110" 
d="M43 1454h190l326 -901l318 901h190l-463 -1284q-31 -87 -90 -128.5t-152 -41.5h-188v172h166q77 0 104 76l56 141h-60zM264 1880h133q0 -57 45.5 -96t112.5 -39q66 0 111 39t45 96h133q0 -110 -83.5 -186t-205.5 -76q-123 0 -207 76t-84 186z" />
    <glyph glyph-name="uni040F" unicode="&#x40f;" horiz-adv-x="1439" 
d="M1251 0h-442v-307h-176v307h-445v1454h177v-1282h710v1282h176v-1454z" />
    <glyph glyph-name="uni0410" unicode="&#x410;" horiz-adv-x="1372" 
d="M43 0l524 1454h238l524 -1454h-192l-146 414h-610l-145 -414h-193zM440 586h492l-246 714z" />
    <glyph glyph-name="uni0411" unicode="&#x411;" horiz-adv-x="1351" 
d="M188 0v1454h969v-172h-792v-393h346q243 0 378.5 -119t135.5 -330q0 -207 -135.5 -323.5t-378.5 -116.5h-523zM365 172h346q329 0 329 268q0 277 -329 277h-346v-545z" />
    <glyph glyph-name="uni0412" unicode="&#x412;" horiz-adv-x="1392" 
d="M188 0v1454h500q516 0 516 -403q0 -121 -67.5 -199t-188.5 -100q150 -20 234 -109.5t84 -230.5q0 -198 -129 -305t-367 -107h-582zM365 172h405q149 0 230 62.5t81 177.5q0 116 -81 178.5t-230 62.5h-405v-481zM365 825h323q160 0 246 58.5t86 167.5q0 231 -332 231h-323
v-457z" />
    <glyph glyph-name="uni0413" unicode="&#x413;" horiz-adv-x="1206" 
d="M188 1454h967v-172h-790v-1282h-177v1454z" />
    <glyph glyph-name="uni0414" unicode="&#x414;" horiz-adv-x="1646" 
d="M1364 1454v-1282h180v-479h-176v307h-1089v-307h-177v479h84q76 0 117.5 65t56.5 205l107 1012h897zM455 172h733v1110h-559l-92 -860q-18 -162 -82 -250z" />
    <glyph glyph-name="uni0415" unicode="&#x415;" horiz-adv-x="1234" 
d="M188 1454h914v-172h-737v-469h712v-168h-712v-473h753v-172h-930v1454z" />
    <glyph glyph-name="uni0416" unicode="&#x416;" horiz-adv-x="1947" 
d="M887 1454h176v-709l571 709h238l-586 -727l606 -727h-237l-592 711v-711h-176v711l-592 -711h-240l607 727l-586 727h239l572 -709v709z" />
    <glyph glyph-name="uni0417" unicode="&#x417;" horiz-adv-x="1337" 
d="M698 858q43 -1 84 7t81 26.5t69.5 46.5t48 72t18.5 98q0 95 -88.5 151t-240.5 56q-139 0 -227.5 -51.5t-102.5 -139.5l-184 13q20 154 163.5 252t350.5 98q227 0 370.5 -106t143.5 -273q0 -245 -266 -322q152 -44 233.5 -145t81.5 -242q0 -191 -157 -311.5t-406 -120.5
q-242 0 -400.5 114t-167.5 294l183 12q10 -114 114.5 -181t270.5 -67q175 0 278 74.5t103 200.5q0 70 -30.5 125t-82 86.5t-112.5 47.5t-128 15l-151 -2v174z" />
    <glyph glyph-name="uni0418" unicode="&#x418;" horiz-adv-x="1511" 
d="M1323 1454v-1454h-176v1225l-703 -1225h-256v1454h177v-1245l712 1245h246z" />
    <glyph glyph-name="uni0419" unicode="&#x419;" horiz-adv-x="1511" 
d="M1323 1454v-1454h-176v1225l-703 -1225h-256v1454h177v-1245l712 1245h246zM465 1880h133q0 -57 45.5 -96t112.5 -39q66 0 110.5 39t44.5 96h133q0 -110 -83.5 -186t-204.5 -76q-123 0 -207 76t-84 186z" />
    <glyph glyph-name="uni041A" unicode="&#x41a;" horiz-adv-x="1331" 
d="M188 1454h177v-711l651 711h239l-665 -727l686 -727h-240l-671 713v-713h-177v1454z" />
    <glyph glyph-name="uni041B" unicode="&#x41b;" horiz-adv-x="1566" 
d="M1378 1454v-1454h-176v1282h-565l-82 -981q-23 -301 -272 -301h-146v172h119q54 0 84.5 40t36.5 110l94 1132h907z" />
    <glyph glyph-name="uni041C" unicode="&#x41c;" horiz-adv-x="1796" 
d="M188 1454h246l465 -1261l463 1261h246v-1454h-176v1102l-416 -1102h-236l-415 1102v-1102h-177v1454z" />
    <glyph glyph-name="uni041D" unicode="&#x41d;" horiz-adv-x="1439" 
d="M188 0v1454h177v-637h710v637h176v-1454h-176v645h-710v-645h-177z" />
    <glyph glyph-name="uni041E" unicode="&#x41e;" horiz-adv-x="1529" 
d="M764 -33q-310 0 -487 203t-177 555q0 355 177 558.5t487 203.5q312 0 489 -203.5t177 -558.5q0 -353 -177.5 -555.5t-488.5 -202.5zM285 725q0 -272 127.5 -429t351.5 -157q225 0 353 157t128 429q0 276 -128 433t-353 157q-224 0 -351.5 -157.5t-127.5 -432.5z" />
    <glyph glyph-name="uni041F" unicode="&#x41f;" horiz-adv-x="1439" 
d="M1251 1454v-1454h-176v1282h-710v-1282h-177v1454h1063z" />
    <glyph glyph-name="uni0420" unicode="&#x420;" horiz-adv-x="1331" 
d="M711 1454q243 0 378.5 -116.5t135.5 -323.5q0 -211 -135.5 -330t-378.5 -119h-346v-565h-177v1454h523zM365 737h346q329 0 329 277q0 268 -329 268h-346v-545z" />
    <glyph glyph-name="uni0421" unicode="&#x421;" horiz-adv-x="1435" 
d="M1346 479q-41 -236 -192 -374t-396 -138q-153 0 -278.5 59t-208 162t-127 240.5t-44.5 296.5q0 160 44.5 298t126.5 241.5t207.5 163t279.5 59.5q227 0 377 -129.5t198 -349.5l-186 -13q-35 154 -136.5 237t-252.5 83q-121 0 -213.5 -47.5t-148 -130t-83.5 -187
t-28 -225.5q0 -96 17 -181.5t54.5 -160t92 -128.5t134 -85t175.5 -31q159 0 263 92t136 261z" />
    <glyph glyph-name="uni0422" unicode="&#x422;" horiz-adv-x="1183" 
d="M1133 1454v-172h-453v-1282h-176v1282h-453v172h1082z" />
    <glyph glyph-name="uni0423" unicode="&#x423;" horiz-adv-x="1110" 
d="M43 1454h190l326 -901l318 901h190l-463 -1284q-31 -87 -90 -128.5t-152 -41.5h-188v172h166q77 0 104 76l56 141h-60z" />
    <glyph glyph-name="uni0424" unicode="&#x424;" horiz-adv-x="1718" 
d="M100 727q0 237 186 395.5t486 180.5v151h172v-154q198 -14 351 -89.5t238 -201.5t85 -282t-85 -282t-238 -201.5t-351 -89.5v-154h-172v152q-300 22 -486 180t-186 395zM285 727q0 -170 130.5 -277t356.5 -124v802q-226 -17 -356.5 -124t-130.5 -277zM944 326
q228 19 359 125t131 276t-131 276t-359 125v-802z" />
    <glyph glyph-name="uni0425" unicode="&#x425;" horiz-adv-x="1288" 
d="M1026 1454h201l-473 -725l479 -729h-205l-385 590l-387 -590h-201l480 731l-476 723h205l383 -582z" />
    <glyph glyph-name="uni0426" unicode="&#x426;" horiz-adv-x="1576" 
d="M188 0v1454h177v-1282h710v1282h176v-1282h179v-479h-177v307h-1065z" />
    <glyph glyph-name="uni0427" unicode="&#x427;" horiz-adv-x="1335" 
d="M1147 0h-176v694q-46 -93 -156 -150t-250 -57q-231 0 -357 126t-126 345v496h176v-496q0 -141 78.5 -220t228.5 -79q179 0 292.5 85t113.5 217v493h176v-1454z" />
    <glyph glyph-name="uni0428" unicode="&#x428;" horiz-adv-x="1880" 
d="M188 0v1454h177v-1282h487v1282h178v-1282h486v1282h176v-1454h-1504z" />
    <glyph glyph-name="uni0429" unicode="&#x429;" horiz-adv-x="2017" 
d="M188 0v1454h177v-1282h487v1282h178v-1282h486v1282h176v-1282h178v-479h-176v307h-1506z" />
    <glyph glyph-name="uni042A" unicode="&#x42a;" horiz-adv-x="1513" 
d="M893 0h-522v1282h-224v172h400v-565h346q243 0 378.5 -119t135.5 -330q0 -207 -135.5 -323.5t-378.5 -116.5zM547 172h346q330 0 330 268q0 137 -83 207t-247 70h-346v-545z" />
    <glyph glyph-name="uni042B" unicode="&#x42b;" horiz-adv-x="1751" 
d="M711 0h-523v1454h177v-565h346q243 0 378.5 -119t135.5 -330q0 -207 -135.5 -323.5t-378.5 -116.5zM365 172h346q329 0 329 268q0 277 -329 277h-346v-545zM1386 0v1454h177v-1454h-177z" />
    <glyph glyph-name="uni042C" unicode="&#x42c;" horiz-adv-x="1351" 
d="M711 0h-523v1454h177v-565h346q243 0 378.5 -119t135.5 -330q0 -207 -135.5 -323.5t-378.5 -116.5zM365 172h346q329 0 329 268q0 277 -329 277h-346v-545z" />
    <glyph glyph-name="uni042D" unicode="&#x42d;" horiz-adv-x="1509" 
d="M289 508q45 -175 163 -272t291 -97q206 0 332 133t146 367h-598v172h598q-20 237 -146 370.5t-332 133.5q-173 0 -291 -97.5t-163 -273.5h-189q50 258 217.5 400.5t425.5 142.5q312 0 489 -203.5t177 -558.5q0 -353 -177.5 -555.5t-488.5 -202.5q-258 0 -425.5 143
t-217.5 398h189z" />
    <glyph glyph-name="uni042E" unicode="&#x42e;" horiz-adv-x="2035" 
d="M1270 -33q-291 0 -465.5 179t-196.5 495h-243v-641h-177v1454h177v-641h243q23 316 198 495t464 179q311 0 488 -203.5t177 -558.5q0 -353 -177 -555.5t-488 -202.5zM791 725q0 -272 127.5 -429t351.5 -157q225 0 353 157t128 429q0 276 -128 433t-353 157
q-224 0 -351.5 -157.5t-127.5 -432.5z" />
    <glyph glyph-name="uni042F" unicode="&#x42f;" horiz-adv-x="1386" 
d="M676 1454h522v-1454h-176v586h-346h-23l-334 -586h-194l348 612q-150 40 -230.5 144.5t-80.5 257.5q0 207 135.5 323.5t378.5 116.5zM346 1018q0 -126 85 -193t245 -67h346v524h-346q-159 0 -244.5 -69t-85.5 -195z" />
    <glyph glyph-name="uni0430" unicode="&#x430;" horiz-adv-x="1177" 
d="M115 766q32 159 151.5 251.5t292.5 92.5q209 0 322.5 -118.5t113.5 -336.5v-436q0 -67 66 -67h45v-152h-74q-207 0 -207 168q-38 -82 -127 -137.5t-211 -55.5q-168 0 -279.5 84t-111.5 226q0 65 20.5 115t53 82.5t88.5 58t111.5 40t136.5 29.5l317 64q-3 272 -264 272
q-103 0 -170 -50t-92 -144zM276 285q0 -69 60 -113.5t174 -44.5q139 2 228 99t89 280v14l-256 -45q-13 -2 -40 -7l-60 -10.5t-52.5 -12t-48.5 -16t-37.5 -21.5t-31.5 -30.5t-17.5 -40t-7.5 -52.5z" />
    <glyph glyph-name="uni0431" unicode="&#x431;" horiz-adv-x="1230" 
d="M289 483q2 151 98.5 247.5t247.5 96.5q138 0 226.5 -96.5t88.5 -247.5q0 -155 -92 -253.5t-237 -98.5q-149 0 -242 98.5t-90 253.5zM100 641q0 -172 39.5 -305.5t116.5 -210.5q145 -158 360 -158q228 0 371 140.5t143 375.5q0 225 -133.5 366.5t-349.5 141.5
q-120 0 -214.5 -54.5t-153.5 -156.5q2 58 11.5 105.5t23 82t36 64.5t43 49.5t53.5 40t58.5 33.5t65.5 32q24 11 36 17q123 58 174 143.5t51 211.5l-176 -3q0 -87 -37.5 -134t-142.5 -93q-138 -60 -218.5 -144t-118.5 -215t-38 -329z" />
    <glyph glyph-name="uni0432" unicode="&#x432;" horiz-adv-x="1212" 
d="M164 0v1085h450q188 0 299 -81.5t111 -219.5q0 -91 -61 -149.5t-170 -73.5q129 -13 202.5 -81.5t73.5 -172.5q0 -141 -107 -224t-288 -83h-510zM336 152h338q97 0 154 42t57 113q0 78 -57 123t-154 45h-338v-323zM336 627h278q103 0 164.5 42.5t61.5 114.5
q0 69 -61.5 109.5t-164.5 40.5h-278v-307z" />
    <glyph glyph-name="uni0433" unicode="&#x433;" horiz-adv-x="999" 
d="M164 1085h760v-151h-588v-934h-172v1085z" />
    <glyph glyph-name="uni0434" unicode="&#x434;" horiz-adv-x="1411" 
d="M1153 1085v-933h176v-459h-172v307h-903v-307h-172v459h96q65 0 102 47.5t50 148.5l98 737h725zM432 152h549v782h-397l-86 -602q-14 -110 -66 -180z" />
    <glyph glyph-name="uni0435" unicode="&#x435;" horiz-adv-x="1161" 
d="M96 543q0 258 135.5 412.5t362.5 154.5q93 0 173 -31.5t145 -95t105 -170t46 -246.5l2 -78h-786q12 -166 94 -258t221 -92q87 0 160.5 49t109.5 134l185 -15q-47 -152 -172.5 -242t-282.5 -90q-227 0 -362.5 155t-135.5 413zM283 641h594q-20 159 -97.5 232t-185.5 73
q-128 0 -208.5 -79.5t-102.5 -225.5z" />
    <glyph glyph-name="uni0436" unicode="&#x436;" horiz-adv-x="1761" 
d="M797 1085h172v-528l448 528h228l-461 -542l481 -543h-227l-469 528v-528h-172v528l-469 -528h-232l482 543l-461 542h231l449 -528v528z" />
    <glyph glyph-name="uni0437" unicode="&#x437;" horiz-adv-x="1095" 
d="M569 653q94 -2 150.5 40t56.5 112q0 65 -61.5 103t-165.5 38q-95 0 -154 -35t-67 -94l-187 10q15 130 125.5 206.5t282.5 76.5q188 0 297.5 -82t109.5 -223q0 -76 -57.5 -134.5t-159.5 -86.5q119 -34 186.5 -111t67.5 -178q0 -148 -120 -234t-324 -86q-198 0 -318.5 88.5
t-128.5 239.5l181 8q6 -78 78 -125t188 -47q122 0 193 45t71 121q0 89 -66.5 140t-177.5 49l-112 -2v163z" />
    <glyph glyph-name="uni0438" unicode="&#x438;" horiz-adv-x="1173" 
d="M1010 1085v-1085h-172v807l-461 -807h-213v1085h172v-823l471 823h203z" />
    <glyph glyph-name="uni0439" unicode="&#x439;" horiz-adv-x="1173" 
d="M1010 1085v-1085h-172v807l-461 -807h-213v1085h172v-823l471 823h203zM297 1511h133q0 -57 45.5 -96t112.5 -39q66 0 110.5 39t44.5 96h134q0 -110 -83.5 -186t-205.5 -76q-123 0 -207 76t-84 186z" />
    <glyph glyph-name="uni043A" unicode="&#x43a;" horiz-adv-x="1212" 
d="M164 1085h176v-528l510 528h242l-535 -542l559 -543h-246l-530 528v-528h-176v1085z" />
    <glyph glyph-name="uni043B" unicode="&#x43b;" horiz-adv-x="1382" 
d="M1219 1085v-1085h-172v934h-465l-68 -633q-30 -301 -266 -301h-125v172h100q104 0 119 147l82 766h795z" />
    <glyph glyph-name="uni043C" unicode="&#x43c;" horiz-adv-x="1470" 
d="M164 1085h237l336 -905l334 905h236v-1085h-172v766l-291 -766h-215l-293 766v-766h-172v1085z" />
    <glyph glyph-name="uni043D" unicode="&#x43d;" horiz-adv-x="1183" 
d="M164 1085h172v-469h512v469h172v-1085h-172v465h-512v-465h-172v1085z" />
    <glyph glyph-name="uni043E" unicode="&#x43e;" horiz-adv-x="1185" 
d="M594 -25q-226 0 -362 154.5t-136 413.5t136 413t362 154q225 0 360.5 -154t135.5 -413t-135.5 -413.5t-360.5 -154.5zM276 543q0 -190 84 -297t234 -107q149 0 232 107t83 297q0 189 -83 296t-232 107q-150 0 -234 -107t-84 -296z" />
    <glyph glyph-name="uni043F" unicode="&#x43f;" horiz-adv-x="1185" 
d="M1022 1085v-1085h-172v934h-514v-934h-172v1085h858z" />
    <glyph glyph-name="uni0440" unicode="&#x440;" horiz-adv-x="1224" 
d="M164 -307v1392h155l7 -161q44 91 129.5 138.5t203.5 47.5t209.5 -46t147 -126t84 -180t28.5 -215q0 -91 -17.5 -174t-54.5 -155t-91.5 -125t-132.5 -83.5t-173 -30.5q-230 0 -323 172v-454h-172zM317 543q0 -62 11 -120t36 -110t61 -90.5t89 -61t117 -22.5
q81 0 142.5 33.5t98 91.5t54.5 128.5t18 150.5t-18 150.5t-54.5 128t-98 91t-142.5 33.5q-80 0 -142 -34t-98.5 -92t-55 -128t-18.5 -149z" />
    <glyph glyph-name="uni0441" unicode="&#x441;" horiz-adv-x="1130" 
d="M864 721q-17 103 -93.5 164t-176.5 61q-150 0 -234 -107t-84 -296q0 -190 84 -297t234 -107q104 0 182 66t96 180l183 -12q-26 -181 -155.5 -289.5t-305.5 -108.5q-227 0 -362.5 155t-135.5 413t135.5 412.5t362.5 154.5q171 0 300 -103.5t150 -273.5z" />
    <glyph glyph-name="uni0442" unicode="&#x442;" horiz-adv-x="1148" 
d="M1053 1085v-151h-391v-934h-175v934h-391v151h957z" />
    <glyph glyph-name="uni0443" unicode="&#x443;" horiz-adv-x="1099" 
d="M45 1085h184l326 -901l317 901h183l-441 -1222q-31 -87 -89.5 -128.5t-151.5 -41.5h-142v151h125q76 0 105 76l39 100h-58z" />
    <glyph glyph-name="uni0444" unicode="&#x444;" horiz-adv-x="1325" 
d="M96 549q0 200 132.5 334t349.5 159v412h174v-414q215 -25 346 -159t131 -332q0 -199 -131 -333t-346 -159v-364h-174v362q-217 25 -349.5 159.5t-132.5 334.5zM281 549q0 -130 79 -215t218 -105v639q-139 -20 -218 -104.5t-79 -214.5zM752 229q137 22 214.5 106.5
t77.5 213.5t-77.5 213t-214.5 106v-639z" />
    <glyph glyph-name="uni0445" unicode="&#x445;" horiz-adv-x="1198" 
d="M872 1085h211l-374 -530l393 -555h-209l-293 422l-293 -422h-211l398 557l-377 528h211l272 -397z" />
    <glyph glyph-name="uni0446" unicode="&#x446;" horiz-adv-x="1339" 
d="M164 0v1085h172v-933h514v933h172v-933h174v-459h-172v307h-860z" />
    <glyph glyph-name="uni0447" unicode="&#x447;" horiz-adv-x="1230" 
d="M1067 0h-172v526q-39 -91 -125.5 -146.5t-194.5 -55.5q-189 0 -300 127t-111 344v290h172v-290q0 -141 65 -224.5t174 -83.5q148 0 234 83.5t86 226.5v288h172v-1085z" />
    <glyph glyph-name="uni0448" unicode="&#x448;" horiz-adv-x="1626" 
d="M164 0v1085h172v-933h391v933h174v-933h389v933h172v-1085h-1298z" />
    <glyph glyph-name="uni0449" unicode="&#x449;" horiz-adv-x="1769" 
d="M164 0v1085h172v-933h391v933h174v-933h389v933h172v-933h185v-459h-172v307h-1311z" />
    <glyph glyph-name="uni044A" unicode="&#x44a;" horiz-adv-x="1327" 
d="M297 0v934h-174v151h346v-399h287q229 0 352 -89t123 -255q0 -164 -123 -253t-352 -89h-459zM469 154h287q295 0 295 188q0 193 -295 193h-287v-381z" />
    <glyph glyph-name="uni044B" unicode="&#x44b;" horiz-adv-x="1626" 
d="M164 0v1085h172v-399h287q229 0 352 -89t123 -255q0 -164 -123 -253t-352 -89h-459zM336 154h287q295 0 295 188q0 193 -295 193h-287v-381zM1290 0v1085h172v-1085h-172z" />
    <glyph glyph-name="uni044C" unicode="&#x44c;" horiz-adv-x="1193" 
d="M164 0v1085h172v-399h287q229 0 352 -89t123 -255q0 -164 -123 -253t-352 -89h-459zM336 154h287q295 0 295 188q0 193 -295 193h-287v-381z" />
    <glyph glyph-name="uni044D" unicode="&#x44d;" horiz-adv-x="1169" 
d="M283 373q31 -111 107 -172.5t185 -61.5q135 0 217 86t97 242h-363v151h363q-15 156 -97 242t-217 86q-112 0 -187.5 -62t-106.5 -177h-185q40 188 167 295.5t312 107.5q226 0 362 -154t136 -413t-136 -413.5t-362 -154.5q-184 0 -310.5 106t-166.5 292h185z" />
    <glyph glyph-name="uni044E" unicode="&#x44e;" horiz-adv-x="1613" 
d="M1022 -25q-209 0 -341.5 132t-152.5 360h-192v-467h-172v1085h172v-467h192q20 228 152.5 360t341.5 132q225 0 360.5 -154t135.5 -413t-135.5 -413.5t-360.5 -154.5zM705 543q0 -190 83.5 -297t233.5 -107q149 0 232 107t83 297q0 189 -83 296t-232 107
q-150 0 -233.5 -106.5t-83.5 -296.5z" />
    <glyph glyph-name="uni044F" unicode="&#x44f;" horiz-adv-x="1206" 
d="M1042 1085v-1085h-172v420h-258l-247 -420h-201l264 451q-120 43 -184 122.5t-64 184.5q0 158 112.5 242.5t321.5 84.5h428zM365 754q0 -88 64.5 -135.5t184.5 -47.5h256v365h-256q-120 0 -184.5 -47t-64.5 -135z" />
    <glyph glyph-name="uni0450" unicode="&#x450;" horiz-adv-x="1161" 
d="M96 543q0 258 135.5 412.5t362.5 154.5q93 0 173 -31.5t145 -95t105 -170t46 -246.5l2 -78h-786q12 -166 94 -258t221 -92q87 0 160.5 49t109.5 134l185 -15q-47 -152 -172.5 -242t-282.5 -90q-227 0 -362.5 155t-135.5 413zM283 641h594q-20 159 -97.5 232t-185.5 73
q-128 0 -208.5 -79.5t-102.5 -225.5zM344 1509h191l129 -266h-134z" />
    <glyph glyph-name="uni0451" unicode="&#x451;" horiz-adv-x="1161" 
d="M96 543q0 258 135.5 412.5t362.5 154.5q93 0 173 -31.5t145 -95t105 -170t46 -246.5l2 -78h-786q12 -166 94 -258t221 -92q87 0 160.5 49t109.5 134l185 -15q-47 -152 -172.5 -242t-282.5 -90q-227 0 -362.5 155t-135.5 413zM283 641h594q-20 159 -97.5 232t-185.5 73
q-128 0 -208.5 -79.5t-102.5 -225.5zM350 1251v197h180v-197h-180zM664 1251v197h180v-197h-180z" />
    <glyph glyph-name="uni0452" unicode="&#x452;" horiz-adv-x="1261" 
d="M236 1454h172v-106h235v-152h-235v-258q44 86 130 129t193 43q169 0 268 -111.5t99 -300.5v-704q0 -141 -70.5 -221t-204.5 -80h-104v151h84q57 0 90 40.5t33 109.5v643q0 309 -232 309q-132 0 -209 -80.5t-77 -228.5v-637h-172v1196h-113v152h113v106z" />
    <glyph glyph-name="uni0453" unicode="&#x453;" horiz-adv-x="999" 
d="M164 1085h760v-151h-588v-934h-172v1085zM471 1247l129 266h191l-185 -266h-135z" />
    <glyph glyph-name="uni0454" unicode="&#x454;" horiz-adv-x="1169" 
d="M1071 373q-40 -186 -166.5 -292t-310.5 -106q-226 0 -362 154.5t-136 413.5t136 413t362 154q185 0 312 -107.5t167 -295.5h-184q-31 115 -107 177t-188 62q-135 0 -216.5 -86t-96.5 -242h362v-151h-362q15 -156 96.5 -242t216.5 -86q110 0 186 61.5t107 172.5h184z" />
    <glyph glyph-name="uni0455" unicode="&#x455;" horiz-adv-x="1085" 
d="M788 750q-18 89 -94.5 142.5t-171.5 53.5q-94 0 -156.5 -45t-62.5 -121q0 -38 22.5 -68t64 -50t81.5 -32.5t92 -23.5q81 -15 139.5 -31.5t115.5 -43t92.5 -60t57 -83t21.5 -112.5q0 -76 -36.5 -135.5t-98 -94.5t-135.5 -53t-154 -18q-195 0 -326 100.5t-143 266.5l180 12
q17 -100 93 -157.5t196 -57.5q59 0 111 12.5t92.5 47.5t40.5 88q0 27 -8 48.5t-26.5 37.5t-35 26.5t-48 20.5t-50 14.5t-56.5 12.5t-53 12q-51 12 -86 20.5t-81.5 24t-77.5 31t-65 39.5t-53.5 51.5t-32.5 65t-13 81.5q0 154 114.5 246t303.5 92q163 0 282.5 -95.5
t145.5 -252.5z" />
    <glyph glyph-name="uni0456" unicode="&#x456;" horiz-adv-x="499" 
d="M164 1085h172v-1085h-172v1085zM160 1255v197h180v-197h-180z" />
    <glyph glyph-name="uni0457" unicode="&#x457;" horiz-adv-x="499" 
d="M164 1085h172v-1085h-172v1085zM6 1255v197h180v-197h-180zM319 1255v197h181v-197h-181z" />
    <glyph glyph-name="uni0458" unicode="&#x458;" horiz-adv-x="532" 
d="M369 -6q0 -141 -70.5 -221t-204.5 -80h-104v151h84q57 0 90 40.5t33 109.5v1091h172v-1091zM193 1255v197h180v-197h-180z" />
    <glyph glyph-name="uni0459" unicode="&#x459;" horiz-adv-x="2097" 
d="M1047 0v934h-465l-68 -633q-30 -301 -266 -301h-125v172h100q104 0 119 147l82 766h815v-399h287q229 0 352 -89t123 -255q0 -164 -123 -253t-352 -89h-479zM1239 154h287q295 0 295 188q0 193 -295 193h-287v-381z" />
    <glyph glyph-name="uni045A" unicode="&#x45a;" horiz-adv-x="1878" 
d="M848 0v535h-512v-535h-172v1085h172v-399h512v399h172v-399h287q229 0 352 -89t123 -255q0 -164 -123 -253t-352 -89h-459zM1020 154h287q295 0 295 188q0 193 -295 193h-287v-381z" />
    <glyph glyph-name="uni045B" unicode="&#x45b;" horiz-adv-x="1241" 
d="M236 1454h172v-106h235v-152h-235v-258q44 86 130 129t193 43q169 0 268 -111.5t99 -300.5v-698h-172v637q0 309 -232 309q-132 0 -209 -80.5t-77 -228.5v-637h-172v1196h-113v152h113v106z" />
    <glyph glyph-name="uni045C" unicode="&#x45c;" horiz-adv-x="1212" 
d="M164 1085h176v-528l510 528h242l-535 -542l559 -543h-246l-530 528v-528h-176v1085zM522 1247l129 266h191l-185 -266h-135z" />
    <glyph glyph-name="uni045D" unicode="&#x45d;" horiz-adv-x="1173" 
d="M1010 1085v-1085h-172v807l-461 -807h-213v1085h172v-823l471 823h203zM338 1513h190l129 -266h-133z" />
    <glyph glyph-name="uni045E" unicode="&#x45e;" horiz-adv-x="1099" 
d="M45 1085h184l326 -901l317 901h183l-441 -1222q-31 -87 -89.5 -128.5t-151.5 -41.5h-142v151h125q76 0 105 76l39 100h-58zM260 1511h133q0 -57 45.5 -96t112.5 -39q66 0 111 39t45 96h133q0 -110 -83.5 -186t-205.5 -76q-123 0 -207 76t-84 186z" />
    <glyph glyph-name="uni045F" unicode="&#x45f;" horiz-adv-x="1185" 
d="M1022 0h-344v-307h-172v307h-342v1085h172v-933h514v933h172v-1085z" />
    <glyph glyph-name="uni0462" unicode="&#x462;" horiz-adv-x="1527" 
d="M887 0h-522v1085h-238v172h238v197h176v-197h239v-172h-239v-196h346q243 0 378.5 -119t135.5 -330q0 -207 -135.5 -323.5t-378.5 -116.5zM541 172h346q330 0 330 268q0 137 -83 207t-247 70h-346v-545z" />
    <glyph glyph-name="uni0463" unicode="&#x463;" horiz-adv-x="1394" 
d="M365 0v1085h-242v172h242v197h172v-197h239v-172h-239v-358h286q228 0 351.5 -95t123.5 -270t-123 -268.5t-352 -93.5h-458zM537 154h286q142 0 218.5 53.5t76.5 154.5t-77 157t-218 56h-286v-421z" />
    <glyph glyph-name="uni046A" unicode="&#x46a;" horiz-adv-x="1445" 
d="M197 1454h1054v-172l-325 -485q157 -10 231 -205l234 -592h-197l-197 508q-24 66 -52 91.5t-71 25.5h-61v-625h-178v625h-64q-43 0 -71 -25.5t-54 -91.5l-194 -508h-197l232 592q38 99 100 150.5t135 54.5l-325 485v172zM406 1282l319 -475l317 475h-636z" />
    <glyph glyph-name="uni046B" unicode="&#x46b;" horiz-adv-x="1445" 
d="M197 1085h1054v-151l-321 -342q66 -8 122 -47t87 -105l211 -440h-197l-166 362q-22 48 -53 66t-80 18h-43v-446h-176v446h-45q-48 0 -78.5 -18t-52.5 -66l-166 -362h-197l211 440q31 66 87.5 105t123.5 47l-321 342v151zM406 934l319 -338l317 338h-636z" />
    <glyph glyph-name="uni0472" unicode="&#x472;" horiz-adv-x="1529" 
d="M764 -33q-310 0 -487 203t-177 555q0 355 177 558.5t487 203.5q312 0 489 -203.5t177 -558.5q0 -353 -177.5 -555.5t-488.5 -202.5zM287 659q15 -244 141 -382t336 -138q199 0 323 123t150 342q-61 -24 -127 -33q-67 -6 -132 9.5t-245 81.5q-156 60 -289 47
q-86 -9 -157 -50zM293 854q59 23 131 29q64 7 146.5 -5t148.5 -38q187 -71 245 -85t128 -7q85 9 151 47q-17 246 -142.5 383t-336.5 137q-195 0 -318.5 -121.5t-152.5 -339.5z" />
    <glyph glyph-name="uni0473" unicode="&#x473;" horiz-adv-x="1185" 
d="M594 -25q-226 0 -362 154.5t-136 413.5t136 413t362 154q225 0 360.5 -154t135.5 -413t-135.5 -413.5t-360.5 -154.5zM276 514q6 -177 89.5 -276t228.5 -99q115 0 191.5 64.5t105.5 183.5h-4q-45 0 -71 3.5t-85 23.5t-156 63q-110 51 -239 47q-30 0 -60 -10zM289 670
q20 4 30 4q58 3 125 -7.5t119 -35.5q145 -66 194 -80t113 -12q15 0 39 4q0 189 -83 296t-232 107q-123 0 -201.5 -71.5t-103.5 -204.5z" />
    <glyph glyph-name="uni0474" unicode="&#x474;" horiz-adv-x="1482" 
d="M43 1454h193l450 -1257l352 993q43 122 128 193t188 71h86v-172h-35q-77 0 -122 -41t-85 -147l-397 -1094h-232z" />
    <glyph glyph-name="uni0475" unicode="&#x475;" horiz-adv-x="1202" 
d="M1157 1085v-151h-20q-139 0 -195 -152l-285 -782h-217l-395 1085h184l320 -905l231 660q41 118 127 181.5t203 63.5h47z" />
    <glyph glyph-name="uni0490" unicode="&#x490;" horiz-adv-x="1060" 
d="M188 1454h646v318h176v-490h-645v-1282h-177v1454z" />
    <glyph glyph-name="uni0491" unicode="&#x491;" horiz-adv-x="882" 
d="M164 1085h498v318h176v-469h-502v-934h-172v1085z" />
    <glyph glyph-name="uni0492" unicode="&#x492;" horiz-adv-x="1314" 
d="M297 1454h967v-172h-791v-524h506v-172h-506v-586h-176v586h-150v172h150v696z" />
    <glyph glyph-name="uni0493" unicode="&#x493;" horiz-adv-x="1099" 
d="M244 1085h760v-151h-588v-307h334v-152h-334v-475h-172v475h-121v152h121v458z" />
    <glyph glyph-name="uni0496" unicode="&#x496;" horiz-adv-x="1986" 
d="M887 1454h176v-709l571 709h238l-586 -727l488 -584h168v-450h-177v307h-110l-592 711v-711h-176v711l-592 -711h-240l607 727l-586 727h239l572 -709v709z" />
    <glyph glyph-name="uni0497" unicode="&#x497;" horiz-adv-x="1773" 
d="M797 1085h172v-528l448 528h228l-461 -542l346 -391h147v-459h-172v307h-67l-469 528v-528h-172v528l-469 -528h-232l482 543l-461 542h231l449 -528v528z" />
    <glyph glyph-name="uni049A" unicode="&#x49a;" horiz-adv-x="1361" 
d="M188 1454h177v-711l651 711h239l-665 -727l551 -584h166v-450h-177v307h-94l-671 713v-713h-177v1454z" />
    <glyph glyph-name="uni049B" unicode="&#x49b;" 
d="M164 1085h176v-528l510 528h242l-535 -542l404 -391h172v-459h-172v307h-91l-530 528v-528h-176v1085z" />
    <glyph glyph-name="uni04A2" unicode="&#x4a2;" horiz-adv-x="1536" 
d="M188 0v1454h177v-637h710v637h176v-1311h138v-450h-177v307h-137v645h-710v-645h-177z" />
    <glyph glyph-name="uni04A3" unicode="&#x4a3;" horiz-adv-x="1347" 
d="M164 1085h172v-469h512v469h172v-933h164v-459h-172v307h-164v465h-512v-465h-172v1085z" />
    <glyph glyph-name="uni04AE" unicode="&#x4ae;" horiz-adv-x="1290" 
d="M43 1454h209l393 -674l393 674h209l-514 -860v-594h-176v594z" />
    <glyph glyph-name="uni04AF" unicode="&#x4af;" horiz-adv-x="1097" 
d="M1053 1085l-418 -1085v-307h-172v307l-418 1085h184l320 -878l319 878h185z" />
    <glyph glyph-name="uni04B0" unicode="&#x4b0;" horiz-adv-x="1290" 
d="M43 1454h209l393 -674l393 674h209l-485 -813h317v-172h-346v-469h-176v469h-346v172h317z" />
    <glyph glyph-name="uni04B1" unicode="&#x4b1;" horiz-adv-x="1097" 
d="M1053 1085l-389 -1009h213v-152h-242v-231h-172v231h-240v152h211l-389 1009h184l320 -878l319 878h185z" />
    <glyph glyph-name="uni04B2" unicode="&#x4b2;" horiz-adv-x="1361" 
d="M1026 1454h201l-473 -725l385 -586h168v-450h-177v307h-102l-385 590l-387 -590h-201l480 731l-476 723h205l383 -582z" />
    <glyph glyph-name="uni04B3" unicode="&#x4b3;" horiz-adv-x="1261" 
d="M872 1085h211l-374 -530l286 -403h170v-459h-172v307h-100l-293 422l-293 -422h-211l398 557l-377 528h211l272 -397z" />
    <glyph glyph-name="uni04B6" unicode="&#x4b6;" horiz-adv-x="1443" 
d="M82 958v496h176v-496q0 -141 78.5 -220t228.5 -79q179 0 292.5 85t113.5 217v493h176v-1311h149v-450h-176v307h-149v694q-46 -93 -156 -150t-250 -57q-231 0 -357 126t-126 345z" />
    <glyph glyph-name="uni04B7" unicode="&#x4b7;" horiz-adv-x="1359" 
d="M164 795v290h172v-290q0 -141 65 -224.5t174 -83.5q148 0 234 83.5t86 226.5v288h172v-933h160v-459h-172v307h-160v526q-39 -91 -125.5 -146.5t-194.5 -55.5q-189 0 -300 127t-111 344z" />
    <glyph glyph-name="uni04BA" unicode="&#x4ba;" horiz-adv-x="1335" 
d="M188 1454h177v-694q46 93 155.5 150t249.5 57q231 0 357 -126t126 -345v-496h-176v496q0 141 -78.5 220t-228.5 79q-179 0 -292 -84.5t-113 -216.5v-494h-177v1454z" />
    <glyph glyph-name="uni04BB" unicode="&#x4bb;" horiz-adv-x="1189" 
d="M164 1454h172v-516q44 86 130 129t193 43q169 0 268 -111.5t99 -300.5v-698h-172v637q0 309 -231 309q-132 0 -209.5 -80.5t-77.5 -228.5v-637h-172v1454z" />
    <glyph glyph-name="uni04C0" unicode="&#x4c0;" horiz-adv-x="552" 
d="M188 1454h177v-1454h-177v1454z" />
    <glyph glyph-name="uni04CF" unicode="&#x4cf;" horiz-adv-x="548" 
d="M188 1454h172v-1454h-172v1454z" />
    <glyph glyph-name="uni04D8" unicode="&#x4d8;" horiz-adv-x="1476" 
d="M1190 799q-9 145 -73.5 263.5t-168.5 185.5t-225 67q-131 0 -232 -73t-157 -216l-195 16q63 204 221 324.5t363 120.5q297 0 475 -206.5t178 -553.5q0 -221 -82.5 -394t-231.5 -269.5t-339 -96.5q-97 0 -183.5 25.5t-164 82t-135 140t-94.5 206.5t-44 275l-2 103h1090z
M291 627q29 -234 141.5 -361t290.5 -127q189 0 310 127.5t155 360.5h-897z" />
    <glyph glyph-name="uni04D9" unicode="&#x4d9;" horiz-adv-x="1161" 
d="M1065 543q0 -258 -135.5 -413t-362.5 -155q-93 0 -173 31.5t-145 95t-105 170t-46 246.5l-2 78h787q-12 166 -94.5 258t-221.5 92q-87 0 -160.5 -48.5t-109.5 -133.5l-184 14q47 152 172 242t282 90q227 0 362.5 -154.5t135.5 -412.5zM285 444q11 -82 37.5 -143
t65.5 -95.5t83.5 -50.5t95.5 -16q128 0 209 79.5t103 225.5h-594z" />
    <glyph glyph-name="uni04E2" unicode="&#x4e2;" horiz-adv-x="1511" 
d="M1323 1454v-1454h-176v1225l-703 -1225h-256v1454h177v-1245l712 1245h246zM492 1649v127h522v-127h-522z" />
    <glyph glyph-name="uni04E3" unicode="&#x4e3;" horiz-adv-x="1173" 
d="M1010 1085v-1085h-172v807l-461 -807h-213v1085h172v-823l471 823h203zM326 1280v127h522v-127h-522z" />
    <glyph glyph-name="uni04E8" unicode="&#x4e8;" horiz-adv-x="1529" 
d="M764 -33q-310 0 -487 203t-177 555q0 355 177 558.5t487 203.5q312 0 489 -203.5t177 -558.5q0 -353 -177.5 -555.5t-488.5 -202.5zM289 641q19 -235 144.5 -368.5t330.5 -133.5q206 0 332 133t145 369h-952zM289 813h952q-20 236 -145.5 369t-331.5 133
q-205 0 -330 -133t-145 -369z" />
    <glyph glyph-name="uni04E9" unicode="&#x4e9;" horiz-adv-x="1185" 
d="M594 -25q-226 0 -362 154.5t-136 413.5t136 413t362 154q225 0 360.5 -154t135.5 -413t-135.5 -413.5t-360.5 -154.5zM281 467q15 -156 96.5 -242t216.5 -86q133 0 214.5 86t96.5 242h-624zM281 618h624q-15 156 -96.5 242t-214.5 86q-135 0 -216.5 -86t-96.5 -242z" />
    <glyph glyph-name="uni04EE" unicode="&#x4ee;" horiz-adv-x="1110" 
d="M43 1454h190l326 -901l318 901h190l-463 -1284q-31 -87 -90 -128.5t-152 -41.5h-188v172h166q77 0 104 76l56 141h-60zM293 1649v127h522v-127h-522z" />
    <glyph glyph-name="uni04EF" unicode="&#x4ef;" horiz-adv-x="1099" 
d="M45 1085h184l326 -901l317 901h183l-441 -1222q-31 -87 -89.5 -128.5t-151.5 -41.5h-142v151h125q76 0 105 76l39 100h-58zM289 1280v127h522v-127h-522z" />
    <glyph glyph-name="uni0E3F" unicode="&#xe3f;" horiz-adv-x="1310" 
d="M188 0v1454h351v195h153v-199q208 -17 319 -120t111 -279q0 -115 -70 -195.5t-188 -103.5q150 -19 235 -109t85 -231q0 -189 -132.5 -300.5t-359.5 -111.5v-186h-153v186h-351zM365 172h174v481h-174v-481zM365 825h174v457h-174v-457zM692 172q142 0 224.5 64t82.5 176
q0 115 -80.5 178t-226.5 63v-481zM692 829q120 15 183 71.5t63 150.5q0 95 -63 153.5t-183 73.5v-449z" />
    <glyph glyph-name="uni1E20" unicode="&#x1e20;" horiz-adv-x="1449" 
d="M1339 0h-129l-16 238q-46 -120 -167.5 -195.5t-268.5 -75.5q-153 0 -278.5 59t-208 162t-127 240.5t-44.5 296.5q0 160 44.5 298t126.5 241.5t207.5 163t279.5 59.5q227 0 377 -129.5t198 -349.5l-184 -13q-38 151 -137 235.5t-254 84.5q-121 0 -213.5 -47.5t-148 -130
t-83.5 -187t-28 -225.5q0 -96 17 -181.5t54.5 -160t92 -128.5t134 -85t175.5 -31q184 0 291 118t120 306h-411v172h581v-735zM498 1649v127h522v-127h-522z" />
    <glyph glyph-name="uni1E21" unicode="&#x1e21;" horiz-adv-x="1222" 
d="M575 57q-211 0 -345 147.5t-134 379.5t133 379t344 147q111 0 198 -53.5t124 -143.5v172h164v-979q0 -210 -130.5 -324t-348.5 -114q-172 0 -294 86t-159 230l180 12q33 -78 103 -121t170 -43q144 0 225.5 61t81.5 175v178q-40 -86 -124.5 -137.5t-187.5 -51.5zM276 584
q0 -167 83.5 -265t226.5 -98q137 0 219.5 98t83.5 265q3 167 -79.5 264.5t-223.5 97.5q-143 0 -226.5 -97.5t-83.5 -264.5zM324 1280v127h522v-127h-522z" />
    <glyph glyph-name="Wgrave" unicode="&#x1e80;" horiz-adv-x="1865" 
d="M43 1454h193l299 -1212l296 1212h201l299 -1212l297 1212h195l-383 -1454h-221l-287 1098l-287 -1098h-219zM684 1882h190l130 -266h-134z" />
    <glyph glyph-name="wgrave" unicode="&#x1e81;" horiz-adv-x="1677" 
d="M930 1085l258 -895l260 895h184l-336 -1085h-217l-241 825l-242 -825h-215l-336 1085h184l258 -895l258 895h185zM592 1513h190l129 -266h-133z" />
    <glyph glyph-name="Wacute" unicode="&#x1e82;" horiz-adv-x="1865" 
d="M43 1454h193l299 -1212l296 1212h201l299 -1212l297 1212h195l-383 -1454h-221l-287 1098l-287 -1098h-219zM860 1616l129 266h191l-185 -266h-135z" />
    <glyph glyph-name="wacute" unicode="&#x1e83;" horiz-adv-x="1677" 
d="M930 1085l258 -895l260 895h184l-336 -1085h-217l-241 825l-242 -825h-215l-336 1085h184l258 -895l258 895h185zM768 1247l129 266h190l-184 -266h-135z" />
    <glyph glyph-name="Wdieresis" unicode="&#x1e84;" horiz-adv-x="1865" 
d="M43 1454h193l299 -1212l296 1212h201l299 -1212l297 1212h195l-383 -1454h-221l-287 1098l-287 -1098h-219zM690 1624v197h180v-197h-180zM1004 1624v197h180v-197h-180z" />
    <glyph glyph-name="wdieresis" unicode="&#x1e85;" horiz-adv-x="1677" 
d="M930 1085l258 -895l260 895h184l-336 -1085h-217l-241 825l-242 -825h-215l-336 1085h184l258 -895l258 895h185zM596 1255v197h180v-197h-180zM909 1255v197h181v-197h-181z" />
    <glyph glyph-name="uni1E9E" unicode="&#x1e9e;" horiz-adv-x="1419" 
d="M776 172q155 0 245.5 73.5t90.5 198.5q0 132 -102 206.5t-279 72.5l-209 -2v174l441 387h-365q-113 0 -173 -66t-60 -190v-1026h-177v1026q0 198 110.5 313t299.5 115h596v-188l-451 -398q245 6 397 -108.5t152 -306.5q0 -203 -140 -328t-376 -125h-274v172h274z" />
    <glyph glyph-name="uni1EBC" unicode="&#x1ebc;" horiz-adv-x="1234" 
d="M188 1454h914v-172h-737v-469h712v-168h-712v-473h753v-172h-930v1454zM305 1620q0 121 55 192.5t148 71.5q89 0 149 -57q8 -8 28 -28.5t29.5 -29t28.5 -17.5t39 -9q82 0 82 139h127q0 -120 -54.5 -193t-145.5 -73q-59 0 -96 19.5t-68 52.5q-6 5 -19.5 19t-20.5 20
t-19 14.5t-24.5 12t-27.5 3.5q-84 0 -84 -137h-127z" />
    <glyph glyph-name="uni1EBD" unicode="&#x1ebd;" horiz-adv-x="1161" 
d="M96 543q0 258 135.5 412.5t362.5 154.5q93 0 173 -31.5t145 -95t105 -170t46 -246.5l2 -78h-786q12 -166 94 -258t221 -92q87 0 160.5 49t109.5 134l185 -15q-47 -152 -172.5 -242t-282.5 -90q-227 0 -362.5 155t-135.5 413zM250 1245q0 121 55 192.5t148 71.5
q89 0 149 -57q8 -8 28 -28.5t29.5 -29t28.5 -17.5t39 -9q82 0 82 139h127q0 -120 -55 -193t-146 -73q-59 0 -96 19.5t-68 52.5l-19.5 19.5t-20.5 19.5t-18.5 14.5t-24 12t-27.5 3.5q-84 0 -84 -137h-127zM283 641h594q-20 159 -97.5 232t-185.5 73q-128 0 -208.5 -79.5
t-102.5 -225.5z" />
    <glyph glyph-name="Ygrave" unicode="&#x1ef2;" horiz-adv-x="1290" 
d="M43 1454h209l393 -674l393 674h209l-514 -860v-594h-176v594zM397 1882h191l129 -266h-133z" />
    <glyph glyph-name="ygrave" unicode="&#x1ef3;" horiz-adv-x="1099" 
d="M45 1085h184l326 -901l317 901h183l-441 -1222q-31 -87 -89.5 -128.5t-151.5 -41.5h-142v151h125q76 0 105 76l39 100h-58zM301 1513h191l129 -266h-134z" />
    <glyph glyph-name="uni1EF8" unicode="&#x1ef8;" horiz-adv-x="1290" 
d="M43 1454h209l393 -674l393 674h209l-514 -860v-594h-176v594zM303 1618q0 121 55 192.5t148 71.5q89 0 149 -57q8 -8 28 -28.5t29.5 -29t28.5 -17.5t39 -9q82 0 82 139h127q0 -120 -55 -193t-146 -73q-41 0 -74.5 11.5t-51 25t-37.5 35.5q-6 5 -19.5 19t-20.5 20
t-19 14.5t-24.5 12t-27.5 3.5q-84 0 -84 -137h-127z" />
    <glyph glyph-name="uni1EF9" unicode="&#x1ef9;" horiz-adv-x="1099" 
d="M45 1085h184l326 -901l317 901h183l-441 -1222q-31 -87 -89.5 -128.5t-151.5 -41.5h-142v151h125q76 0 105 76l39 100h-58zM207 1249q0 121 55 192.5t148 71.5q89 0 149 -57q8 -8 28 -28.5t29.5 -29t28.5 -17.5t39 -9q82 0 82 139h127q0 -120 -55 -193t-146 -73
q-59 0 -96 19.5t-68 52.5l-19.5 19.5t-20.5 19.5t-18.5 14.5t-24 12t-27.5 3.5q-84 0 -84 -137h-127z" />
    <glyph glyph-name="endash" unicode="&#x2013;" horiz-adv-x="1222" 
d="M96 678h1030v-160h-1030v160z" />
    <glyph glyph-name="emdash" unicode="&#x2014;" horiz-adv-x="1869" 
d="M96 678h1678v-160h-1678v160z" />
    <glyph glyph-name="quoteleft" unicode="&#x2018;" horiz-adv-x="421" 
d="M100 1167l117 316h100l-79 -316h84v-223h-220v223h-2z" />
    <glyph glyph-name="quoteright" unicode="&#x2019;" horiz-adv-x="421" 
d="M322 1233l-117 -315h-101l80 315h-84v223h219v-223h3z" />
    <glyph glyph-name="quotesinglbase" unicode="&#x201a;" horiz-adv-x="421" 
d="M322 0l-117 -315h-101l80 315h-84v223h219v-223h3z" />
    <glyph glyph-name="quotedblleft" unicode="&#x201c;" horiz-adv-x="759" 
d="M100 1167l117 316h100l-79 -316h84v-223h-220v223h-2zM438 1167l117 316h100l-80 -316h84v-223h-219v223h-2z" />
    <glyph glyph-name="quotedblright" unicode="&#x201d;" horiz-adv-x="759" 
d="M659 1231l-116 -316h-101l80 316h-84v223h219v-223h2zM100 1231v223h219v-223h3l-117 -316h-101l80 316h-84z" />
    <glyph glyph-name="quotedblbase" unicode="&#x201e;" horiz-adv-x="759" 
d="M659 0l-116 -315h-101l80 315h-84v223h219v-223h2zM100 0v223h219v-223h3l-117 -315h-101l80 315h-84z" />
    <glyph glyph-name="dagger" unicode="&#x2020;" horiz-adv-x="1167" 
d="M504 1454h162v-369h313v-151h-313v-934h-162v934h-316v151h316v369z" />
    <glyph glyph-name="daggerdbl" unicode="&#x2021;" horiz-adv-x="1167" 
d="M504 1454h162v-369h313v-151h-313v-752h313v-153h-313v-336h-162v336h-316v153h316v752h-316v151h316v369z" />
    <glyph glyph-name="bullet" unicode="&#x2022;" horiz-adv-x="602" 
d="M301 362q-87 0 -146 56.5t-59 142.5q0 88 59 144.5t146 56.5q90 0 147.5 -56t57.5 -145q0 -86 -58 -142.5t-147 -56.5z" />
    <glyph glyph-name="ellipsis" unicode="&#x2026;" horiz-adv-x="1169" 
d="M96 223h219v-223h-219v223zM473 0v223h219v-223h-219zM854 0v223h219v-223h-219z" />
    <glyph glyph-name="perthousand" unicode="&#x2030;" horiz-adv-x="2236" 
d="M1845 0q-124 0 -209.5 102.5t-85.5 251.5q0 148 85.5 250.5t209.5 102.5q123 0 209 -102.5t86 -250.5q0 -149 -86 -251.5t-209 -102.5zM96 1102q0 149 86 251.5t209 102.5t209 -102.5t86 -251.5q0 -148 -86 -250t-209 -102t-209 102t-86 250zM164 -25l1061 1512h194
l-1061 -1512h-194zM252 1102q0 -91 37.5 -144t101.5 -53q65 0 103 53t38 144t-38 144.5t-103 53.5q-64 0 -101.5 -53.5t-37.5 -144.5zM887 354q0 148 86 250.5t209 102.5t209 -102.5t86 -250.5q0 -149 -86 -251.5t-209 -102.5t-209 102.5t-86 251.5zM1042 354
q0 -91 38 -144.5t102 -53.5q65 0 103 53.5t38 144.5t-38 144t-103 53q-64 0 -102 -53t-38 -144zM1704 354q0 -91 38 -144.5t103 -53.5t103.5 53.5t38.5 144.5q0 90 -38.5 143.5t-103.5 53.5t-103 -53t-38 -144z" />
    <glyph glyph-name="minute" unicode="&#x2032;" horiz-adv-x="512" 
d="M416 1513l-185 -266h-135l129 266h191z" />
    <glyph glyph-name="second" unicode="&#x2033;" horiz-adv-x="761" 
d="M416 1513l-185 -266h-135l129 266h191zM346 1247l129 266h191l-185 -266h-135z" />
    <glyph glyph-name="guilsinglleft" unicode="&#x2039;" horiz-adv-x="686" 
d="M379 975h211l-348 -410l348 -409h-211l-283 333v152z" />
    <glyph glyph-name="guilsinglright" unicode="&#x203a;" horiz-adv-x="686" 
d="M307 975l283 -334v-152l-283 -333h-211l348 409l-348 410h211z" />
    <glyph glyph-name="fraction" unicode="&#x2044;" 
d="M1202 1454l-1003 -1454h-172l1003 1454h172z" />
    <glyph glyph-name="uni2070" unicode="&#x2070;" 
d="M614 635q-142 0 -225.5 114.5t-83.5 309.5q0 197 83.5 312.5t225.5 115.5t226 -115.5t84 -312.5q0 -195 -83.5 -309.5t-226.5 -114.5zM430 1059q0 -89 21 -154l264 424q-40 37 -101 37q-88 0 -136 -79t-48 -228zM514 793q40 -37 100 -37q88 0 136.5 79.5t48.5 223.5
q0 93 -21 160z" />
    <glyph glyph-name="uni2074" unicode="&#x2074;" 
d="M780 1456v-518h90v-121h-90v-155h-131v155h-379v103l406 536h104zM440 938h209v279z" />
    <glyph glyph-name="uni2075" unicode="&#x2075;" 
d="M838 1456v-121h-314l-26 -205q60 60 139 60q111 0 183.5 -80.5t72.5 -200.5q0 -126 -78 -204t-201 -78q-112 0 -189.5 63.5t-86.5 163.5l131 6q10 -52 51.5 -82t97.5 -30q62 0 103 45t41 116q0 69 -41.5 116.5t-102.5 47.5q-44 0 -77.5 -15t-63.5 -65h-125l64 463h422z
" />
    <glyph glyph-name="uni2076" unicode="&#x2076;" 
d="M762 1282q-29 84 -123 84q-77 0 -123 -68.5t-59 -175.5q68 88 182 88q108 0 180 -78.5t72 -205.5q0 -131 -78 -210t-197 -79q-91 0 -155.5 53.5t-93.5 137t-29 186.5q0 94 17 176.5t51.5 150t94.5 107t138 39.5q87 0 155 -50.5t95 -142.5zM477 926q-2 -75 37.5 -121.5
t103.5 -46.5q67 0 104.5 46t37.5 122q0 75 -36 119.5t-103 44.5q-61 0 -102 -45.5t-42 -118.5z" />
    <glyph glyph-name="uni2077" unicode="&#x2077;" 
d="M340 1454h565v-90q-268 -343 -268 -705h-131q0 355 246 674h-412v121z" />
    <glyph glyph-name="uni2078" unicode="&#x2078;" 
d="M614 637q-126 0 -207 66t-81 176q0 75 40.5 132.5t114.5 86.5q-116 49 -116 166q0 96 72 159.5t177 63.5q106 0 178 -63.5t72 -159.5q0 -117 -116 -166q73 -31 114 -88t41 -131q0 -110 -81.5 -176t-207.5 -66zM457 887q0 -60 43 -94.5t114 -34.5t114.5 35t43.5 94
q0 65 -44 106t-114 41t-113.5 -41t-43.5 -106zM496 1264q0 -53 32 -84t86 -31t86.5 31.5t32.5 83.5q0 47 -32.5 74.5t-86.5 27.5t-86 -27.5t-32 -74.5z" />
    <glyph glyph-name="uni2079" unicode="&#x2079;" 
d="M473 842q29 -84 123 -84q74 0 122.5 64.5t61.5 181.5q-68 -91 -184 -91q-108 0 -180 79t-72 206q0 131 77.5 210t196.5 79q90 0 155 -53.5t94.5 -137t29.5 -186.5q0 -218 -81.5 -345.5t-219.5 -127.5q-87 0 -156 50.5t-96 141.5zM475 1198q0 -75 36 -119.5t103 -44.5
q60 0 102.5 46t43.5 118q1 74 -39.5 121t-104.5 47q-66 0 -103.5 -46t-37.5 -122z" />
    <glyph glyph-name="uni2080" unicode="&#x2080;" 
d="M614 -31q-142 0 -225.5 114.5t-83.5 309.5q0 197 83.5 312.5t225.5 115.5t226 -115.5t84 -312.5q0 -195 -83.5 -309.5t-226.5 -114.5zM430 393q0 -89 21 -153l264 424q-39 36 -101 36q-88 0 -136 -79t-48 -228zM514 127q40 -37 100 -37q88 0 136.5 79.5t48.5 223.5
q0 93 -21 160z" />
    <glyph glyph-name="uni2081" unicode="&#x2081;" 
d="M416 612q89 0 135.5 47.5t46.5 135.5h102v-795h-137v514l-196 -2v100h49z" />
    <glyph glyph-name="uni2082" unicode="&#x2082;" 
d="M338 563q13 118 89.5 188t190.5 70q108 0 177 -64t69 -165q0 -147 -190 -275l-58 -38q-134 -91 -137 -158h389v-121h-540q0 53 8.5 97.5t32 95.5t72.5 101.5t122 98.5l66 43q104 67 104 156q0 49 -32.5 78.5t-82.5 29.5q-122 0 -149 -143z" />
    <glyph glyph-name="uni2083" unicode="&#x2083;" 
d="M606 479q54 0 90.5 34t36.5 75q0 47 -34 79.5t-85 32.5q-53 0 -87.5 -24t-39.5 -60l-131 9q12 83 86.5 139.5t171.5 56.5q106 0 178 -62t72 -151q0 -60 -35.5 -110t-99.5 -70q71 -22 118.5 -84t47.5 -135q0 -101 -81 -171.5t-198 -70.5q-118 0 -200 66.5t-88 163.5l131 6
q5 -50 49 -82.5t108 -32.5q63 0 105.5 37t42.5 92q0 60 -45.5 102.5t-112.5 42.5h-51v117h51z" />
    <glyph glyph-name="uni2084" unicode="&#x2084;" 
d="M780 795v-519h90v-120h-90v-156h-131v156h-379v102l406 537h104zM440 276h209v279z" />
    <glyph glyph-name="uni2085" unicode="&#x2085;" 
d="M838 797v-121h-314l-26 -205q59 59 139 59q112 0 184 -80t72 -200q0 -126 -78 -204.5t-201 -78.5q-112 0 -189.5 64t-86.5 164l131 6q10 -52 51.5 -82.5t97.5 -30.5q62 0 103 45.5t41 116.5q0 69 -41.5 116.5t-102.5 47.5q-44 0 -77.5 -15t-63.5 -65h-125l64 463h422z
" />
    <glyph glyph-name="uni2086" unicode="&#x2086;" 
d="M762 612q-29 84 -123 84q-77 0 -123 -68t-59 -175q68 88 182 88q108 0 180 -79t72 -206q0 -131 -78 -210t-197 -79q-91 0 -155.5 53.5t-93.5 137t-29 186.5q0 94 17 176.5t51.5 150t94.5 107t138 39.5q87 0 155 -50t95 -142zM477 256q-2 -75 37.5 -121.5t103.5 -46.5
q67 0 104.5 46t37.5 122q0 75 -36 119.5t-103 44.5q-61 0 -102 -45.5t-42 -118.5z" />
    <glyph glyph-name="uni2087" unicode="&#x2087;" 
d="M340 793h565v-91q-268 -343 -268 -704h-131q0 355 246 674h-412v121z" />
    <glyph glyph-name="uni2088" unicode="&#x2088;" 
d="M614 -33q-126 0 -207 66t-81 176q0 75 40.5 132.5t114.5 86.5q-116 49 -116 166q0 96 72 159.5t177 63.5q106 0 178 -63.5t72 -159.5q0 -117 -116 -166q73 -31 114 -88t41 -131q0 -110 -81.5 -176t-207.5 -66zM457 217q0 -60 43 -94.5t114 -34.5t114.5 35t43.5 94
q0 65 -44 106.5t-114 41.5t-113.5 -41.5t-43.5 -106.5zM496 594q0 -53 32 -84t86 -31t86.5 31.5t32.5 83.5q0 47 -32.5 74.5t-86.5 27.5t-86 -27.5t-32 -74.5z" />
    <glyph glyph-name="uni2089" unicode="&#x2089;" 
d="M473 172q29 -84 123 -84q74 0 122.5 64.5t61.5 181.5q-67 -90 -184 -90q-108 0 -180 78.5t-72 205.5q0 131 77.5 210t196.5 79q90 0 155 -53.5t94.5 -137t29.5 -186.5q0 -218 -81.5 -345.5t-219.5 -127.5q-87 0 -156 51t-96 142zM475 528q0 -75 36 -119t103 -44
q60 0 102.5 45.5t43.5 117.5q1 74 -39.5 121t-104.5 47q-66 0 -103.5 -46t-37.5 -122z" />
    <glyph glyph-name="uni20AA" unicode="&#x20aa;" horiz-adv-x="1583" 
d="M745 1454q141 0 223.5 -83t82.5 -224v-830h-177v840q0 59 -33 93t-91 34h-385v-1284h-177v1454h557zM532 0v1137h177v-967h385q58 0 91.5 34t33.5 93v1157h176v-1147q0 -141 -82 -224t-223 -83h-558z" />
    <glyph glyph-name="Euro" unicode="&#x20ac;" horiz-adv-x="1505" 
d="M1415 459q-39 -220 -178.5 -356t-345.5 -136q-209 0 -360.5 142t-208.5 372h-201v152h176q-4 62 -4 92q0 47 2 72h-174v151h194q54 241 207 390t369 149q188 0 326.5 -127.5t185.5 -331.5l-184 -12q-34 134 -122.5 216.5t-205.5 82.5q-148 0 -247.5 -100.5t-139.5 -266.5
h397l-22 -151h-400q-2 -25 -2 -72q0 -30 4 -92h379l-22 -152h-328q43 -156 141 -249t240 -93q124 0 215 92.5t121 239.5z" />
    <glyph glyph-name="uni20B4" unicode="&#x20b4;" horiz-adv-x="1378" 
d="M121 481v152h1136v-152h-860q-39 -51 -39 -104q0 -101 86.5 -165.5t221.5 -64.5q113 0 202.5 57t130.5 154l203 -16q-50 -169 -191 -268t-335 -99q-221 0 -361.5 112.5t-140.5 289.5q0 52 27 104h-80zM121 797v151h840q51 51 51 131q0 103 -84.5 169.5t-214.5 66.5
q-101 0 -183 -62.5t-131 -177.5l-194 19q47 181 177.5 287t305.5 106q233 0 370.5 -110.5t137.5 -297.5q0 -65 -39 -131h100v-151h-1136z" />
    <glyph glyph-name="uni20B9" unicode="&#x20b9;" horiz-adv-x="1390" 
d="M805 0l-617 565v172h398q276 0 323 195h-721v153h723q-44 197 -325 197h-398v172h1076v-151h-265q79 -88 97 -218h168v-153h-170q-26 -174 -158.5 -270.5t-349.5 -96.5h-156l621 -565h-246z" />
    <glyph glyph-name="uni20BD" unicode="&#x20bd;" horiz-adv-x="1472" 
d="M852 1454q243 0 378.5 -116.5t135.5 -323.5q0 -211 -135.5 -330t-378.5 -119h-346v-164h235v-151h-235v-250h-176v250h-236v151h236v1053h522zM506 737h346q164 0 247 70t83 207q0 268 -330 268h-346v-545z" />
    <glyph glyph-name="uni2107" unicode="&#x2107;" horiz-adv-x="1212" 
d="M1130 180q-80 -94 -225.5 -153.5t-296.5 -59.5q-235 0 -380.5 120.5t-145.5 311.5q0 142 78.5 242.5t228.5 144.5q-258 77 -258 322q0 167 133 273t344 106q133 0 266.5 -55.5t208.5 -141.5l-114 -141q-65 76 -166.5 125t-194.5 49q-136 0 -216.5 -58.5t-80.5 -156.5
q0 -54 18 -98.5t47 -73.5t68 -48.5t80 -28t84 -7.5l111 2v-162l-111 2q-158 3 -252 -74t-94 -206q0 -127 94.5 -205t251.5 -78q106 0 223 54.5t189 140.5z" />
    <glyph glyph-name="uni2116" unicode="&#x2116;" horiz-adv-x="2232" 
d="M188 1454h246l713 -1245v1245h176v-1454h-256l-702 1225v-1225h-177v1454zM1454 643q0 162 80 257t215 95q136 0 215.5 -94.5t79.5 -257.5t-79.5 -258.5t-215.5 -95.5q-135 0 -215 95.5t-80 258.5zM1485 0v160h528v-160h-528zM1610 643q0 -96 36 -147.5t103 -51.5
q69 0 106 52t37 147t-37 146t-106 51q-67 0 -103 -51t-36 -146z" />
    <glyph glyph-name="uni2117" unicode="&#x2117;" horiz-adv-x="1232" 
d="M629 1247q107 0 170 -47t63 -127q0 -82 -59.5 -126t-169.5 -44h-86v-217h-105v561h187zM100 971q0 140 68.5 259t187.5 188t260 69t260 -69t188 -188t69 -259q0 -141 -69 -261t-188 -189.5t-260 -69.5q-106 0 -201.5 41t-164.5 111t-109.5 166t-40.5 202zM215 971
q0 -166 118.5 -285t282.5 -119t283 119t119 285q0 164 -118.5 281.5t-283.5 117.5q-164 0 -282.5 -117.5t-118.5 -281.5zM547 991h98q55 0 85 23t30 63q0 38 -30 59t-85 21h-98v-166z" />
    <glyph glyph-name="trademark" unicode="&#x2122;" horiz-adv-x="1822" 
d="M188 1454h578v-115h-227v-604h-121v604h-230v115zM868 735v719h166l217 -594l219 594h164v-719h-121v496l-186 -496h-151l-187 496v-496h-121z" />
    <glyph glyph-name="uni2153" unicode="&#x2153;" horiz-adv-x="1968" 
d="M1554 1454l-1003 -1454h-172l1003 1454h172zM100 1174v100h50q89 0 135.5 47t46.5 135h102v-794h-137v514zM1300 197l132 6q5 -50 49 -82.5t108 -32.5q63 0 105.5 37t42.5 92q0 60 -45.5 102.5t-112.5 42.5h-51v117h51q54 0 90.5 34t36.5 75q0 47 -34 79.5t-85 32.5
q-53 0 -87.5 -24t-39.5 -60l-131 9q12 83 86.5 139.5t171.5 56.5q106 0 178 -62t72 -151q0 -60 -35.5 -110t-99.5 -70q71 -22 118.5 -84t47.5 -135q0 -101 -81 -171.5t-198 -70.5q-118 0 -200.5 66.5t-88.5 163.5z" />
    <glyph glyph-name="uni2154" unicode="&#x2154;" horiz-adv-x="1953" 
d="M1540 1454l-1003 -1454h-172l1003 1454h172zM100 666q0 53 9 97.5t32.5 95.5t72.5 101.5t122 98.5l65 43q56 36 80.5 73t24.5 82q0 49 -32.5 79t-82.5 30q-122 0 -149 -143l-131 6q13 118 89.5 188t190.5 70q107 0 176.5 -64.5t69.5 -165.5q0 -146 -191 -274l-57 -39
q-134 -91 -137 -158h389v-120h-541zM1286 197l131 6q5 -50 49.5 -82.5t108.5 -32.5q63 0 105 37t42 92q0 61 -45 103t-112 42h-52v117h52q54 0 90.5 34t36.5 75q0 47 -34 79.5t-85 32.5q-53 0 -87.5 -24t-39.5 -60l-131 9q12 83 86.5 139.5t171.5 56.5q106 0 178 -62
t72 -151q0 -60 -35.5 -110t-99.5 -70q71 -22 118 -84t47 -135q0 -101 -80.5 -171.5t-197.5 -70.5q-118 0 -200.5 66.5t-88.5 163.5z" />
    <glyph glyph-name="uni2155" unicode="&#x2155;" horiz-adv-x="1945" 
d="M1554 1454l-1003 -1454h-172l1003 1454h172zM100 1174v100h50q89 0 135.5 47t46.5 135h102v-794h-137v514zM1290 195l131 6q10 -52 52 -82.5t98 -30.5q62 0 102.5 45.5t40.5 116.5q0 69 -41 116.5t-102 47.5q-44 0 -77.5 -15t-63.5 -65h-125l63 463h422v-121h-313
l-27 -205q59 59 139 59q112 0 184 -80t72 -200q0 -126 -77.5 -204.5t-200.5 -78.5q-112 0 -190 64t-87 164z" />
    <glyph glyph-name="oneeighth" unicode="&#x215b;" horiz-adv-x="1964" 
d="M1554 1454l-1003 -1454h-172l1003 1454h172zM100 1174v100h50q89 0 135.5 47t46.5 135h102v-794h-137v514zM1286 209q0 75 41 132.5t115 86.5q-117 49 -117 166q0 96 72.5 159.5t177.5 63.5q106 0 178 -63.5t72 -159.5q0 -117 -117 -166q73 -31 114.5 -88t41.5 -131
q0 -110 -81.5 -176t-207.5 -66t-207.5 66t-81.5 176zM1417 217q0 -59 43.5 -94t114.5 -35t114.5 35t43.5 94q0 65 -44 106.5t-114 41.5t-114 -41.5t-44 -106.5zM1456 594q0 -52 32.5 -83.5t86.5 -31.5t86.5 31.5t32.5 83.5q0 47 -32.5 74.5t-86.5 27.5t-86.5 -27.5
t-32.5 -74.5z" />
    <glyph glyph-name="threeeighths" unicode="&#x215c;" horiz-adv-x="1998" 
d="M1589 1454l-1003 -1454h-172l1003 1454h172zM100 862l131 6q5 -50 49.5 -82t108.5 -32q63 0 105.5 37t42.5 92q0 60 -45.5 102.5t-112.5 42.5h-51v117h51q54 0 90.5 33.5t36.5 74.5q0 48 -34 80.5t-85 32.5q-53 0 -87.5 -24t-39.5 -60l-131 8q12 83 86.5 140t171.5 57
q106 0 178 -62t72 -151q0 -60 -35.5 -110t-99.5 -70q71 -22 118.5 -84.5t47.5 -135.5q0 -101 -81 -171t-198 -70q-118 0 -200.5 66t-88.5 163zM1321 209q0 75 41 132.5t115 86.5q-117 49 -117 166q0 96 72.5 159.5t177.5 63.5q106 0 178 -63.5t72 -159.5q0 -117 -117 -166
q73 -31 114 -88t41 -131q0 -110 -81 -176t-207 -66t-207.5 66t-81.5 176zM1452 217q0 -59 43.5 -94t114.5 -35t114 34.5t43 94.5q0 65 -43.5 106.5t-113.5 41.5t-114 -41.5t-44 -106.5zM1491 594q0 -52 32.5 -83.5t86.5 -31.5t86.5 31.5t32.5 83.5q0 47 -32.5 74.5
t-86.5 27.5t-86.5 -27.5t-32.5 -74.5z" />
    <glyph glyph-name="fiveeighths" unicode="&#x215d;" horiz-adv-x="1988" 
d="M1579 1454l-1004 -1454h-172l1004 1454h172zM100 854l131 6q10 -52 51.5 -82t98.5 -30q62 0 102.5 45t40.5 116q0 69 -41 116.5t-102 47.5q-44 0 -77.5 -15t-63.5 -65h-125l63 463h422v-121h-313l-27 -205q60 60 139 60q111 0 183.5 -80.5t72.5 -200.5q0 -126 -77.5 -204
t-200.5 -78q-113 0 -190.5 63.5t-86.5 163.5zM1311 209q0 75 40.5 132.5t114.5 86.5q-116 49 -116 166q0 96 72 159.5t177 63.5q106 0 178 -63.5t72 -159.5q0 -117 -116 -166q73 -31 114 -88t41 -131q0 -110 -81.5 -176t-207.5 -66t-207 66t-81 176zM1442 217
q0 -60 43 -94.5t114 -34.5t114.5 35t43.5 94q0 65 -44 106.5t-114 41.5t-113.5 -41.5t-43.5 -106.5zM1481 594q0 -53 32 -84t86 -31t86.5 31.5t32.5 83.5q0 47 -32.5 74.5t-86.5 27.5t-86 -27.5t-32 -74.5z" />
    <glyph glyph-name="seveneighths" unicode="&#x215e;" horiz-adv-x="2457" 
d="M1817 1454l-1004 -1454h-172l1004 1454h172zM340 1333v121h565v-90q-268 -343 -268 -705h-131q0 355 246 674h-412zM1548 209q0 75 41 132.5t115 86.5q-117 49 -117 166q0 96 72.5 159.5t177.5 63.5q106 0 178 -63.5t72 -159.5q0 -117 -117 -166q73 -31 114.5 -88
t41.5 -131q0 -110 -81.5 -176t-207.5 -66t-207.5 66t-81.5 176zM1679 217q0 -59 43.5 -94t114.5 -35t114.5 35t43.5 94q0 65 -44 106.5t-114 41.5t-114 -41.5t-44 -106.5zM1718 594q0 -52 32.5 -83.5t86.5 -31.5t86.5 31.5t32.5 83.5q0 47 -32.5 74.5t-86.5 27.5
t-86.5 -27.5t-32.5 -74.5z" />
    <glyph glyph-name="arrowleft" unicode="&#x2190;" horiz-adv-x="1654" 
d="M100 725l635 637h228l-553 -553h1144v-168h-1140l551 -553h-228z" />
    <glyph glyph-name="arrowup" unicode="&#x2191;" horiz-adv-x="1474" 
d="M737 1454l637 -637v-227l-553 551v-1141h-168v1145l-553 -553v227z" />
    <glyph glyph-name="arrowright" unicode="&#x2192;" horiz-adv-x="1654" 
d="M1554 725l-636 -637h-228l551 553h-1141v168h1145l-553 553h228z" />
    <glyph glyph-name="arrowdown" unicode="&#x2193;" horiz-adv-x="1474" 
d="M737 0l-637 635v227l553 -553v1145h168v-1141l553 551v-227z" />
    <glyph glyph-name="arrowboth" unicode="&#x2194;" horiz-adv-x="2138" 
d="M2038 725l-637 -637h-227l550 553h-1310l551 -553h-228l-637 637l635 637h228l-553 -553h1319l-553 553h227z" />
    <glyph glyph-name="arrowupdn" unicode="&#x2195;" horiz-adv-x="1474" 
d="M737 -330l-637 637v228l553 -551v1310l-553 -551v228l637 637l637 -635v-228l-553 553v-1318l553 552v-227z" />
    <glyph glyph-name="uni2196" unicode="&#x2196;" horiz-adv-x="1288" 
d="M100 1456l901 2l160 -160h-782l809 -811l-119 -118l-805 807l-2 -781l-162 162v899z" />
    <glyph glyph-name="uni2197" unicode="&#x2197;" horiz-adv-x="1288" 
d="M1188 1456v-899l-162 -162l-2 781l-805 -807l-119 118l809 811h-782l160 160z" />
    <glyph glyph-name="uni2198" unicode="&#x2198;" horiz-adv-x="1290" 
d="M1188 4h-899l-162 162l780 2l-807 805l119 119l811 -809v782l160 -160z" />
    <glyph glyph-name="uni2199" unicode="&#x2199;" horiz-adv-x="1290" 
d="M102 4l-2 901l160 160v-782l811 809l119 -119l-807 -805l780 -2l-162 -162h-899z" />
    <glyph glyph-name="uni219D" unicode="&#x219d;" horiz-adv-x="1349" 
d="M100 635q11 63 43.5 120t78.5 96.5t98.5 63t108.5 22.5t103 -28q70 -41 95 -94.5t35 -130.5q4 -45 8 -69t19.5 -53t43.5 -44q48 -27 99 7t100 118l-166 98l438 203l45 -485l-178 104q-84 -140 -196.5 -191t-217.5 7q-60 35 -87 82.5t-38 111.5q-2 15 -5.5 46t-6 47
t-9.5 38t-19.5 37.5t-32.5 26.5q-51 29 -105.5 -8.5t-85.5 -124.5h-168z" />
    <glyph glyph-name="uni21A9" unicode="&#x21a9;" horiz-adv-x="1357" 
d="M807 504h-410l262 -262h-217l-342 342l338 340h219l-264 -260h414q122 0 206.5 78t84.5 190q0 114 -84.5 192t-206.5 78h-604v160h604q189 0 319.5 -124.5t130.5 -305.5t-130.5 -304.5t-319.5 -123.5z" />
    <glyph glyph-name="uni21AA" unicode="&#x21aa;" horiz-adv-x="1357" 
d="M551 504q-190 0 -320.5 123.5t-130.5 304.5t131 305.5t320 124.5h604v-160h-604q-122 0 -206.5 -78t-84.5 -192q0 -112 84.5 -190t206.5 -78h414l-265 260h220l337 -340l-342 -342h-217l263 262h-410z" />
    <glyph glyph-name="uni21B0" unicode="&#x21b0;" horiz-adv-x="1372" 
d="M100 911l396 330v-246h776v-995h-168v827h-606v-245z" />
    <glyph glyph-name="uni21B1" unicode="&#x21b1;" horiz-adv-x="1372" 
d="M1272 911l-398 -329v245h-606v-827h-168v995h777v246z" />
    <glyph glyph-name="uni21B3" unicode="&#x21b3;" horiz-adv-x="1372" 
d="M1272 543l-395 -330v246h-777v995h168v-827h606v245z" />
    <glyph glyph-name="uni21B4" unicode="&#x21b4;" horiz-adv-x="1382" 
d="M952 0l-329 397h249v895h-772v160h932v-1057h250z" />
    <glyph glyph-name="carriagereturn" unicode="&#x21b5;" horiz-adv-x="1372" 
d="M100 543l398 329v-245h606v827h168v-995h-776v-246z" />
    <glyph glyph-name="uni21E4" unicode="&#x21e4;" horiz-adv-x="1390" 
d="M336 725l393 330v-250h561v-160h-559v-250zM100 326v798h160v-798h-160z" />
    <glyph glyph-name="uni21E5" unicode="&#x21e5;" horiz-adv-x="1390" 
d="M1055 725l-396 -330v250h-559v160h562v250zM1130 326v798h160v-798h-160z" />
    <glyph glyph-name="uni21E7" unicode="&#x21e7;" horiz-adv-x="1634" 
d="M633 864h-211l397 396l395 -396h-208v-704h-373v704zM43 705h430v-705h692v705h426l-772 772z" />
    <glyph glyph-name="partialdiff" unicode="&#x2202;" horiz-adv-x="1222" 
d="M633 971q111 -11 195 -69.5t128 -156.5q-3 271 -158 442.5t-421 196.5l41 158q130 -13 238.5 -55.5t184.5 -104.5t133 -141.5t89 -169t47.5 -185.5t11.5 -191t-20.5 -186t-46.5 -170t-70.5 -143.5t-87.5 -105.5q-160 -133 -336 -115q-225 19 -354 168t-109 367
q20 233 164.5 357t370.5 104zM279 496q-15 -153 62.5 -250.5t217.5 -112.5q148 -12 252 103t117 307q-20 116 -105 185.5t-205 78.5q-138 12 -233.5 -75t-105.5 -236z" />
    <glyph glyph-name="uni2206" unicode="&#x2206;" horiz-adv-x="1333" 
d="M43 160l510 1294h229l508 -1294v-160h-1247v160zM213 160h907l-452 1149z" />
    <glyph glyph-name="product" unicode="&#x220f;" horiz-adv-x="1261" 
d="M1210 1454v-160h-221v-1601h-160v1601h-389v-1601h-159v1601h-230v160h1159z" />
    <glyph glyph-name="summation" unicode="&#x2211;" horiz-adv-x="1083" 
d="M55 1454h973v-172h-772l373 -555l-373 -555h772v-172h-973v172l373 555l-373 555v172z" />
    <glyph glyph-name="minus" unicode="&#x2212;" horiz-adv-x="1167" 
d="M96 684h975v-162h-975v162z" />
    <glyph glyph-name="radical" unicode="&#x221a;" horiz-adv-x="1249" 
d="M1204 1454v-151h-438l-311 -1610h-203l-207 995h164l141 -692l281 1458h573z" />
    <glyph glyph-name="infinity" unicode="&#x221e;" horiz-adv-x="1722" 
d="M768 555q-57 98 -133 151t-164 54q-81 0 -138 -60t-57 -145t57 -145t138 -60q87 0 163.5 53t133.5 152zM96 555q0 149 104.5 254.5t250.5 105.5q127 0 236 -65.5t175 -181.5q65 118 175.5 181.5t242.5 65.5q143 0 244.5 -105.5t101.5 -254.5t-101.5 -254.5t-244.5 -105.5
q-130 0 -243 63t-175 182q-63 -117 -174 -181t-237 -64q-146 0 -250.5 105.5t-104.5 254.5zM954 555q59 -100 136.5 -153t166.5 -52q78 2 133.5 62t55.5 143t-55.5 142t-133.5 61q-87 1 -165 -51t-138 -152z" />
    <glyph glyph-name="integral" unicode="&#x222b;" horiz-adv-x="774" 
d="M0 -305l14 153l99 -4q55 -1 87 29t38 86l133 1221q15 137 93.5 207t215.5 67l94 -2l-14 -154l-94 5q-56 3 -88.5 -27.5t-38.5 -87.5l-136 -1221q-31 -280 -309 -274z" />
    <glyph glyph-name="approxequal" unicode="&#x2248;" horiz-adv-x="1099" 
d="M96 637q0 161 73 262.5t193 101.5q76 0 123.5 -30t89.5 -84q4 -5 18.5 -24t19.5 -25t18 -20.5t21.5 -20t21.5 -13.5t26.5 -11t28.5 -3q113 0 113 211h162q0 -160 -73.5 -261.5t-195.5 -101.5q-42 0 -76.5 10t-62 31.5t-44 39t-38.5 46.5q-3 4 -15.5 19.5t-16 20t-15 16.5
t-17 16.5t-16.5 12.5t-20 11t-21 6t-24 3q-111 0 -111 -213h-162zM96 190q0 160 73 261.5t193 101.5q111 0 191 -84q14 -16 39.5 -50t40 -50.5t40.5 -31.5t56 -15q113 0 113 213h162q0 -160 -73.5 -262.5t-195.5 -102.5q-45 0 -80.5 10.5t-65 35t-43.5 40t-40 49.5
q-35 48 -65 72t-72 24q-111 0 -111 -211h-162z" />
    <glyph glyph-name="notequal" unicode="&#x2260;" horiz-adv-x="1167" 
d="M674 1085h157l-55 -182h295v-160h-344l-80 -262h424v-159h-473l-86 -281h-158l86 281h-344v159h393l80 262h-473v160h522z" />
    <glyph glyph-name="lessequal" unicode="&#x2264;" horiz-adv-x="1167" 
d="M1071 160v-160h-975v160h975zM96 600v217l975 270v-165l-801 -213l801 -211v-168z" />
    <glyph glyph-name="greaterequal" unicode="&#x2265;" horiz-adv-x="1167" 
d="M96 160h975v-160h-975v160zM96 330v168l801 211l-801 213v165l975 -270v-217z" />
    <glyph glyph-name="uni23CE" unicode="&#x23ce;" horiz-adv-x="1753" 
d="M694 475v-235l-377 378l377 377v-233h510v532h289v-819h-799zM100 618l756 -757v452h797v1141h-611v-530h-186v450z" />
    <glyph glyph-name="uni240B" unicode="&#x240b;" 
d="M1122 821v-100h-194v-576h-105v576h-194v100h493zM106 1290h109l154 -522l153 522h109l-207 -676h-111z" />
    <glyph glyph-name="uni240C" unicode="&#x240c;" 
d="M680 821h418v-100h-316v-195h297v-100h-297v-281h-102v676zM162 614v676h418v-100h-314v-195h295v-100h-295v-281h-104z" />
    <glyph glyph-name="uni2460" unicode="&#x2460;" horiz-adv-x="1703" 
d="M852 -25q-154 0 -294 60t-241 161t-161 241.5t-60 295.5q0 153 60 292.5t161 240.5t241 161t294 60t294 -60t241 -161t161 -240.5t60 -292.5q0 -155 -60 -295.5t-161 -241.5t-241 -161t-294 -60zM248 733q0 -168 79.5 -307t218.5 -219t306 -80t306.5 80t219.5 219.5
t80 306.5q0 166 -80 305t-219.5 219t-306.5 80t-306 -80t-218.5 -218.5t-79.5 -305.5zM612 842v100h50q89 0 135.5 47t46.5 135h102v-794h-137v514z" />
    <glyph glyph-name="uni2461" unicode="&#x2461;" horiz-adv-x="1703" 
d="M852 -25q-154 0 -294 60t-241 161t-161 241.5t-60 295.5q0 153 60 292.5t161 240.5t241 161t294 60t294 -60t241 -161t161 -240.5t60 -292.5q0 -155 -60 -295.5t-161 -241.5t-241 -161t-294 -60zM248 733q0 -168 79.5 -307t218.5 -219t306 -80t306.5 80t219.5 219.5
t80 306.5q0 166 -80 305t-219.5 219t-306.5 80t-306 -80t-218.5 -218.5t-79.5 -305.5zM582 328q0 53 8.5 97.5t32 95.5t72.5 101.5t122 98.5l66 43q104 67 104 156q0 49 -32.5 78.5t-82.5 29.5q-122 0 -149 -143l-131 6q13 118 89.5 188t190.5 70q108 0 177 -64t69 -165
q0 -147 -190 -275l-58 -39q-134 -91 -137 -157h389v-121h-540z" />
    <glyph glyph-name="uni2462" unicode="&#x2462;" horiz-adv-x="1703" 
d="M852 -25q-154 0 -294 60t-241 161t-161 241.5t-60 295.5q0 153 60 292.5t161 240.5t241 161t294 60t294 -60t241 -161t161 -240.5t60 -292.5q0 -155 -60 -295.5t-161 -241.5t-241 -161t-294 -60zM248 733q0 -168 79.5 -307t218.5 -219t306 -80t306.5 80t219.5 219.5
t80 306.5q0 166 -80 305t-219.5 219t-306.5 80t-306 -80t-218.5 -218.5t-79.5 -305.5zM569 532l131 7q5 -50 49.5 -82.5t108.5 -32.5q63 0 105.5 37t42.5 92q0 60 -45.5 102.5t-112.5 42.5h-51v117h51q54 0 90.5 34t36.5 75q0 47 -34 79.5t-85 32.5q-53 0 -87.5 -24
t-39.5 -60l-131 9q12 83 86.5 139.5t171.5 56.5q106 0 178 -62t72 -151q0 -60 -35.5 -110t-99.5 -70q71 -22 118.5 -84t47.5 -135q0 -101 -81 -171.5t-198 -70.5q-118 0 -200.5 66t-88.5 163z" />
    <glyph glyph-name="uni2463" unicode="&#x2463;" horiz-adv-x="1703" 
d="M852 -25q-154 0 -294 60t-241 161t-161 241.5t-60 295.5q0 153 60 292.5t161 240.5t241 161t294 60t294 -60t241 -161t161 -240.5t60 -292.5q0 -155 -60 -295.5t-161 -241.5t-241 -161t-294 -60zM248 733q0 -168 79.5 -307t218.5 -219t306 -80t306.5 80t219.5 219.5
t80 306.5q0 166 -80 305t-219.5 219t-306.5 80t-306 -80t-218.5 -218.5t-79.5 -305.5zM492 485v103l405 536h104v-518h91v-121h-91v-155h-131v155h-378zM662 606h208v279z" />
    <glyph glyph-name="uni2464" unicode="&#x2464;" horiz-adv-x="1703" 
d="M852 -25q-154 0 -294 60t-241 161t-161 241.5t-60 295.5q0 153 60 292.5t161 240.5t241 161t294 60t294 -60t241 -161t161 -240.5t60 -292.5q0 -155 -60 -295.5t-161 -241.5t-241 -161t-294 -60zM248 733q0 -168 79.5 -307t218.5 -219t306 -80t306.5 80t219.5 219.5
t80 306.5q0 166 -80 305t-219.5 219t-306.5 80t-306 -80t-218.5 -218.5t-79.5 -305.5zM575 524l132 6q10 -52 51.5 -82t97.5 -30q62 0 102.5 45.5t40.5 116.5q0 69 -41 116t-102 47q-29 0 -48.5 -4t-45.5 -22t-47 -53h-125l63 462h422v-120h-313l-27 -205q59 59 139 59
q112 0 184 -80t72 -200q0 -126 -77.5 -204.5t-200.5 -78.5q-113 0 -190.5 63.5t-86.5 163.5z" />
    <glyph glyph-name="uni2465" unicode="&#x2465;" horiz-adv-x="1703" 
d="M852 -25q-154 0 -294 60t-241 161t-161 241.5t-60 295.5q0 153 60 292.5t161 240.5t241 161t294 60t294 -60t241 -161t161 -240.5t60 -292.5q0 -155 -60 -295.5t-161 -241.5t-241 -161t-294 -60zM248 733q0 -168 79.5 -307t218.5 -219t306 -80t306.5 80t219.5 219.5
t80 306.5q0 166 -80 305t-219.5 219t-306.5 80t-306 -80t-218.5 -218.5t-79.5 -305.5zM575 680q0 94 17 176.5t52 150t95 107t138 39.5q87 0 154.5 -50t94.5 -142l-127 -13q-29 84 -122 84q-77 0 -123.5 -68.5t-59.5 -175.5q69 89 183 89q108 0 179.5 -79t71.5 -206
q0 -131 -77.5 -210t-196.5 -79q-91 0 -156 53.5t-94 137t-29 186.5zM715 592q-2 -75 37.5 -121.5t103.5 -46.5q66 0 103.5 46t37.5 122q0 75 -36 119.5t-103 44.5q-61 0 -101.5 -45.5t-41.5 -118.5z" />
    <glyph glyph-name="uni2466" unicode="&#x2466;" horiz-adv-x="1703" 
d="M852 -25q-154 0 -294 60t-241 161t-161 241.5t-60 295.5q0 153 60 292.5t161 240.5t241 161t294 60t294 -60t241 -161t161 -240.5t60 -292.5q0 -155 -60 -295.5t-161 -241.5t-241 -161t-294 -60zM248 733q0 -168 79.5 -307t218.5 -219t306 -80t306.5 80t219.5 219.5
t80 306.5q0 166 -80 305t-219.5 219t-306.5 80t-306 -80t-218.5 -218.5t-79.5 -305.5zM569 1004v120h566v-90q-269 -345 -269 -704h-131q0 355 246 674h-412z" />
    <glyph glyph-name="uni2467" unicode="&#x2467;" horiz-adv-x="1703" 
d="M852 -25q-154 0 -294 60t-241 161t-161 241.5t-60 295.5q0 153 60 292.5t161 240.5t241 161t294 60t294 -60t241 -161t161 -240.5t60 -292.5q0 -155 -60 -295.5t-161 -241.5t-241 -161t-294 -60zM248 733q0 -168 79.5 -307t218.5 -219t306 -80t306.5 80t219.5 219.5
t80 306.5q0 166 -80 305t-219.5 219t-306.5 80t-306 -80t-218.5 -218.5t-79.5 -305.5zM563 545q0 75 41 132.5t115 86.5q-117 49 -117 166q0 96 72.5 159.5t177.5 63.5q106 0 178 -63.5t72 -159.5q0 -117 -117 -166q73 -31 114.5 -88t41.5 -131q0 -110 -81.5 -176
t-207.5 -66t-207.5 66t-81.5 176zM694 553q0 -59 43.5 -94t114.5 -35t114.5 35t43.5 94q0 65 -44 106t-114 41t-114 -41t-44 -106zM733 930q0 -52 32.5 -83.5t86.5 -31.5t86.5 31.5t32.5 83.5q0 47 -32.5 74.5t-86.5 27.5t-86.5 -27.5t-32.5 -74.5z" />
    <glyph glyph-name="uni2468" unicode="&#x2468;" horiz-adv-x="1703" 
d="M852 -25q-154 0 -294 60t-241 161t-161 241.5t-60 295.5q0 153 60 292.5t161 240.5t241 161t294 60t294 -60t241 -161t161 -240.5t60 -292.5q0 -155 -60 -295.5t-161 -241.5t-241 -161t-294 -60zM248 733q0 -168 79.5 -307t218.5 -219t306 -80t306.5 80t219.5 219.5
t80 306.5q0 166 -80 305t-219.5 219t-306.5 80t-306 -80t-218.5 -218.5t-79.5 -305.5zM575 496l130 12q29 -84 122 -84q74 0 123 64.5t62 181.5q-67 -90 -185 -90q-108 0 -180 78.5t-72 205.5q0 131 78 210t197 79q90 0 154.5 -53.5t94 -137t29.5 -186.5
q0 -218 -81.5 -345.5t-219.5 -127.5q-87 0 -156 51t-96 142zM707 864q0 -75 36 -119.5t103 -44.5q60 0 102 46t43 118q1 74 -39 121t-104 47q-66 0 -103.5 -46t-37.5 -122z" />
    <glyph glyph-name="uni24EA" unicode="&#x24ea;" horiz-adv-x="1703" 
d="M852 -25q-154 0 -294 60t-241 161t-161 241.5t-60 295.5q0 153 60 292.5t161 240.5t241 161t294 60t294 -60t241 -161t161 -240.5t60 -292.5q0 -155 -60 -295.5t-161 -241.5t-241 -161t-294 -60zM248 733q0 -168 79.5 -307t218.5 -219t306 -80t306.5 80t219.5 219.5
t80 306.5q0 166 -80 305t-219.5 219t-306.5 80t-306 -80t-218.5 -218.5t-79.5 -305.5zM543 727q0 197 83.5 312.5t225.5 115.5t225.5 -115.5t83.5 -312.5q0 -195 -83.5 -309.5t-225.5 -114.5t-225.5 114.5t-83.5 309.5zM668 727q0 -93 20 -154l264 424q-40 37 -100 37
q-88 0 -136 -79t-48 -228zM752 461q40 -37 100 -37q88 0 136 79t48 224q0 96 -20 160z" />
    <glyph glyph-name="uni24FF" unicode="&#x24ff;" horiz-adv-x="1703" 
d="M858 303q-142 0 -225.5 114.5t-83.5 309.5q0 197 83.5 312.5t225.5 115.5t225.5 -115.5t83.5 -312.5q0 -195 -83.5 -309.5t-225.5 -114.5zM96 733q0 -155 60 -295.5t161 -241.5t241 -161t294 -60t294 60t241 161t161 241.5t60 295.5q0 153 -60 292.5t-161 240.5t-241 161
t-294 60t-294 -60t-241 -161t-161 -240.5t-60 -292.5zM674 727q0 -93 20 -154l264 424q-40 37 -100 37q-88 0 -136 -79t-48 -228zM758 461q40 -37 100 -37q88 0 136 79t48 224q0 96 -20 160z" />
    <glyph glyph-name="triagup" unicode="&#x25b2;" horiz-adv-x="1763" 
d="M881 1454l-838 -1454h1677z" />
    <glyph glyph-name="uni25B3" unicode="&#x25b3;" horiz-adv-x="1763" 
d="M324 160l557 975l561 -975h-1118zM43 0h1677l-839 1454z" />
    <glyph glyph-name="uni25B6" unicode="&#x25b6;" horiz-adv-x="1685" 
d="M1642 729l-1454 -731v1460z" />
    <glyph glyph-name="uni25B7" unicode="&#x25b7;" horiz-adv-x="1685" 
d="M1642 729l-1454 -731v1460zM348 256l936 473l-936 471v-944z" />
    <glyph glyph-name="triagdn" unicode="&#x25bc;" horiz-adv-x="1763" 
d="M881 0l839 1454h-1677z" />
    <glyph glyph-name="uni25BD" unicode="&#x25bd;" horiz-adv-x="1763" 
d="M324 1294h1118l-561 -975zM43 1454l838 -1454l839 1454h-1677z" />
    <glyph glyph-name="uni25C0" unicode="&#x25c0;" horiz-adv-x="1685" 
d="M43 729l1454 729v-1460z" />
    <glyph glyph-name="uni25C1" unicode="&#x25c1;" horiz-adv-x="1685" 
d="M43 729l1454 729v-1460zM401 729l936 -473v944z" />
    <glyph glyph-name="lozenge" unicode="&#x25ca;" horiz-adv-x="1103" 
d="M446 1319h211l347 -660l-347 -659h-211l-346 659zM276 659l277 -522l274 522l-274 523z" />
    <glyph glyph-name="circle" unicode="&#x25cb;" horiz-adv-x="1744" 
d="M872 -25q-161 0 -304 57t-246 156t-162.5 239.5t-59.5 301.5q0 216 101.5 390t278 271t392.5 97t392.5 -97t278.5 -271t102 -390q0 -161 -60 -301.5t-163 -239.5t-246 -156t-304 -57zM250 729q0 -173 81.5 -312.5t224 -217.5t316.5 -78t316.5 78t224.5 217.5t82 312.5
q0 175 -82 315.5t-224.5 218.5t-316.5 78q-130 0 -245 -46t-198 -126t-131 -194.5t-48 -245.5z" />
    <glyph glyph-name="uni25CC" unicode="&#x25cc;" horiz-adv-x="1744" 
d="M1315 338q48 51 76 94l125 -82q-41 -61 -97 -117zM100 750l148 2q0 -66 14 -121l-145 -31q-17 80 -17 150zM115 899q12 75 43 145l137 -55q-26 -61 -35 -117zM164 455l137 59q23 -54 59 -102l-120 -88q-48 68 -76 131zM229 1178q39 58 97 116l104 -104q-48 -51 -76 -94z
M340 211l100 108q40 -38 97 -75l-78 -125q-65 41 -119 92zM444 1389q50 35 134 71l55 -135q-73 -34 -107 -59zM594 51l53 137q54 -19 119 -32l-25 -146q-82 16 -147 41zM723 1503q92 15 149 15v-148q-52 0 -120 -10zM872 10v148q53 0 121 10l29 -143q-92 -15 -150 -15z
M979 1372l25 146q82 -16 147 -41l-53 -138q-53 20 -119 33zM1112 205q67 28 107 57l81 -123q-51 -36 -133 -71zM1208 1284l78 125q65 -41 119 -92l-100 -109q-44 41 -97 76zM1384 1116l121 88q48 -68 76 -131l-135 -59q-19 44 -62 102zM1452 539q27 74 33 116l145 -26
q-12 -76 -43 -146zM1483 897l145 31q17 -80 17 -150l-148 -2q0 66 -14 121z" />
    <glyph glyph-name="uni25CF" unicode="&#x25cf;" horiz-adv-x="1744" 
d="M872 -25q-161 0 -304 57t-246 156t-162.5 239.5t-59.5 301.5q0 216 101.5 390t278 271t392.5 97t392.5 -97t278.5 -271t102 -390q0 -161 -60 -301.5t-163 -239.5t-246 -156t-304 -57z" />
    <glyph glyph-name="uni2639" unicode="&#x2639;" horiz-adv-x="1703" 
d="M852 -25q-154 0 -294 60t-241 161t-161 241.5t-60 295.5q0 153 60 292.5t161 240.5t241 161t294 60t294 -60t241 -161t161 -240.5t60 -292.5q0 -155 -60 -295.5t-161 -241.5t-241 -161t-294 -60zM248 733q0 -168 79.5 -307t218.5 -219t306 -80t306.5 80t219.5 219.5
t80 306.5q0 166 -80 305t-219.5 219t-306.5 80t-306 -80t-218.5 -218.5t-79.5 -305.5zM444 416q37 158 148.5 251t265.5 93t265.5 -93t148.5 -251h-148q-35 99 -104 152t-162 53t-162 -53t-104 -152h-148zM549 952q0 41 29.5 70t72.5 29q41 0 71 -29t30 -70q0 -42 -30 -72
t-71 -30q-43 0 -72.5 29.5t-29.5 72.5zM967 952q0 41 29.5 70t72.5 29q41 0 70.5 -29t29.5 -70q0 -43 -29.5 -72.5t-70.5 -29.5q-43 0 -72.5 29.5t-29.5 72.5z" />
    <glyph glyph-name="smileface" unicode="&#x263a;" horiz-adv-x="1703" 
d="M852 -25q-154 0 -294 60t-241 161t-161 241.5t-60 295.5q0 153 60 292.5t161 240.5t241 161t294 60t294 -60t241 -161t161 -240.5t60 -292.5q0 -155 -60 -295.5t-161 -241.5t-241 -161t-294 -60zM248 733q0 -168 79.5 -307t218.5 -219t306 -80t306.5 80t219.5 219.5
t80 306.5q0 166 -80 305t-219.5 219t-306.5 80t-306 -80t-218.5 -218.5t-79.5 -305.5zM418 717h141q25 -108 108 -177t191 -69t191 69t108 177h143q-25 -166 -149.5 -274.5t-292.5 -108.5t-292.5 108.5t-147.5 274.5zM549 952q0 41 29.5 70t72.5 29q41 0 71 -29t30 -70
q0 -42 -30 -72t-71 -30q-43 0 -72.5 29.5t-29.5 72.5zM967 952q0 41 29.5 70t72.5 29q41 0 70.5 -29t29.5 -70q0 -43 -29.5 -72.5t-70.5 -29.5q-43 0 -72.5 29.5t-29.5 72.5z" />
    <glyph glyph-name="uni2776" unicode="&#x2776;" horiz-adv-x="1703" 
d="M852 -25q154 0 294 60t241 161t161 241.5t60 295.5q0 153 -60 292.5t-161 240.5t-241 161t-294 60t-294 -60t-241 -161t-161 -240.5t-60 -292.5q0 -155 60 -295.5t161 -241.5t241 -161t294 -60zM612 842v100h50q89 0 135.5 47t46.5 135h102v-794h-137v514z" />
    <glyph glyph-name="uni2777" unicode="&#x2777;" horiz-adv-x="1703" 
d="M852 -25q154 0 294 60t241 161t161 241.5t60 295.5q0 153 -60 292.5t-161 240.5t-241 161t-294 60t-294 -60t-241 -161t-161 -240.5t-60 -292.5q0 -155 60 -295.5t161 -241.5t241 -161t294 -60zM580 328q0 53 8.5 97.5t32 95.5t72.5 101.5t122 98.5l66 43q104 67 104 156
q0 49 -32.5 78.5t-82.5 29.5q-122 0 -149 -143l-131 6q13 118 89.5 188t190.5 70q108 0 177 -64t69 -165q0 -147 -190 -275l-58 -39q-134 -91 -137 -157h389v-121h-540z" />
    <glyph glyph-name="uni2778" unicode="&#x2778;" horiz-adv-x="1703" 
d="M852 -25q154 0 294 60t241 161t161 241.5t60 295.5q0 153 -60 292.5t-161 240.5t-241 161t-294 60t-294 -60t-241 -161t-161 -240.5t-60 -292.5q0 -155 60 -295.5t161 -241.5t241 -161t294 -60zM569 532l131 7q5 -50 49.5 -82.5t108.5 -32.5q63 0 105.5 37t42.5 92
q0 60 -45.5 102.5t-112.5 42.5h-51v117h51q54 0 90.5 34t36.5 75q0 47 -34 79.5t-85 32.5q-53 0 -87.5 -24t-39.5 -60l-131 9q12 83 86.5 139.5t171.5 56.5q106 0 178 -62t72 -151q0 -60 -35.5 -110t-99.5 -70q71 -22 118.5 -84t47.5 -135q0 -101 -81 -171.5t-198 -70.5
q-118 0 -200.5 66t-88.5 163z" />
    <glyph glyph-name="uni2779" unicode="&#x2779;" horiz-adv-x="1703" 
d="M852 -25q154 0 294 60t241 161t161 241.5t60 295.5q0 153 -60 292.5t-161 240.5t-241 161t-294 60t-294 -60t-241 -161t-161 -240.5t-60 -292.5q0 -155 60 -295.5t161 -241.5t241 -161t294 -60zM492 485v103l405 536h104v-518h91v-121h-91v-155h-131v155h-378zM662 606
h208v279z" />
    <glyph glyph-name="uni277A" unicode="&#x277a;" horiz-adv-x="1703" 
d="M852 -25q154 0 294 60t241 161t161 241.5t60 295.5q0 153 -60 292.5t-161 240.5t-241 161t-294 60t-294 -60t-241 -161t-161 -240.5t-60 -292.5q0 -155 60 -295.5t161 -241.5t241 -161t294 -60zM575 524l132 6q10 -52 51.5 -82t97.5 -30q62 0 102.5 45.5t40.5 116.5
q0 69 -41 116t-102 47q-29 0 -48.5 -4t-45.5 -22t-47 -53h-125l63 462h422v-120h-313l-27 -205q59 59 139 59q112 0 184 -80t72 -200q0 -126 -77.5 -204.5t-200.5 -78.5q-113 0 -190.5 63.5t-86.5 163.5z" />
    <glyph glyph-name="uni277B" unicode="&#x277b;" horiz-adv-x="1703" 
d="M852 -25q154 0 294 60t241 161t161 241.5t60 295.5q0 153 -60 292.5t-161 240.5t-241 161t-294 60t-294 -60t-241 -161t-161 -240.5t-60 -292.5q0 -155 60 -295.5t161 -241.5t241 -161t294 -60zM575 680q0 94 17 176.5t52 150t95 107t138 39.5q87 0 154.5 -50t94.5 -142
l-127 -13q-29 84 -122 84q-77 0 -123.5 -68.5t-59.5 -175.5q69 89 183 89q108 0 179.5 -79t71.5 -206q0 -131 -77.5 -210t-196.5 -79q-91 0 -156 53.5t-94 137t-29 186.5zM715 592q-2 -75 37.5 -121.5t103.5 -46.5q66 0 103.5 46t37.5 122q0 75 -36 119.5t-103 44.5
q-61 0 -101.5 -45.5t-41.5 -118.5z" />
    <glyph glyph-name="uni277C" unicode="&#x277c;" horiz-adv-x="1703" 
d="M852 -25q154 0 294 60t241 161t161 241.5t60 295.5q0 153 -60 292.5t-161 240.5t-241 161t-294 60t-294 -60t-241 -161t-161 -240.5t-60 -292.5q0 -155 60 -295.5t161 -241.5t241 -161t294 -60zM569 1004v120h566v-90q-269 -345 -269 -704h-131q0 355 246 674h-412z" />
    <glyph glyph-name="uni277D" unicode="&#x277d;" horiz-adv-x="1703" 
d="M852 -25q154 0 294 60t241 161t161 241.5t60 295.5q0 153 -60 292.5t-161 240.5t-241 161t-294 60t-294 -60t-241 -161t-161 -240.5t-60 -292.5q0 -155 60 -295.5t161 -241.5t241 -161t294 -60zM563 545q0 75 41 132.5t115 86.5q-117 49 -117 166q0 96 72.5 159.5
t177.5 63.5q106 0 178 -63.5t72 -159.5q0 -117 -117 -166q73 -31 114.5 -88t41.5 -131q0 -110 -81.5 -176t-207.5 -66t-207.5 66t-81.5 176zM694 553q0 -59 43.5 -94t114.5 -35t114.5 35t43.5 94q0 65 -44 106t-114 41t-114 -41t-44 -106zM733 930q0 -52 32.5 -83.5
t86.5 -31.5t86.5 31.5t32.5 83.5q0 47 -32.5 74.5t-86.5 27.5t-86.5 -27.5t-32.5 -74.5z" />
    <glyph glyph-name="uni277E" unicode="&#x277e;" horiz-adv-x="1703" 
d="M852 -25q154 0 294 60t241 161t161 241.5t60 295.5q0 153 -60 292.5t-161 240.5t-241 161t-294 60t-294 -60t-241 -161t-161 -240.5t-60 -292.5q0 -155 60 -295.5t161 -241.5t241 -161t294 -60zM575 496l130 12q29 -84 122 -84q74 0 123 64.5t62 181.5q-67 -90 -185 -90
q-108 0 -180 78.5t-72 205.5q0 131 78 210t197 79q90 0 154.5 -53.5t94 -137t29.5 -186.5q0 -218 -81.5 -345.5t-219.5 -127.5q-87 0 -156 51t-96 142zM707 864q0 -75 36 -119.5t103 -44.5q60 0 102 46t43 118q1 74 -39 121t-104 47q-66 0 -103.5 -46t-37.5 -122z" />
    <glyph glyph-name="uni3002" unicode="&#x3002;" horiz-adv-x="720" 
d="M362 -225q-109 0 -187.5 77t-78.5 185q0 110 78.5 188t187.5 78t186 -78t77 -188q0 -109 -77 -185.5t-186 -76.5zM246 37q0 -47 34.5 -82t81.5 -35q49 0 82 34.5t33 82.5t-33.5 84.5t-81.5 36.5q-47 0 -81.5 -36.5t-34.5 -84.5z" />
    <glyph glyph-name="uni3003" unicode="&#x3003;" horiz-adv-x="761" 
d="M416 985l-187 -410h-133l129 410h191zM348 575l129 410h189l-185 -410h-133z" />
    <glyph glyph-name="uni3008" unicode="&#x3008;" horiz-adv-x="733" 
d="M471 1681h166l-375 -956l375 -958h-166l-375 958z" />
    <glyph glyph-name="uni3009" unicode="&#x3009;" horiz-adv-x="733" 
d="M262 1681l375 -956l-375 -958h-166l375 958l-375 956h166z" />
    <glyph glyph-name="uni300A" unicode="&#x300a;" horiz-adv-x="1075" 
d="M471 1681h166l-375 -956l375 -958h-166l-375 958zM438 725l375 956h166l-375 -956l375 -958h-166z" />
    <glyph glyph-name="uni300B" unicode="&#x300b;" horiz-adv-x="1075" 
d="M604 1681l375 -956l-375 -958h-166l375 958l-375 956h166zM96 -233l375 958l-375 956h166l375 -956l-375 -958h-166z" />
    <glyph glyph-name="uni300C" unicode="&#x300c;" horiz-adv-x="811" 
d="M96 481v1211h619v-160h-455v-1051h-164z" />
    <glyph glyph-name="uni300D" unicode="&#x300d;" horiz-adv-x="811" 
d="M715 999v-1210h-619v160h455v1050h164z" />
    <glyph glyph-name="uni300E" unicode="&#x300e;" horiz-adv-x="813" 
d="M96 477v1215h621v-328h-293v-887h-328zM178 559h164v887h293v164h-457v-1051z" />
    <glyph glyph-name="uni300F" unicode="&#x300f;" horiz-adv-x="813" 
d="M717 1004v-1215h-621v328h293v887h328zM178 -129h457v1051h-164v-887h-293v-164z" />
    <glyph glyph-name="uni3010" unicode="&#x3010;" horiz-adv-x="753" 
d="M657 1690q-277 -439 -277 -908.5t277 -910.5h-561v1819h561z" />
    <glyph glyph-name="uni3011" unicode="&#x3011;" horiz-adv-x="753" 
d="M657 1690v-1819h-561q277 441 277 910.5t-277 908.5h561z" />
    <glyph glyph-name="uni3014" unicode="&#x3014;" horiz-adv-x="813" 
d="M606 1741l107 -117l-453 -405v-990l457 -411l-107 -117l-514 463v1120z" />
    <glyph glyph-name="uni3015" unicode="&#x3015;" horiz-adv-x="813" 
d="M207 1741l510 -457v-1120l-514 -463l-107 117l457 411v990l-453 405z" />
    <glyph glyph-name="uni3016" unicode="&#x3016;" horiz-adv-x="735" 
d="M639 1690q-277 -439 -277 -908.5t277 -910.5h-543v1819h543zM178 -47h316q-429 829 0 1655h-316v-1655z" />
    <glyph glyph-name="uni3017" unicode="&#x3017;" horiz-adv-x="735" 
d="M639 1690v-1819h-543q277 441 277 910.5t-277 908.5h543zM242 -47h315v1655h-315q429 -826 0 -1655z" />
    <glyph glyph-name="uni301C" unicode="&#x301c;" horiz-adv-x="1753" 
d="M1556 827q-104 -95 -181 -132.5t-171 -37.5q-71 0 -127.5 20.5t-232.5 110.5q-63 32 -144 53t-145 21q-122 0 -222.5 -48.5t-236.5 -174.5l99 -139q89 98 174 142t188 44q59 0 136 -21t145 -55q169 -85 233 -107t133 -22q231 0 453 213z" />
    <glyph glyph-name="uniA78B" unicode="&#xa78b;" horiz-adv-x="380" 
d="M100 1454h181v-278l-27 -402h-125l-29 402v278z" />
    <glyph glyph-name="uniA78C" unicode="&#xa78c;" horiz-adv-x="380" 
d="M100 1454h181v-278l-27 -402h-125l-29 402v278z" />
    <glyph glyph-name="uniFF01" unicode="&#xff01;" horiz-adv-x="563" 
d="M139 1454h176v-473q0 -108 -14 -306t-16 -255h-113q-2 37 -17.5 243.5t-15.5 317.5v473zM111 0v223h219v-223h-219z" />
    <glyph glyph-name="uniFF02" unicode="&#xff02;" horiz-adv-x="720" 
d="M444 1454h181v-164l-47 -372h-125zM96 1290v164h180l-8 -536h-123z" />
    <glyph glyph-name="uniFF03" unicode="&#xff03;" horiz-adv-x="978" 
d="M76 0l74 403h-170l22 144h174l66 354h-181l23 143h184l74 408l147 2l-75 -410h276l74 408l147 2l-75 -410h153l-22 -143h-158l-66 -354h164l-22 -144h-168l-74 -403h-145l73 403h-276l-74 -403h-145zM322 547h276l66 354h-277z" />
    <glyph glyph-name="uniFF05" unicode="&#xff05;" horiz-adv-x="1572" 
d="M1225 1487h194l-1061 -1512h-194zM96 1102q0 149 86 251.5t209 102.5t209 -102.5t86 -251.5q0 -148 -86 -250t-209 -102t-209 102t-86 250zM252 1102q0 -91 37.5 -144t101.5 -53q65 0 103 53t38 144t-38 144.5t-103 53.5q-64 0 -101.5 -53.5t-37.5 -144.5zM887 354
q0 148 86 250.5t209 102.5t209 -102.5t86 -250.5q0 -149 -86 -251.5t-209 -102.5t-209 102.5t-86 251.5zM1042 354q0 -91 38 -144.5t102 -53.5q65 0 103 53.5t38 144.5t-38 144t-103 53q-64 0 -102 -53t-38 -144z" />
    <glyph glyph-name="uniFF06" unicode="&#xff06;" horiz-adv-x="1310" 
d="M590 1487q-92 8 -174 -31.5t-133.5 -120.5t-51.5 -184q0 -165 136 -346l-27 -19q-140 -98 -199 -187t-59 -214q0 -195 140 -302.5t374 -107.5q107 0 199 30.5t151 86.5l76 -92h207l-174 211q60 72 95.5 186.5t37.5 237.5l-180 16q5 -90 -11 -176t-51 -135l-336 428
q212 130 271 305q27 78 12 150t-57 128.5t-107.5 92.5t-138.5 43zM262 385q0 48 19 91.5t54 80t66 61t74 52.5l352 -449q-32 -40 -94 -63t-137 -23q-154 0 -244 67.5t-90 182.5zM406 1145q-2 73 49 123.5t125 46.5q65 -4 104 -51.5t39 -118.5q0 -68 -58 -134t-157 -112
q-102 142 -102 246z" />
    <glyph glyph-name="uniFF07" unicode="&#xff07;" horiz-adv-x="372" 
d="M96 1454h180v-156l-26 -380h-125l-29 380v156z" />
    <glyph glyph-name="uniFF08" unicode="&#xff08;" horiz-adv-x="636" 
d="M541 1536q-518 -880 0 -1761h-160q-284 424 -284 880.5t284 880.5h160z" />
    <glyph glyph-name="uniFF09" unicode="&#xff09;" horiz-adv-x="636" 
d="M256 1536q284 -424 284 -880.5t-284 -880.5h-160q518 881 0 1761h160z" />
    <glyph glyph-name="uniFF0A" unicode="&#xff0a;" horiz-adv-x="892" 
d="M797 1182v-121h-246l125 -213l-105 -62l-125 213l-122 -213l-105 62l123 213h-246v121h246l-123 211l105 61l122 -213l125 213l105 -61l-125 -211h246z" />
    <glyph glyph-name="uniFF0C" unicode="&#xff0c;" horiz-adv-x="413" 
d="M317 0l-116 -315h-101l80 315h-84v223h219v-223h2z" />
    <glyph glyph-name="uniFF0D" unicode="&#xff0d;" horiz-adv-x="1474" 
d="M96 799h1282v-160h-1282v160z" />
    <glyph glyph-name="uniFF0E" unicode="&#xff0e;" horiz-adv-x="411" 
d="M96 215h219v-223h-219v223z" />
    <glyph glyph-name="uniFF0F" unicode="&#xff0f;" horiz-adv-x="985" 
d="M80 -225l604 1761h166l-606 -1761h-164z" />
    <glyph glyph-name="uniFF1A" unicode="&#xff1a;" horiz-adv-x="411" 
d="M96 223h219v-223h-219v223zM96 723v223h219v-223h-219z" />
    <glyph glyph-name="uniFF1B" unicode="&#xff1b;" horiz-adv-x="413" 
d="M96 946h219v-223h-219v223zM96 0v223h219v-223h2l-116 -315h-101l80 315h-84z" />
    <glyph glyph-name="uniFF1F" unicode="&#xff1f;" horiz-adv-x="1157" 
d="M485 420q0 134 41.5 221t149.5 176q21 18 59.5 47t57.5 45.5t42 43t32.5 57t9.5 69.5q2 104 -78.5 170t-212.5 66q-124 0 -205.5 -83.5t-99.5 -219.5l-185 12q19 199 154.5 331t324.5 132q215 0 350.5 -114t135.5 -294q0 -105 -60 -193t-194 -179q-82 -57 -113.5 -120
t-31.5 -167h-177zM459 0v223h219v-223h-219z" />
    <glyph glyph-name="uniFF20" unicode="&#xff20;" horiz-adv-x="1865" 
d="M1196 1004h147l-36 -472q-12 -137 14 -174q40 -61 110 -44q74 19 127 112q57 99 62 240q6 174 -74 320.5t-224.5 232.5t-320.5 86q-203 0 -374 -91.5t-272.5 -250t-108.5 -349.5q-6 -162 41 -292t139.5 -214.5t218.5 -126.5t285.5 -31t333.5 75l34 -144
q-165 -63 -323.5 -79.5t-292 11t-246 96t-189.5 169.5t-117 238.5t-34 297.5q6 174 80.5 329.5t195.5 267.5t287 177.5t347 65.5q218 0 395 -103t275 -281.5t91 -393.5q-8 -279 -156 -417q-101 -94 -227 -91q-109 3 -171 75q-38 44 -46 103q-37 -76 -131 -128t-198 -52
q-95 0 -169 35t-116.5 94.5t-60 136.5t-7.5 162t42 161t85 136.5t132 95.5t174 35q94 0 165 -34.5t103 -96.5zM645 594q-6 -61 4 -114t36 -96.5t76 -69t118 -25.5q67 0 121 25.5t88 69.5t54.5 97t26.5 113q7 84 -12 151.5t-75.5 112.5t-145.5 45q-132 0 -205 -88t-86 -221z
" />
    <glyph glyph-name="uniFF3B" unicode="&#xff3b;" horiz-adv-x="684" 
d="M96 1536h492v-160h-328v-1442h328v-159h-492v1761z" />
    <glyph glyph-name="uniFF3C" unicode="&#xff3c;" horiz-adv-x="972" 
d="M870 -225h-163l-607 1761h166z" />
    <glyph glyph-name="uniFF3D" unicode="&#xff3d;" horiz-adv-x="684" 
d="M588 1536v-1761h-492v159h328v1442h-328v160h492z" />
    <glyph glyph-name="uniFF3F" unicode="&#xff3f;" horiz-adv-x="1153" 
d="M96 -90h961v-160h-961v160z" />
    <glyph glyph-name="uniFF5B" unicode="&#xff5b;" horiz-adv-x="866" 
d="M96 735q92 -3 151.5 75t59.5 204v170q0 155 103 253.5t266 98.5h94v-160q-162 6 -230.5 -37t-68.5 -151v-189q0 -136 -69.5 -230t-180.5 -116v-2q113 -22 181.5 -116.5t68.5 -233.5v-188q0 -106 68.5 -149.5t230.5 -39.5v-160h-94q-163 0 -266 99t-103 254v170
q0 126 -59 203.5t-152 74.5v170z" />
    <glyph glyph-name="uniFF5D" unicode="&#xff5d;" horiz-adv-x="866" 
d="M770 565q-93 3 -152 -74.5t-59 -203.5v-170q0 -155 -103 -254t-266 -99h-94v160q162 -4 230.5 39.5t68.5 149.5v188q0 139 68.5 233.5t181.5 116.5v2q-111 22 -180.5 116t-69.5 230v189q0 108 -68.5 151t-230.5 37v160h94q163 0 266 -98.5t103 -253.5v-170
q0 -126 59.5 -204t151.5 -75v-170z" />
    <glyph glyph-name="uni004A0301" horiz-adv-x="1222" 
d="M317 487q1 -167 75 -257.5t208 -90.5q138 0 213.5 96t75.5 273v946h176v-946q0 -249 -125.5 -395t-339.5 -146q-202 0 -331.5 141.5t-131.5 362.5zM905 1616l129 266h191l-185 -266h-135z" />
    <glyph glyph-name="uni013B.loclMAH" horiz-adv-x="1187" 
d="M188 0v1454h177v-1282h727v-172h-904zM444 -389l129 266h191l-184 -266h-136z" />
    <glyph glyph-name="uni0145.loclMAH" horiz-adv-x="1511" 
d="M188 1454h246l713 -1245v1245h176v-1454h-256l-702 1225v-1225h-177v1454zM559 -389l129 266h191l-185 -266h-135z" />
    <glyph glyph-name="R.ss04" horiz-adv-x="1388" 
d="M711 1454q243 0 378.5 -116.5t135.5 -323.5q0 -153 -81 -257.5t-231 -144.5l349 -612h-195l-334 586h-22h-346v-586h-177v1454h523zM365 758h346q160 0 244.5 67t84.5 193q0 127 -85 195.5t-244 68.5h-346v-524z" />
    <glyph glyph-name="Racute.ss04" horiz-adv-x="1386" 
d="M711 1454q243 0 378.5 -116.5t135.5 -323.5q0 -153 -81 -257.5t-231 -144.5l349 -612h-195l-334 586h-22h-346v-586h-177v1454h523zM365 758h346q160 0 244.5 67t84.5 193q0 127 -85 195.5t-244 68.5h-346v-524zM606 1616l129 266h191l-185 -266h-135z" />
    <glyph glyph-name="Rcaron.ss04" horiz-adv-x="1386" 
d="M711 1454q243 0 378.5 -116.5t135.5 -323.5q0 -153 -81 -257.5t-231 -144.5l349 -612h-195l-334 586h-22h-346v-586h-177v1454h523zM365 758h346q160 0 244.5 67t84.5 193q0 127 -85 195.5t-244 68.5h-346v-524zM391 1862h158l125 -174l125 174h155l-178 -246h-209z" />
    <glyph glyph-name="uni0156.ss04" horiz-adv-x="1386" 
d="M711 1454q243 0 378.5 -116.5t135.5 -323.5q0 -153 -81 -257.5t-231 -144.5l349 -612h-195l-334 586h-22h-346v-586h-177v1454h523zM365 758h346q160 0 244.5 67t84.5 193q0 127 -85 195.5t-244 68.5h-346v-524zM483 -389l129 266h191l-185 -266h-135z" />
    <glyph glyph-name="I.ss05" horiz-adv-x="888" 
d="M776 1454v-172h-244v-1110h256v-172h-688v172h256v1110h-243v172h663z" />
    <glyph glyph-name="Iacute.ss05" horiz-adv-x="888" 
d="M776 1454v-172h-244v-1110h256v-172h-688v172h256v1110h-243v172h663zM373 1616l129 266h190l-184 -266h-135z" />
    <glyph glyph-name="Icircumflex.ss05" horiz-adv-x="888" 
d="M776 1454v-172h-244v-1110h256v-172h-688v172h256v1110h-243v172h663zM162 1616l176 246h209l178 -246h-156l-125 174l-125 -174h-157z" />
    <glyph glyph-name="Idieresis.ss05" horiz-adv-x="888" 
d="M776 1454v-172h-244v-1110h256v-172h-688v172h256v1110h-243v172h663zM201 1624v197h180v-197h-180zM514 1624v197h180v-197h-180z" />
    <glyph glyph-name="Idotaccent.ss05" horiz-adv-x="888" 
d="M776 1454v-172h-244v-1110h256v-172h-688v172h256v1110h-243v172h663zM354 1624v197h181v-197h-181z" />
    <glyph glyph-name="Igrave.ss05" horiz-adv-x="888" 
d="M776 1454v-172h-244v-1110h256v-172h-688v172h256v1110h-243v172h663zM197 1882h190l129 -266h-133z" />
    <glyph glyph-name="Imacron.ss05" horiz-adv-x="888" 
d="M776 1454v-172h-244v-1110h256v-172h-688v172h256v1110h-243v172h663zM182 1649v127h523v-127h-523z" />
    <glyph glyph-name="Iogonek.ss05" horiz-adv-x="888" 
d="M776 1454v-172h-244v-1110h256v-172h3l-64 -92q-61 -86 -61 -131q0 -31 18.5 -51.5t48.5 -20.5q16 0 34.5 5.5t52 19.5t42.5 18v-131q-72 -55 -155 -55q-76 0 -130.5 49t-54.5 123q0 100 74 180l78 86h-574v172h256v1110h-243v172h663z" />
    <glyph glyph-name="Itilde.ss05" horiz-adv-x="888" 
d="M776 1454v-172h-244v-1110h256v-172h-688v172h256v1110h-243v172h663zM102 1618q0 121 55 192.5t148 71.5q90 0 150 -57q8 -8 28 -28.5t29.5 -29t28.5 -17.5t39 -9q82 0 82 139h126q0 -120 -54.5 -193t-145.5 -73q-59 0 -96 19.5t-68 52.5q-6 5 -19.5 19t-20.5 20
t-19 14.5t-24.5 12t-27.5 3.5q-84 0 -84 -137h-127z" />
    <glyph glyph-name="G.ss06" horiz-adv-x="1435" 
d="M758 735h588v-90q0 -320 -154.5 -499t-433.5 -179q-153 0 -278.5 59t-208 162t-127 240.5t-44.5 296.5q0 160 44.5 298t126.5 241.5t207.5 163t279.5 59.5q227 0 377 -129.5t198 -349.5l-184 -13q-38 151 -137 235.5t-254 84.5q-121 0 -213.5 -47.5t-148 -130t-83.5 -187
t-28 -225.5q0 -96 17 -181.5t54.5 -160t92 -128.5t134 -85t175.5 -31q189 0 297 118.5t114 305.5h-411v172z" />
    <glyph glyph-name="Gbreve.ss06" horiz-adv-x="1435" 
d="M758 735h588v-90q0 -320 -154.5 -499t-433.5 -179q-153 0 -278.5 59t-208 162t-127 240.5t-44.5 296.5q0 160 44.5 298t126.5 241.5t207.5 163t279.5 59.5q227 0 377 -129.5t198 -349.5l-184 -13q-38 151 -137 235.5t-254 84.5q-121 0 -213.5 -47.5t-148 -130t-83.5 -187
t-28 -225.5q0 -96 17 -181.5t54.5 -160t92 -128.5t134 -85t175.5 -31q189 0 297 118.5t114 305.5h-411v172zM469 1880h133q0 -57 45.5 -96t112.5 -39q66 0 110.5 39t44.5 96h134q0 -110 -83.5 -186t-205.5 -76q-123 0 -207 76t-84 186z" />
    <glyph glyph-name="Gcircumflex.ss06" horiz-adv-x="1435" 
d="M758 735h588v-90q0 -320 -154.5 -499t-433.5 -179q-153 0 -278.5 59t-208 162t-127 240.5t-44.5 296.5q0 160 44.5 298t126.5 241.5t207.5 163t279.5 59.5q227 0 377 -129.5t198 -349.5l-184 -13q-38 151 -137 235.5t-254 84.5q-121 0 -213.5 -47.5t-148 -130t-83.5 -187
t-28 -225.5q0 -96 17 -181.5t54.5 -160t92 -128.5t134 -85t175.5 -31q189 0 297 118.5t114 305.5h-411v172zM477 1616l176 246h209l178 -246h-155l-125 174l-125 -174h-158z" />
    <glyph glyph-name="uni0122.ss06" horiz-adv-x="1435" 
d="M758 735h588v-90q0 -320 -154.5 -499t-433.5 -179q-153 0 -278.5 59t-208 162t-127 240.5t-44.5 296.5q0 160 44.5 298t126.5 241.5t207.5 163t279.5 59.5q227 0 377 -129.5t198 -349.5l-184 -13q-38 151 -137 235.5t-254 84.5q-121 0 -213.5 -47.5t-148 -130t-83.5 -187
t-28 -225.5q0 -96 17 -181.5t54.5 -160t92 -128.5t134 -85t175.5 -31q189 0 297 118.5t114 305.5h-411v172zM563 -389l129 266h191l-185 -266h-135z" />
    <glyph glyph-name="Gdotaccent.ss06" horiz-adv-x="1435" 
d="M758 735h588v-90q0 -320 -154.5 -499t-433.5 -179q-153 0 -278.5 59t-208 162t-127 240.5t-44.5 296.5q0 160 44.5 298t126.5 241.5t207.5 163t279.5 59.5q227 0 377 -129.5t198 -349.5l-184 -13q-38 151 -137 235.5t-254 84.5q-121 0 -213.5 -47.5t-148 -130t-83.5 -187
t-28 -225.5q0 -96 17 -181.5t54.5 -160t92 -128.5t134 -85t175.5 -31q189 0 297 118.5t114 305.5h-411v172zM668 1624v197h180v-197h-180z" />
    <glyph glyph-name="uni1E20.ss06" horiz-adv-x="1435" 
d="M758 735h588v-90q0 -320 -154.5 -499t-433.5 -179q-153 0 -278.5 59t-208 162t-127 240.5t-44.5 296.5q0 160 44.5 298t126.5 241.5t207.5 163t279.5 59.5q227 0 377 -129.5t198 -349.5l-184 -13q-38 151 -137 235.5t-254 84.5q-121 0 -213.5 -47.5t-148 -130t-83.5 -187
t-28 -225.5q0 -96 17 -181.5t54.5 -160t92 -128.5t134 -85t175.5 -31q189 0 297 118.5t114 305.5h-411v172zM498 1649v127h522v-127h-522z" />
    <glyph glyph-name="Adieresis.ss08" horiz-adv-x="1372" 
d="M43 0l524 1454h238l524 -1454h-192l-146 414h-610l-145 -414h-193zM412 1718q0 46 31 76.5t77 30.5t77.5 -30.5t31.5 -76.5t-31.5 -77t-77.5 -31t-77 31t-31 77zM440 586h492l-246 714zM733 1718q0 46 31.5 76.5t77.5 30.5t77 -30.5t31 -76.5t-31 -77t-77 -31t-77.5 31
t-31.5 77z" />
    <glyph glyph-name="Cdotaccent.ss08" horiz-adv-x="1435" 
d="M1346 479q-41 -236 -192 -374t-396 -138q-153 0 -278.5 59t-208 162t-127 240.5t-44.5 296.5q0 160 44.5 298t126.5 241.5t207.5 163t279.5 59.5q227 0 377 -129.5t198 -349.5l-186 -13q-35 154 -136.5 237t-252.5 83q-121 0 -213.5 -47.5t-148 -130t-83.5 -187
t-28 -225.5q0 -96 17 -181.5t54.5 -160t92 -128.5t134 -85t175.5 -31q159 0 263 92t136 261zM651 1718q0 44 31 73.5t76 29.5q46 0 77 -29.5t31 -73.5q0 -47 -31 -76.5t-77 -29.5q-45 0 -76 30t-31 76z" />
    <glyph glyph-name="Edieresis.ss08" horiz-adv-x="1234" 
d="M188 1454h914v-172h-737v-469h712v-168h-712v-473h753v-172h-930v1454zM375 1720q0 46 31 76.5t77 30.5t77.5 -30.5t31.5 -76.5t-31.5 -77t-77.5 -31t-77 31t-31 77zM696 1720q0 46 31.5 76.5t77.5 30.5t77 -30.5t31 -76.5t-31 -77t-77 -31t-77.5 31t-31.5 77z" />
    <glyph glyph-name="Edotaccent.ss08" horiz-adv-x="1234" 
d="M188 1454h914v-172h-737v-469h712v-168h-712v-473h753v-172h-930v1454zM541 1720q0 44 30.5 73.5t75.5 29.5q46 0 77.5 -29.5t31.5 -73.5q0 -47 -31.5 -76.5t-77.5 -29.5q-45 0 -75.5 29.5t-30.5 76.5z" />
    </font>
</defs>
</svg>
